%TF.GenerationSoftware,KiCad,Pcbnew,10.0.3*%
%TF.CreationDate,2026-06-09T20:37:01-04:00*%
%TF.ProjectId,I2C_PP,4932435f-5050-42e6-9b69-6361645f7063,rev?*%
%TF.SameCoordinates,Original*%
%TF.FileFunction,Soldermask,Top*%
%TF.FilePolarity,Negative*%
%FSLAX46Y46*%
G04 Gerber Fmt 4.6, Leading zero omitted, Abs format (unit mm)*
G04 Created by KiCad (PCBNEW 10.0.3) date 2026-06-09 20:37:01*
%MOMM*%
%LPD*%
G01*
G04 APERTURE LIST*
G04 Aperture macros list*
%AMRoundRect*
0 Rectangle with rounded corners*
0 $1 Rounding radius*
0 $2 $3 $4 $5 $6 $7 $8 $9 X,Y pos of 4 corners*
0 Add a 4 corners polygon primitive as box body*
4,1,4,$2,$3,$4,$5,$6,$7,$8,$9,$2,$3,0*
0 Add four circle primitives for the rounded corners*
1,1,$1+$1,$2,$3*
1,1,$1+$1,$4,$5*
1,1,$1+$1,$6,$7*
1,1,$1+$1,$8,$9*
0 Add four rect primitives between the rounded corners*
20,1,$1+$1,$2,$3,$4,$5,0*
20,1,$1+$1,$4,$5,$6,$7,0*
20,1,$1+$1,$6,$7,$8,$9,0*
20,1,$1+$1,$8,$9,$2,$3,0*%
%AMFreePoly0*
4,1,37,0.800000,0.796148,0.878414,0.796148,1.032228,0.765552,1.177117,0.705537,1.307515,0.618408,1.418408,0.507515,1.505537,0.377117,1.565552,0.232228,1.596148,0.078414,1.596148,-0.078414,1.565552,-0.232228,1.505537,-0.377117,1.418408,-0.507515,1.307515,-0.618408,1.177117,-0.705537,1.032228,-0.765552,0.878414,-0.796148,0.800000,-0.796148,0.800000,-0.800000,-1.400000,-0.800000,
-1.403843,-0.796157,-1.439018,-0.796157,-1.511114,-0.766294,-1.566294,-0.711114,-1.596157,-0.639018,-1.596157,-0.603843,-1.600000,-0.600000,-1.600000,0.600000,-1.596157,0.603843,-1.596157,0.639018,-1.566294,0.711114,-1.511114,0.766294,-1.439018,0.796157,-1.403843,0.796157,-1.400000,0.800000,0.800000,0.800000,0.800000,0.796148,0.800000,0.796148,$1*%
%AMFreePoly1*
4,1,37,1.403843,0.796157,1.439018,0.796157,1.511114,0.766294,1.566294,0.711114,1.596157,0.639018,1.596157,0.603843,1.600000,0.600000,1.600000,-0.600000,1.596157,-0.603843,1.596157,-0.639018,1.566294,-0.711114,1.511114,-0.766294,1.439018,-0.796157,1.403843,-0.796157,1.400000,-0.800000,-0.800000,-0.800000,-0.800000,-0.796148,-0.878414,-0.796148,-1.032228,-0.765552,-1.177117,-0.705537,
-1.307515,-0.618408,-1.418408,-0.507515,-1.505537,-0.377117,-1.565552,-0.232228,-1.596148,-0.078414,-1.596148,0.078414,-1.565552,0.232228,-1.505537,0.377117,-1.418408,0.507515,-1.307515,0.618408,-1.177117,0.705537,-1.032228,0.765552,-0.878414,0.796148,-0.800000,0.796148,-0.800000,0.800000,1.400000,0.800000,1.403843,0.796157,1.403843,0.796157,$1*%
%AMFreePoly2*
4,1,37,0.603843,0.796157,0.639018,0.796157,0.711114,0.766294,0.766294,0.711114,0.796157,0.639018,0.796157,0.603843,0.800000,0.600000,0.800000,-0.600000,0.796157,-0.603843,0.796157,-0.639018,0.766294,-0.711114,0.711114,-0.766294,0.639018,-0.796157,0.603843,-0.796157,0.600000,-0.800000,0.000000,-0.800000,0.000000,-0.796148,-0.078414,-0.796148,-0.232228,-0.765552,-0.377117,-0.705537,
-0.507515,-0.618408,-0.618408,-0.507515,-0.705537,-0.377117,-0.765552,-0.232228,-0.796148,-0.078414,-0.796148,0.078414,-0.765552,0.232228,-0.705537,0.377117,-0.618408,0.507515,-0.507515,0.618408,-0.377117,0.705537,-0.232228,0.765552,-0.078414,0.796148,0.000000,0.796148,0.000000,0.800000,0.600000,0.800000,0.603843,0.796157,0.603843,0.796157,$1*%
%AMFreePoly3*
4,1,37,0.000000,0.796148,0.078414,0.796148,0.232228,0.765552,0.377117,0.705537,0.507515,0.618408,0.618408,0.507515,0.705537,0.377117,0.765552,0.232228,0.796148,0.078414,0.796148,-0.078414,0.765552,-0.232228,0.705537,-0.377117,0.618408,-0.507515,0.507515,-0.618408,0.377117,-0.705537,0.232228,-0.765552,0.078414,-0.796148,0.000000,-0.796148,0.000000,-0.800000,-0.600000,-0.800000,
-0.603843,-0.796157,-0.639018,-0.796157,-0.711114,-0.766294,-0.766294,-0.711114,-0.796157,-0.639018,-0.796157,-0.603843,-0.800000,-0.600000,-0.800000,0.600000,-0.796157,0.603843,-0.796157,0.639018,-0.766294,0.711114,-0.711114,0.766294,-0.639018,0.796157,-0.603843,0.796157,-0.600000,0.800000,0.000000,0.800000,0.000000,0.796148,0.000000,0.796148,$1*%
G04 Aperture macros list end*
%ADD10C,3.200000*%
%ADD11RoundRect,0.200000X-0.200000X-0.275000X0.200000X-0.275000X0.200000X0.275000X-0.200000X0.275000X0*%
%ADD12RoundRect,0.225000X-0.225000X-0.250000X0.225000X-0.250000X0.225000X0.250000X-0.225000X0.250000X0*%
%ADD13C,2.200000*%
%ADD14C,1.850000*%
%ADD15FreePoly0,0.000000*%
%ADD16RoundRect,0.200000X-0.600000X-0.600000X0.600000X-0.600000X0.600000X0.600000X-0.600000X0.600000X0*%
%ADD17RoundRect,0.800000X-0.800000X-0.000010X0.800000X-0.000010X0.800000X0.000010X-0.800000X0.000010X0*%
%ADD18C,1.600000*%
%ADD19FreePoly1,0.000000*%
%ADD20FreePoly2,0.000000*%
%ADD21FreePoly3,0.000000*%
%ADD22RoundRect,0.250000X0.250000X0.475000X-0.250000X0.475000X-0.250000X-0.475000X0.250000X-0.475000X0*%
%ADD23R,1.500000X1.050000*%
%ADD24O,1.500000X1.050000*%
%ADD25RoundRect,0.200000X0.200000X0.275000X-0.200000X0.275000X-0.200000X-0.275000X0.200000X-0.275000X0*%
%ADD26RoundRect,0.059250X-0.412750X-0.177750X0.412750X-0.177750X0.412750X0.177750X-0.412750X0.177750X0*%
%ADD27RoundRect,0.102000X-0.325000X-0.675000X0.325000X-0.675000X0.325000X0.675000X-0.325000X0.675000X0*%
%ADD28RoundRect,0.225000X-0.250000X0.225000X-0.250000X-0.225000X0.250000X-0.225000X0.250000X0.225000X0*%
%ADD29R,1.700000X1.700000*%
%ADD30C,1.700000*%
%ADD31RoundRect,0.100000X-0.100000X0.200000X-0.100000X-0.200000X0.100000X-0.200000X0.100000X0.200000X0*%
%ADD32R,2.400000X1.500000*%
%ADD33RoundRect,0.225000X0.225000X0.250000X-0.225000X0.250000X-0.225000X-0.250000X0.225000X-0.250000X0*%
%ADD34RoundRect,0.225000X0.250000X-0.225000X0.250000X0.225000X-0.250000X0.225000X-0.250000X-0.225000X0*%
G04 APERTURE END LIST*
D10*
%TO.C,REF\u002A\u002A*%
X135000000Y-109000000D03*
%TD*%
%TO.C,REF\u002A\u002A*%
X181000000Y-117500000D03*
%TD*%
%TO.C,REF\u002A\u002A*%
X181000000Y-67000000D03*
%TD*%
%TO.C,REF\u002A\u002A*%
X134500000Y-67000000D03*
%TD*%
D11*
%TO.C,R1*%
X151100000Y-81750000D03*
X152750000Y-81750000D03*
%TD*%
D12*
%TO.C,C1*%
X143600000Y-68800000D03*
X145150000Y-68800000D03*
%TD*%
D13*
%TO.C,A1*%
X162385000Y-66650000D03*
D14*
X162685000Y-69680000D03*
X167535000Y-69680000D03*
D13*
X167835000Y-66650000D03*
D15*
X155420000Y-66520000D03*
D16*
X156220000Y-66520000D03*
D17*
X155420000Y-69060000D03*
D18*
X156220000Y-69060000D03*
D19*
X155420000Y-71600000D03*
D20*
X156220000Y-71600000D03*
D17*
X155420000Y-74140000D03*
D18*
X156220000Y-74140000D03*
D17*
X155420000Y-76680000D03*
D18*
X156220000Y-76680000D03*
D17*
X155420000Y-79220000D03*
D18*
X156220000Y-79220000D03*
D17*
X155420000Y-81760000D03*
D18*
X156220000Y-81760000D03*
D19*
X155420000Y-84300000D03*
D20*
X156220000Y-84300000D03*
D17*
X155420000Y-86840000D03*
D18*
X156220000Y-86840000D03*
D17*
X155420000Y-89380000D03*
D18*
X156220000Y-89380000D03*
D17*
X155420000Y-91920000D03*
D18*
X156220000Y-91920000D03*
D17*
X155420000Y-94460000D03*
D18*
X156220000Y-94460000D03*
D19*
X155420000Y-97000000D03*
D20*
X156220000Y-97000000D03*
D17*
X155420000Y-99540000D03*
D18*
X156220000Y-99540000D03*
D17*
X155420000Y-102080000D03*
D18*
X156220000Y-102080000D03*
D17*
X155420000Y-104620000D03*
D18*
X156220000Y-104620000D03*
D17*
X155420000Y-107160000D03*
D18*
X156220000Y-107160000D03*
D19*
X155420000Y-109700000D03*
D20*
X156220000Y-109700000D03*
D17*
X155420000Y-112240000D03*
D18*
X156220000Y-112240000D03*
D17*
X155420000Y-114780000D03*
D18*
X156220000Y-114780000D03*
X174000000Y-114780000D03*
D17*
X174800000Y-114780000D03*
D18*
X174000000Y-112240000D03*
D17*
X174800000Y-112240000D03*
D21*
X174000000Y-109700000D03*
D15*
X174800000Y-109700000D03*
D18*
X174000000Y-107160000D03*
D17*
X174800000Y-107160000D03*
D18*
X174000000Y-104620000D03*
D17*
X174800000Y-104620000D03*
D18*
X174000000Y-102080000D03*
D17*
X174800000Y-102080000D03*
D18*
X174000000Y-99540000D03*
D17*
X174800000Y-99540000D03*
D21*
X174000000Y-97000000D03*
D15*
X174800000Y-97000000D03*
D18*
X174000000Y-94460000D03*
D17*
X174800000Y-94460000D03*
D18*
X174000000Y-91920000D03*
D17*
X174800000Y-91920000D03*
D18*
X174000000Y-89380000D03*
D17*
X174800000Y-89380000D03*
D18*
X174000000Y-86840000D03*
D17*
X174800000Y-86840000D03*
D21*
X174000000Y-84300000D03*
D15*
X174800000Y-84300000D03*
D18*
X174000000Y-81760000D03*
D17*
X174800000Y-81760000D03*
D18*
X174000000Y-79220000D03*
D17*
X174800000Y-79220000D03*
D18*
X174000000Y-76680000D03*
D17*
X174800000Y-76680000D03*
D18*
X174000000Y-74140000D03*
D17*
X174800000Y-74140000D03*
D21*
X174000000Y-71600000D03*
D15*
X174800000Y-71600000D03*
D18*
X174000000Y-69060000D03*
D17*
X174800000Y-69060000D03*
D18*
X174000000Y-66520000D03*
D17*
X174800000Y-66520000D03*
%TD*%
D11*
%TO.C,R2*%
X151100000Y-79250000D03*
X152750000Y-79250000D03*
%TD*%
D22*
%TO.C,C5*%
X145150000Y-70600000D03*
X143250000Y-70600000D03*
%TD*%
D23*
%TO.C,U1*%
X148000000Y-67600000D03*
D24*
X148000000Y-68870000D03*
X148000000Y-70140000D03*
%TD*%
D25*
%TO.C,R3*%
X179050000Y-92000000D03*
X177400000Y-92000000D03*
%TD*%
D26*
%TO.C,U3*%
X141005000Y-80145000D03*
X141005000Y-80795000D03*
X141005000Y-81445000D03*
X142995000Y-81445000D03*
X142995000Y-80795000D03*
X142995000Y-80145000D03*
D27*
X142000000Y-80795000D03*
%TD*%
D28*
%TO.C,C3*%
X137000000Y-79250000D03*
X137000000Y-80800000D03*
%TD*%
D29*
%TO.C,J1*%
X150100000Y-95210000D03*
D30*
X150100000Y-97750000D03*
X150100000Y-100290000D03*
X150100000Y-102830000D03*
%TD*%
D31*
%TO.C,U2*%
X138100000Y-113600000D03*
X137150000Y-113600000D03*
X136200000Y-113600000D03*
X136200000Y-116400000D03*
X137150000Y-116400000D03*
X138100000Y-116400000D03*
D32*
X137150000Y-115000000D03*
%TD*%
D33*
%TO.C,C2*%
X137575000Y-117800000D03*
X136025000Y-117800000D03*
%TD*%
D34*
%TO.C,C4*%
X147600000Y-97750000D03*
X147600000Y-96200000D03*
%TD*%
M02*
