%TF.GenerationSoftware,KiCad,Pcbnew,10.0.3*%
%TF.CreationDate,2026-06-09T20:37:01-04:00*%
%TF.ProjectId,I2C_PP,4932435f-5050-42e6-9b69-6361645f7063,rev?*%
%TF.SameCoordinates,Original*%
%TF.FileFunction,Copper,L1,Top*%
%TF.FilePolarity,Positive*%
%FSLAX46Y46*%
G04 Gerber Fmt 4.6, Leading zero omitted, Abs format (unit mm)*
G04 Created by KiCad (PCBNEW 10.0.3) date 2026-06-09 20:37:01*
%MOMM*%
%LPD*%
G01*
G04 APERTURE LIST*
G04 Aperture macros list*
%AMRoundRect*
0 Rectangle with rounded corners*
0 $1 Rounding radius*
0 $2 $3 $4 $5 $6 $7 $8 $9 X,Y pos of 4 corners*
0 Add a 4 corners polygon primitive as box body*
4,1,4,$2,$3,$4,$5,$6,$7,$8,$9,$2,$3,0*
0 Add four circle primitives for the rounded corners*
1,1,$1+$1,$2,$3*
1,1,$1+$1,$4,$5*
1,1,$1+$1,$6,$7*
1,1,$1+$1,$8,$9*
0 Add four rect primitives between the rounded corners*
20,1,$1+$1,$2,$3,$4,$5,0*
20,1,$1+$1,$4,$5,$6,$7,0*
20,1,$1+$1,$6,$7,$8,$9,0*
20,1,$1+$1,$8,$9,$2,$3,0*%
%AMFreePoly0*
4,1,37,0.800000,0.796148,0.878414,0.796148,1.032228,0.765552,1.177117,0.705537,1.307515,0.618408,1.418408,0.507515,1.505537,0.377117,1.565552,0.232228,1.596148,0.078414,1.596148,-0.078414,1.565552,-0.232228,1.505537,-0.377117,1.418408,-0.507515,1.307515,-0.618408,1.177117,-0.705537,1.032228,-0.765552,0.878414,-0.796148,0.800000,-0.796148,0.800000,-0.800000,-1.400000,-0.800000,
-1.403843,-0.796157,-1.439018,-0.796157,-1.511114,-0.766294,-1.566294,-0.711114,-1.596157,-0.639018,-1.596157,-0.603843,-1.600000,-0.600000,-1.600000,0.600000,-1.596157,0.603843,-1.596157,0.639018,-1.566294,0.711114,-1.511114,0.766294,-1.439018,0.796157,-1.403843,0.796157,-1.400000,0.800000,0.800000,0.800000,0.800000,0.796148,0.800000,0.796148,$1*%
%AMFreePoly1*
4,1,37,1.403843,0.796157,1.439018,0.796157,1.511114,0.766294,1.566294,0.711114,1.596157,0.639018,1.596157,0.603843,1.600000,0.600000,1.600000,-0.600000,1.596157,-0.603843,1.596157,-0.639018,1.566294,-0.711114,1.511114,-0.766294,1.439018,-0.796157,1.403843,-0.796157,1.400000,-0.800000,-0.800000,-0.800000,-0.800000,-0.796148,-0.878414,-0.796148,-1.032228,-0.765552,-1.177117,-0.705537,
-1.307515,-0.618408,-1.418408,-0.507515,-1.505537,-0.377117,-1.565552,-0.232228,-1.596148,-0.078414,-1.596148,0.078414,-1.565552,0.232228,-1.505537,0.377117,-1.418408,0.507515,-1.307515,0.618408,-1.177117,0.705537,-1.032228,0.765552,-0.878414,0.796148,-0.800000,0.796148,-0.800000,0.800000,1.400000,0.800000,1.403843,0.796157,1.403843,0.796157,$1*%
%AMFreePoly2*
4,1,37,0.603843,0.796157,0.639018,0.796157,0.711114,0.766294,0.766294,0.711114,0.796157,0.639018,0.796157,0.603843,0.800000,0.600000,0.800000,-0.600000,0.796157,-0.603843,0.796157,-0.639018,0.766294,-0.711114,0.711114,-0.766294,0.639018,-0.796157,0.603843,-0.796157,0.600000,-0.800000,0.000000,-0.800000,0.000000,-0.796148,-0.078414,-0.796148,-0.232228,-0.765552,-0.377117,-0.705537,
-0.507515,-0.618408,-0.618408,-0.507515,-0.705537,-0.377117,-0.765552,-0.232228,-0.796148,-0.078414,-0.796148,0.078414,-0.765552,0.232228,-0.705537,0.377117,-0.618408,0.507515,-0.507515,0.618408,-0.377117,0.705537,-0.232228,0.765552,-0.078414,0.796148,0.000000,0.796148,0.000000,0.800000,0.600000,0.800000,0.603843,0.796157,0.603843,0.796157,$1*%
%AMFreePoly3*
4,1,37,0.000000,0.796148,0.078414,0.796148,0.232228,0.765552,0.377117,0.705537,0.507515,0.618408,0.618408,0.507515,0.705537,0.377117,0.765552,0.232228,0.796148,0.078414,0.796148,-0.078414,0.765552,-0.232228,0.705537,-0.377117,0.618408,-0.507515,0.507515,-0.618408,0.377117,-0.705537,0.232228,-0.765552,0.078414,-0.796148,0.000000,-0.796148,0.000000,-0.800000,-0.600000,-0.800000,
-0.603843,-0.796157,-0.639018,-0.796157,-0.711114,-0.766294,-0.766294,-0.711114,-0.796157,-0.639018,-0.796157,-0.603843,-0.800000,-0.600000,-0.800000,0.600000,-0.796157,0.603843,-0.796157,0.639018,-0.766294,0.711114,-0.711114,0.766294,-0.639018,0.796157,-0.603843,0.796157,-0.600000,0.800000,0.000000,0.800000,0.000000,0.796148,0.000000,0.796148,$1*%
G04 Aperture macros list end*
%TA.AperFunction,SMDPad,CuDef*%
%ADD10RoundRect,0.200000X-0.200000X-0.275000X0.200000X-0.275000X0.200000X0.275000X-0.200000X0.275000X0*%
%TD*%
%TA.AperFunction,SMDPad,CuDef*%
%ADD11RoundRect,0.225000X-0.225000X-0.250000X0.225000X-0.250000X0.225000X0.250000X-0.225000X0.250000X0*%
%TD*%
%TA.AperFunction,SMDPad,CuDef*%
%ADD12FreePoly0,0.000000*%
%TD*%
%TA.AperFunction,ComponentPad*%
%ADD13RoundRect,0.200000X-0.600000X-0.600000X0.600000X-0.600000X0.600000X0.600000X-0.600000X0.600000X0*%
%TD*%
%TA.AperFunction,SMDPad,CuDef*%
%ADD14RoundRect,0.800000X-0.800000X-0.000010X0.800000X-0.000010X0.800000X0.000010X-0.800000X0.000010X0*%
%TD*%
%TA.AperFunction,ComponentPad*%
%ADD15C,1.600000*%
%TD*%
%TA.AperFunction,SMDPad,CuDef*%
%ADD16FreePoly1,0.000000*%
%TD*%
%TA.AperFunction,ComponentPad*%
%ADD17FreePoly2,0.000000*%
%TD*%
%TA.AperFunction,ComponentPad*%
%ADD18FreePoly3,0.000000*%
%TD*%
%TA.AperFunction,SMDPad,CuDef*%
%ADD19RoundRect,0.250000X0.250000X0.475000X-0.250000X0.475000X-0.250000X-0.475000X0.250000X-0.475000X0*%
%TD*%
%TA.AperFunction,ComponentPad*%
%ADD20R,1.500000X1.050000*%
%TD*%
%TA.AperFunction,ComponentPad*%
%ADD21O,1.500000X1.050000*%
%TD*%
%TA.AperFunction,SMDPad,CuDef*%
%ADD22RoundRect,0.200000X0.200000X0.275000X-0.200000X0.275000X-0.200000X-0.275000X0.200000X-0.275000X0*%
%TD*%
%TA.AperFunction,SMDPad,CuDef*%
%ADD23RoundRect,0.033750X-0.336250X-0.101250X0.336250X-0.101250X0.336250X0.101250X-0.336250X0.101250X0*%
%TD*%
%TA.AperFunction,SMDPad,CuDef*%
%ADD24R,0.650000X1.350000*%
%TD*%
%TA.AperFunction,SMDPad,CuDef*%
%ADD25RoundRect,0.225000X-0.250000X0.225000X-0.250000X-0.225000X0.250000X-0.225000X0.250000X0.225000X0*%
%TD*%
%TA.AperFunction,ComponentPad*%
%ADD26R,1.700000X1.700000*%
%TD*%
%TA.AperFunction,ComponentPad*%
%ADD27C,1.700000*%
%TD*%
%TA.AperFunction,SMDPad,CuDef*%
%ADD28RoundRect,0.100000X-0.100000X0.200000X-0.100000X-0.200000X0.100000X-0.200000X0.100000X0.200000X0*%
%TD*%
%TA.AperFunction,SMDPad,CuDef*%
%ADD29R,2.400000X1.500000*%
%TD*%
%TA.AperFunction,SMDPad,CuDef*%
%ADD30RoundRect,0.225000X0.225000X0.250000X-0.225000X0.250000X-0.225000X-0.250000X0.225000X-0.250000X0*%
%TD*%
%TA.AperFunction,SMDPad,CuDef*%
%ADD31RoundRect,0.225000X0.250000X-0.225000X0.250000X0.225000X-0.250000X0.225000X-0.250000X-0.225000X0*%
%TD*%
%TA.AperFunction,ViaPad*%
%ADD32C,0.600000*%
%TD*%
%TA.AperFunction,Conductor*%
%ADD33C,0.250000*%
%TD*%
G04 APERTURE END LIST*
D10*
%TO.P,R1,1*%
%TO.N,+3V3*%
X151100000Y-81750000D03*
%TO.P,R1,2*%
%TO.N,/SCL*%
X152750000Y-81750000D03*
%TD*%
D11*
%TO.P,C1,1*%
%TO.N,GND*%
X143600000Y-68800000D03*
%TO.P,C1,2*%
%TO.N,+5V*%
X145150000Y-68800000D03*
%TD*%
D12*
%TO.P,A1,1,GPIO0_1*%
%TO.N,unconnected-(A1-GPIO0-Pad1)*%
X155420000Y-66520000D03*
D13*
%TO.N,unconnected-(A1-GPIO0-Pad1)_1*%
X156220000Y-66520000D03*
D14*
%TO.P,A1,2,GPIO1_2*%
%TO.N,unconnected-(A1-GPIO1-Pad2)*%
X155420000Y-69060000D03*
D15*
%TO.N,unconnected-(A1-GPIO1-Pad2)_1*%
X156220000Y-69060000D03*
D16*
%TO.P,A1,3,GND_3*%
%TO.N,GND*%
X155420000Y-71600000D03*
D17*
X156220000Y-71600000D03*
D14*
%TO.P,A1,4,GPIO2_4*%
%TO.N,unconnected-(A1-GPIO2-Pad4)_1*%
X155420000Y-74140000D03*
D15*
%TO.N,unconnected-(A1-GPIO2-Pad4)*%
X156220000Y-74140000D03*
D14*
%TO.P,A1,5,GPIO3_5*%
%TO.N,unconnected-(A1-GPIO3-Pad5)_1*%
X155420000Y-76680000D03*
D15*
%TO.N,unconnected-(A1-GPIO3-Pad5)*%
X156220000Y-76680000D03*
D14*
%TO.P,A1,6,GPIO4_6*%
%TO.N,/SDA*%
X155420000Y-79220000D03*
D15*
X156220000Y-79220000D03*
D14*
%TO.P,A1,7,GPIO5_7*%
%TO.N,/SCL*%
X155420000Y-81760000D03*
D15*
X156220000Y-81760000D03*
D16*
%TO.P,A1,8,GND_8*%
%TO.N,GND*%
X155420000Y-84300000D03*
D17*
X156220000Y-84300000D03*
D14*
%TO.P,A1,9,GPIO6_9*%
%TO.N,unconnected-(A1-GPIO6-Pad9)_1*%
X155420000Y-86840000D03*
D15*
%TO.N,unconnected-(A1-GPIO6-Pad9)*%
X156220000Y-86840000D03*
D14*
%TO.P,A1,10,GPIO7_10*%
%TO.N,unconnected-(A1-GPIO7-Pad10)_1*%
X155420000Y-89380000D03*
D15*
%TO.N,unconnected-(A1-GPIO7-Pad10)*%
X156220000Y-89380000D03*
D14*
%TO.P,A1,11,GPIO8_11*%
%TO.N,unconnected-(A1-GPIO8-Pad11)_1*%
X155420000Y-91920000D03*
D15*
%TO.N,unconnected-(A1-GPIO8-Pad11)*%
X156220000Y-91920000D03*
D14*
%TO.P,A1,12,GPIO9_12*%
%TO.N,unconnected-(A1-GPIO9-Pad12)*%
X155420000Y-94460000D03*
D15*
%TO.N,unconnected-(A1-GPIO9-Pad12)_1*%
X156220000Y-94460000D03*
D16*
%TO.P,A1,13,GND_13*%
%TO.N,GND*%
X155420000Y-97000000D03*
D17*
X156220000Y-97000000D03*
D14*
%TO.P,A1,14,GPIO10_14*%
%TO.N,unconnected-(A1-GPIO10-Pad14)*%
X155420000Y-99540000D03*
D15*
%TO.N,unconnected-(A1-GPIO10-Pad14)_1*%
X156220000Y-99540000D03*
D14*
%TO.P,A1,15,GPIO11_15*%
%TO.N,unconnected-(A1-GPIO11-Pad15)*%
X155420000Y-102080000D03*
D15*
%TO.N,unconnected-(A1-GPIO11-Pad15)_1*%
X156220000Y-102080000D03*
D14*
%TO.P,A1,16,GPIO12_16*%
%TO.N,unconnected-(A1-GPIO12-Pad16)*%
X155420000Y-104620000D03*
D15*
%TO.N,unconnected-(A1-GPIO12-Pad16)_1*%
X156220000Y-104620000D03*
D14*
%TO.P,A1,17,GPIO13_17*%
%TO.N,unconnected-(A1-GPIO13-Pad17)_1*%
X155420000Y-107160000D03*
D15*
%TO.N,unconnected-(A1-GPIO13-Pad17)*%
X156220000Y-107160000D03*
D16*
%TO.P,A1,18,GND_18*%
%TO.N,GND*%
X155420000Y-109700000D03*
D17*
X156220000Y-109700000D03*
D14*
%TO.P,A1,19,GPIO14_19*%
%TO.N,unconnected-(A1-GPIO14-Pad19)_1*%
X155420000Y-112240000D03*
D15*
%TO.N,unconnected-(A1-GPIO14-Pad19)*%
X156220000Y-112240000D03*
D14*
%TO.P,A1,20,GPIO15_20*%
%TO.N,unconnected-(A1-GPIO15-Pad20)*%
X155420000Y-114780000D03*
D15*
%TO.N,unconnected-(A1-GPIO15-Pad20)_1*%
X156220000Y-114780000D03*
%TO.P,A1,21,GPIO16_21*%
%TO.N,unconnected-(A1-GPIO16-Pad21)_1*%
X174000000Y-114780000D03*
D14*
%TO.N,unconnected-(A1-GPIO16-Pad21)*%
X174800000Y-114780000D03*
D15*
%TO.P,A1,22,GPIO17_22*%
%TO.N,unconnected-(A1-GPIO17-Pad22)*%
X174000000Y-112240000D03*
D14*
%TO.N,unconnected-(A1-GPIO17-Pad22)_1*%
X174800000Y-112240000D03*
D18*
%TO.P,A1,23,GND_23*%
%TO.N,GND*%
X174000000Y-109700000D03*
D12*
X174800000Y-109700000D03*
D15*
%TO.P,A1,24,GPIO18_24*%
%TO.N,unconnected-(A1-GPIO18-Pad24)*%
X174000000Y-107160000D03*
D14*
%TO.N,unconnected-(A1-GPIO18-Pad24)_1*%
X174800000Y-107160000D03*
D15*
%TO.P,A1,25,GPIO19_25*%
%TO.N,unconnected-(A1-GPIO19-Pad25)*%
X174000000Y-104620000D03*
D14*
%TO.N,unconnected-(A1-GPIO19-Pad25)_1*%
X174800000Y-104620000D03*
D15*
%TO.P,A1,26,GPIO20_26*%
%TO.N,unconnected-(A1-GPIO20-Pad26)*%
X174000000Y-102080000D03*
D14*
%TO.N,unconnected-(A1-GPIO20-Pad26)_1*%
X174800000Y-102080000D03*
D15*
%TO.P,A1,27,GPIO21_27*%
%TO.N,unconnected-(A1-GPIO21-Pad27)*%
X174000000Y-99540000D03*
D14*
%TO.N,unconnected-(A1-GPIO21-Pad27)_1*%
X174800000Y-99540000D03*
D18*
%TO.P,A1,28,GND_28*%
%TO.N,GND*%
X174000000Y-97000000D03*
D12*
X174800000Y-97000000D03*
D15*
%TO.P,A1,29,GPIO22_29*%
%TO.N,unconnected-(A1-GPIO22-Pad29)*%
X174000000Y-94460000D03*
D14*
%TO.N,unconnected-(A1-GPIO22-Pad29)_1*%
X174800000Y-94460000D03*
D15*
%TO.P,A1,30,RUN_30*%
%TO.N,Net-(A1-RUN)*%
X174000000Y-91920000D03*
D14*
X174800000Y-91920000D03*
D15*
%TO.P,A1,31,GPIO26_ADC0_31*%
%TO.N,unconnected-(A1-GPIO26_ADC0-Pad31)_1*%
X174000000Y-89380000D03*
D14*
%TO.N,unconnected-(A1-GPIO26_ADC0-Pad31)*%
X174800000Y-89380000D03*
D15*
%TO.P,A1,32,GPIO27_ADC1_32*%
%TO.N,unconnected-(A1-GPIO27_ADC1-Pad32)*%
X174000000Y-86840000D03*
D14*
%TO.N,unconnected-(A1-GPIO27_ADC1-Pad32)_1*%
X174800000Y-86840000D03*
D18*
%TO.P,A1,33,AGND_33*%
%TO.N,unconnected-(A1-AGND-Pad33)*%
X174000000Y-84300000D03*
D12*
%TO.N,unconnected-(A1-AGND-Pad33)_1*%
X174800000Y-84300000D03*
D15*
%TO.P,A1,34,GPIO28_ADC2_34*%
%TO.N,unconnected-(A1-GPIO28_ADC2-Pad34)_1*%
X174000000Y-81760000D03*
D14*
%TO.N,unconnected-(A1-GPIO28_ADC2-Pad34)*%
X174800000Y-81760000D03*
D15*
%TO.P,A1,35,ADC_VREF_35*%
%TO.N,unconnected-(A1-ADC_VREF-Pad35)_1*%
X174000000Y-79220000D03*
D14*
%TO.N,unconnected-(A1-ADC_VREF-Pad35)*%
X174800000Y-79220000D03*
D15*
%TO.P,A1,36,3V3_36*%
%TO.N,unconnected-(A1-3V3-Pad36)*%
X174000000Y-76680000D03*
D14*
%TO.N,unconnected-(A1-3V3-Pad36)_1*%
X174800000Y-76680000D03*
D15*
%TO.P,A1,37,3V3_EN_37*%
%TO.N,unconnected-(A1-3V3_EN-Pad37)*%
X174000000Y-74140000D03*
D14*
%TO.N,unconnected-(A1-3V3_EN-Pad37)_1*%
X174800000Y-74140000D03*
D18*
%TO.P,A1,38,GND_38*%
%TO.N,GND*%
X174000000Y-71600000D03*
D12*
X174800000Y-71600000D03*
D15*
%TO.P,A1,39,VSYS_39*%
%TO.N,unconnected-(A1-VSYS-Pad39)_1*%
X174000000Y-69060000D03*
D14*
%TO.N,unconnected-(A1-VSYS-Pad39)*%
X174800000Y-69060000D03*
D15*
%TO.P,A1,40,VBUS_40*%
%TO.N,+5V*%
X174000000Y-66520000D03*
D14*
X174800000Y-66520000D03*
%TD*%
D10*
%TO.P,R2,1*%
%TO.N,+3V3*%
X151100000Y-79250000D03*
%TO.P,R2,2*%
%TO.N,/SDA*%
X152750000Y-79250000D03*
%TD*%
D19*
%TO.P,C5,1*%
%TO.N,+3V3*%
X145150000Y-70600000D03*
%TO.P,C5,2*%
%TO.N,GND*%
X143250000Y-70600000D03*
%TD*%
D20*
%TO.P,U1,1,GND_1*%
%TO.N,GND*%
X148000000Y-67600000D03*
D21*
%TO.P,U1,2,VI_2*%
%TO.N,+5V*%
X148000000Y-68870000D03*
%TO.P,U1,3,VO_3*%
%TO.N,+3V3*%
X148000000Y-70140000D03*
%TD*%
D22*
%TO.P,R3,1*%
%TO.N,+3V3*%
X179050000Y-92000000D03*
%TO.P,R3,2*%
%TO.N,Net-(A1-RUN)*%
X177400000Y-92000000D03*
%TD*%
D23*
%TO.P,U3,1,VDD_1*%
%TO.N,+3V3*%
X141005000Y-80145000D03*
%TO.P,U3,2,ADDR_2*%
%TO.N,GND*%
X141005000Y-80795000D03*
%TO.P,U3,3,GND_3*%
X141005000Y-81445000D03*
%TO.P,U3,4,SCL_4*%
%TO.N,/SCL*%
X142995000Y-81445000D03*
%TO.P,U3,5,INT_5*%
%TO.N,unconnected-(U3-INT-Pad5)*%
X142995000Y-80795000D03*
%TO.P,U3,6,SDA_6*%
%TO.N,/SDA*%
X142995000Y-80145000D03*
D24*
%TO.P,U3,7,EXP_7*%
%TO.N,unconnected-(U3-EXP-Pad7)*%
X142000000Y-80795000D03*
%TD*%
D25*
%TO.P,C3,1*%
%TO.N,+3V3*%
X137000000Y-79250000D03*
%TO.P,C3,2*%
%TO.N,GND*%
X137000000Y-80800000D03*
%TD*%
D26*
%TO.P,J1,1,Pin_1_1*%
%TO.N,GND*%
X150100000Y-95210000D03*
D27*
%TO.P,J1,2,Pin_2_2*%
%TO.N,+3V3*%
X150100000Y-97750000D03*
%TO.P,J1,3,Pin_3_3*%
%TO.N,/SDA*%
X150100000Y-100290000D03*
%TO.P,J1,4,Pin_4_4*%
%TO.N,/SCL*%
X150100000Y-102830000D03*
%TD*%
D28*
%TO.P,U2,1,SDA_1*%
%TO.N,/SDA*%
X138100000Y-113600000D03*
%TO.P,U2,2,GND_2*%
%TO.N,GND*%
X137150000Y-113600000D03*
%TO.P,U2,3,NC_3*%
%TO.N,unconnected-(U2-NC-Pad3)*%
X136200000Y-113600000D03*
%TO.P,U2,4,NC_4*%
%TO.N,unconnected-(U2-NC-Pad4)*%
X136200000Y-116400000D03*
%TO.P,U2,5,VCC_5*%
%TO.N,+3V3*%
X137150000Y-116400000D03*
%TO.P,U2,6,SCL_6*%
%TO.N,/SCL*%
X138100000Y-116400000D03*
D29*
%TO.P,U2,7,DAP_7*%
%TO.N,unconnected-(U2-DAP-Pad7)*%
X137150000Y-115000000D03*
%TD*%
D30*
%TO.P,C2,1*%
%TO.N,+3V3*%
X137575000Y-117800000D03*
%TO.P,C2,2*%
%TO.N,GND*%
X136025000Y-117800000D03*
%TD*%
D31*
%TO.P,C4,1*%
%TO.N,+3V3*%
X147600000Y-97750000D03*
%TO.P,C4,2*%
%TO.N,GND*%
X147600000Y-96200000D03*
%TD*%
D32*
%TO.N,GND*%
X136000000Y-119000000D03*
X139250000Y-80750000D03*
X137250000Y-111500000D03*
%TO.N,/SCL*%
X140000000Y-114750000D03*
X144750000Y-81500000D03*
%TO.N,/SDA*%
X144750000Y-80250000D03*
X146750000Y-100500000D03*
%TD*%
%TO.N,GND*%
D33*
X136025000Y-118975000D02*
X136000000Y-119000000D01*
X136025000Y-117800000D02*
X136025000Y-118975000D01*
X143250000Y-69150000D02*
X143600000Y-68800000D01*
X143250000Y-70600000D02*
X143250000Y-69150000D01*
X144800000Y-67600000D02*
X148000000Y-67600000D01*
X143600000Y-68800000D02*
X144800000Y-67600000D01*
X149110000Y-96200000D02*
X150100000Y-95210000D01*
X147600000Y-96200000D02*
X149110000Y-96200000D01*
X139945000Y-81445000D02*
X139250000Y-80750000D01*
X141005000Y-81445000D02*
X139945000Y-81445000D01*
X139200000Y-80800000D02*
X139250000Y-80750000D01*
X137150000Y-111600000D02*
X137250000Y-111500000D01*
X141005000Y-80795000D02*
X139295000Y-80795000D01*
X137000000Y-80800000D02*
X139200000Y-80800000D01*
X137150000Y-113600000D02*
X137150000Y-111600000D01*
X139295000Y-80795000D02*
X139250000Y-80750000D01*
%TO.N,+5V*%
X147930000Y-68800000D02*
X148000000Y-68870000D01*
X145150000Y-68800000D02*
X147930000Y-68800000D01*
%TO.N,/SCL*%
X155410000Y-81750000D02*
X155420000Y-81760000D01*
X143050000Y-81500000D02*
X142995000Y-81445000D01*
X138100000Y-116400000D02*
X138350000Y-116400000D01*
X152750000Y-81750000D02*
X155410000Y-81750000D01*
X144750000Y-81500000D02*
X143050000Y-81500000D01*
X138350000Y-116400000D02*
X140000000Y-114750000D01*
%TO.N,/SDA*%
X143100000Y-80250000D02*
X142995000Y-80145000D01*
X138100000Y-113600000D02*
X138100000Y-109150000D01*
X153030000Y-79220000D02*
X155420000Y-79220000D01*
X144750000Y-80250000D02*
X143100000Y-80250000D01*
X138100000Y-109150000D02*
X146750000Y-100500000D01*
X152750000Y-79250000D02*
X153000000Y-79250000D01*
X153000000Y-79250000D02*
X153030000Y-79220000D01*
%TO.N,Net-(A1-RUN)*%
X177320000Y-91920000D02*
X177400000Y-92000000D01*
X174800000Y-91920000D02*
X177320000Y-91920000D01*
%TO.N,+3V3*%
X138025000Y-117800000D02*
X147600000Y-108225000D01*
X137000000Y-79250000D02*
X139200000Y-79250000D01*
X145150000Y-70600000D02*
X147540000Y-70600000D01*
X146800000Y-86050000D02*
X151100000Y-81750000D01*
X147600000Y-97750000D02*
X150100000Y-97750000D01*
X145150000Y-70600000D02*
X145150000Y-73300000D01*
X157380000Y-95870000D02*
X151980000Y-95870000D01*
X159915000Y-93335000D02*
X157380000Y-95870000D01*
X137575000Y-117800000D02*
X138025000Y-117800000D01*
X147540000Y-70600000D02*
X148000000Y-70140000D01*
X146800000Y-96950000D02*
X146800000Y-86050000D01*
X179050000Y-92000000D02*
X177715000Y-93335000D01*
X137575000Y-117800000D02*
X137575000Y-116825000D01*
X151980000Y-95870000D02*
X150100000Y-97750000D01*
X151100000Y-79250000D02*
X151100000Y-81750000D01*
X139200000Y-79250000D02*
X145150000Y-73300000D01*
X137575000Y-116825000D02*
X137150000Y-116400000D01*
X147600000Y-97750000D02*
X146800000Y-96950000D01*
X141005000Y-80145000D02*
X140095000Y-80145000D01*
X147600000Y-108225000D02*
X147600000Y-97750000D01*
X177715000Y-93335000D02*
X159915000Y-93335000D01*
X145150000Y-73300000D02*
X151100000Y-79250000D01*
X140095000Y-80145000D02*
X139200000Y-79250000D01*
%TD*%
M02*
