M48
; DRILL file KiCad 10.0.3 date 2026-06-09T20:37:32
; FORMAT={-:-/ absolute / metric / decimal}
; #@! TF.CreationDate,2026-06-09T20:37:32-04:00
; #@! TF.GenerationSoftware,Kicad,Pcbnew,10.0.3
; #@! TF.FileFunction,Plated,1,2,PTH
FMAT,2
METRIC
; #@! TA.AperFunction,Plated,PTH,ViaDrill
T1C0.300
; #@! TA.AperFunction,Plated,PTH,ComponentDrill
T2C0.750
; #@! TA.AperFunction,Plated,PTH,ComponentDrill
T3C1.000
%
G90
G05
T1
X136.0Y-119.0
X137.25Y-111.5
X139.25Y-80.75
X140.0Y-114.75
X144.75Y-80.25
X144.75Y-81.5
X146.75Y-100.5
T2
X148.0Y-67.6
X148.0Y-68.87
X148.0Y-70.14
T3
X150.1Y-95.21
X150.1Y-97.75
X150.1Y-100.29
X150.1Y-102.83
X156.22Y-66.52
X156.22Y-69.06
X156.22Y-71.6
X156.22Y-74.14
X156.22Y-76.68
X156.22Y-79.22
X156.22Y-81.76
X156.22Y-84.3
X156.22Y-86.84
X156.22Y-89.38
X156.22Y-91.92
X156.22Y-94.46
X156.22Y-97.0
X156.22Y-99.54
X156.22Y-102.08
X156.22Y-104.62
X156.22Y-107.16
X156.22Y-109.7
X156.22Y-112.24
X156.22Y-114.78
X174.0Y-66.52
X174.0Y-69.06
X174.0Y-71.6
X174.0Y-74.14
X174.0Y-76.68
X174.0Y-79.22
X174.0Y-81.76
X174.0Y-84.3
X174.0Y-86.84
X174.0Y-89.38
X174.0Y-91.92
X174.0Y-94.46
X174.0Y-97.0
X174.0Y-99.54
X174.0Y-102.08
X174.0Y-104.62
X174.0Y-107.16
X174.0Y-109.7
X174.0Y-112.24
X174.0Y-114.78
M30
