%TF.GenerationSoftware,KiCad,Pcbnew,10.0.3*%
%TF.CreationDate,2026-06-09T20:37:01-04:00*%
%TF.ProjectId,I2C_PP,4932435f-5050-42e6-9b69-6361645f7063,rev?*%
%TF.SameCoordinates,Original*%
%TF.FileFunction,Paste,Top*%
%TF.FilePolarity,Positive*%
%FSLAX46Y46*%
G04 Gerber Fmt 4.6, Leading zero omitted, Abs format (unit mm)*
G04 Created by KiCad (PCBNEW 10.0.3) date 2026-06-09 20:37:01*
%MOMM*%
%LPD*%
G01*
G04 APERTURE LIST*
G04 Aperture macros list*
%AMRoundRect*
0 Rectangle with rounded corners*
0 $1 Rounding radius*
0 $2 $3 $4 $5 $6 $7 $8 $9 X,Y pos of 4 corners*
0 Add a 4 corners polygon primitive as box body*
4,1,4,$2,$3,$4,$5,$6,$7,$8,$9,$2,$3,0*
0 Add four circle primitives for the rounded corners*
1,1,$1+$1,$2,$3*
1,1,$1+$1,$4,$5*
1,1,$1+$1,$6,$7*
1,1,$1+$1,$8,$9*
0 Add four rect primitives between the rounded corners*
20,1,$1+$1,$2,$3,$4,$5,0*
20,1,$1+$1,$4,$5,$6,$7,0*
20,1,$1+$1,$6,$7,$8,$9,0*
20,1,$1+$1,$8,$9,$2,$3,0*%
G04 Aperture macros list end*
%ADD10C,0.010000*%
%ADD11RoundRect,0.200000X-0.200000X-0.275000X0.200000X-0.275000X0.200000X0.275000X-0.200000X0.275000X0*%
%ADD12RoundRect,0.225000X-0.225000X-0.250000X0.225000X-0.250000X0.225000X0.250000X-0.225000X0.250000X0*%
%ADD13RoundRect,0.250000X0.250000X0.475000X-0.250000X0.475000X-0.250000X-0.475000X0.250000X-0.475000X0*%
%ADD14RoundRect,0.200000X0.200000X0.275000X-0.200000X0.275000X-0.200000X-0.275000X0.200000X-0.275000X0*%
%ADD15RoundRect,0.033750X-0.336250X-0.101250X0.336250X-0.101250X0.336250X0.101250X-0.336250X0.101250X0*%
%ADD16RoundRect,0.225000X-0.250000X0.225000X-0.250000X-0.225000X0.250000X-0.225000X0.250000X0.225000X0*%
%ADD17RoundRect,0.150000X-0.350000X0.150000X-0.350000X-0.150000X0.350000X-0.150000X0.350000X0.150000X0*%
%ADD18RoundRect,0.100000X-0.100000X0.200000X-0.100000X-0.200000X0.100000X-0.200000X0.100000X0.200000X0*%
%ADD19RoundRect,0.225000X0.225000X0.250000X-0.225000X0.250000X-0.225000X-0.250000X0.225000X-0.250000X0*%
%ADD20RoundRect,0.225000X0.250000X-0.225000X0.250000X0.225000X-0.250000X0.225000X-0.250000X-0.225000X0*%
G04 APERTURE END LIST*
D10*
%TO.C,U3*%
X141790000Y-80365000D02*
X142210000Y-80365000D01*
X142210000Y-81225000D01*
X141790000Y-81225000D01*
X141790000Y-80365000D01*
G36*
X142210000Y-81225000D02*
G01*
X141790000Y-81225000D01*
X141790000Y-80365000D01*
X142210000Y-80365000D01*
X142210000Y-81225000D01*
G37*
%TD*%
D11*
%TO.C,R1*%
X151100000Y-81750000D03*
X152750000Y-81750000D03*
%TD*%
D12*
%TO.C,C1*%
X143600000Y-68800000D03*
X145150000Y-68800000D03*
%TD*%
D11*
%TO.C,R2*%
X151100000Y-79250000D03*
X152750000Y-79250000D03*
%TD*%
D13*
%TO.C,C5*%
X145150000Y-70600000D03*
X143250000Y-70600000D03*
%TD*%
D14*
%TO.C,R3*%
X179050000Y-92000000D03*
X177400000Y-92000000D03*
%TD*%
D15*
%TO.C,U3*%
X141005000Y-80145000D03*
X141005000Y-80795000D03*
X141005000Y-81445000D03*
X142995000Y-81445000D03*
X142995000Y-80795000D03*
X142995000Y-80145000D03*
%TD*%
D16*
%TO.C,C3*%
X137000000Y-79250000D03*
X137000000Y-80800000D03*
%TD*%
D17*
%TO.C,U2*%
X137800000Y-114600000D03*
X136500000Y-114600000D03*
X137800000Y-115400000D03*
X136500000Y-115400000D03*
D18*
X138100000Y-113600000D03*
X137150000Y-113600000D03*
X136200000Y-113600000D03*
X136200000Y-116400000D03*
X137150000Y-116400000D03*
X138100000Y-116400000D03*
%TD*%
D19*
%TO.C,C2*%
X137575000Y-117800000D03*
X136025000Y-117800000D03*
%TD*%
D20*
%TO.C,C4*%
X147600000Y-97750000D03*
X147600000Y-96200000D03*
%TD*%
M02*
