%TF.GenerationSoftware,KiCad,Pcbnew,10.0.3*%
%TF.CreationDate,2026-06-09T20:37:01-04:00*%
%TF.ProjectId,I2C_PP,4932435f-5050-42e6-9b69-6361645f7063,rev?*%
%TF.SameCoordinates,Original*%
%TF.FileFunction,Copper,L2,Bot*%
%TF.FilePolarity,Positive*%
%FSLAX46Y46*%
G04 Gerber Fmt 4.6, Leading zero omitted, Abs format (unit mm)*
G04 Created by KiCad (PCBNEW 10.0.3) date 2026-06-09 20:37:01*
%MOMM*%
%LPD*%
G01*
G04 APERTURE LIST*
G04 Aperture macros list*
%AMRoundRect*
0 Rectangle with rounded corners*
0 $1 Rounding radius*
0 $2 $3 $4 $5 $6 $7 $8 $9 X,Y pos of 4 corners*
0 Add a 4 corners polygon primitive as box body*
4,1,4,$2,$3,$4,$5,$6,$7,$8,$9,$2,$3,0*
0 Add four circle primitives for the rounded corners*
1,1,$1+$1,$2,$3*
1,1,$1+$1,$4,$5*
1,1,$1+$1,$6,$7*
1,1,$1+$1,$8,$9*
0 Add four rect primitives between the rounded corners*
20,1,$1+$1,$2,$3,$4,$5,0*
20,1,$1+$1,$4,$5,$6,$7,0*
20,1,$1+$1,$6,$7,$8,$9,0*
20,1,$1+$1,$8,$9,$2,$3,0*%
%AMFreePoly0*
4,1,37,0.603843,0.796157,0.639018,0.796157,0.711114,0.766294,0.766294,0.711114,0.796157,0.639018,0.796157,0.603843,0.800000,0.600000,0.800000,-0.600000,0.796157,-0.603843,0.796157,-0.639018,0.766294,-0.711114,0.711114,-0.766294,0.639018,-0.796157,0.603843,-0.796157,0.600000,-0.800000,0.000000,-0.800000,0.000000,-0.796148,-0.078414,-0.796148,-0.232228,-0.765552,-0.377117,-0.705537,
-0.507515,-0.618408,-0.618408,-0.507515,-0.705537,-0.377117,-0.765552,-0.232228,-0.796148,-0.078414,-0.796148,0.078414,-0.765552,0.232228,-0.705537,0.377117,-0.618408,0.507515,-0.507515,0.618408,-0.377117,0.705537,-0.232228,0.765552,-0.078414,0.796148,0.000000,0.796148,0.000000,0.800000,0.600000,0.800000,0.603843,0.796157,0.603843,0.796157,$1*%
%AMFreePoly1*
4,1,37,0.000000,0.796148,0.078414,0.796148,0.232228,0.765552,0.377117,0.705537,0.507515,0.618408,0.618408,0.507515,0.705537,0.377117,0.765552,0.232228,0.796148,0.078414,0.796148,-0.078414,0.765552,-0.232228,0.705537,-0.377117,0.618408,-0.507515,0.507515,-0.618408,0.377117,-0.705537,0.232228,-0.765552,0.078414,-0.796148,0.000000,-0.796148,0.000000,-0.800000,-0.600000,-0.800000,
-0.603843,-0.796157,-0.639018,-0.796157,-0.711114,-0.766294,-0.766294,-0.711114,-0.796157,-0.639018,-0.796157,-0.603843,-0.800000,-0.600000,-0.800000,0.600000,-0.796157,0.603843,-0.796157,0.639018,-0.766294,0.711114,-0.711114,0.766294,-0.639018,0.796157,-0.603843,0.796157,-0.600000,0.800000,0.000000,0.800000,0.000000,0.796148,0.000000,0.796148,$1*%
G04 Aperture macros list end*
%TA.AperFunction,ComponentPad*%
%ADD10RoundRect,0.200000X-0.600000X-0.600000X0.600000X-0.600000X0.600000X0.600000X-0.600000X0.600000X0*%
%TD*%
%TA.AperFunction,ComponentPad*%
%ADD11C,1.600000*%
%TD*%
%TA.AperFunction,ComponentPad*%
%ADD12FreePoly0,0.000000*%
%TD*%
%TA.AperFunction,ComponentPad*%
%ADD13FreePoly1,0.000000*%
%TD*%
%TA.AperFunction,ComponentPad*%
%ADD14R,1.500000X1.050000*%
%TD*%
%TA.AperFunction,ComponentPad*%
%ADD15O,1.500000X1.050000*%
%TD*%
%TA.AperFunction,ComponentPad*%
%ADD16R,1.700000X1.700000*%
%TD*%
%TA.AperFunction,ComponentPad*%
%ADD17C,1.700000*%
%TD*%
%TA.AperFunction,ViaPad*%
%ADD18C,0.600000*%
%TD*%
%TA.AperFunction,Conductor*%
%ADD19C,0.250000*%
%TD*%
G04 APERTURE END LIST*
D10*
%TO.P,A1,1,GPIO0_1*%
%TO.N,unconnected-(A1-GPIO0-Pad1)_1*%
X156220000Y-66520000D03*
D11*
%TO.P,A1,2,GPIO1_2*%
%TO.N,unconnected-(A1-GPIO1-Pad2)_1*%
X156220000Y-69060000D03*
D12*
%TO.P,A1,3,GND_3*%
%TO.N,GND*%
X156220000Y-71600000D03*
D11*
%TO.P,A1,4,GPIO2_4*%
%TO.N,unconnected-(A1-GPIO2-Pad4)*%
X156220000Y-74140000D03*
%TO.P,A1,5,GPIO3_5*%
%TO.N,unconnected-(A1-GPIO3-Pad5)*%
X156220000Y-76680000D03*
%TO.P,A1,6,GPIO4_6*%
%TO.N,/SDA*%
X156220000Y-79220000D03*
%TO.P,A1,7,GPIO5_7*%
%TO.N,/SCL*%
X156220000Y-81760000D03*
D12*
%TO.P,A1,8,GND_8*%
%TO.N,GND*%
X156220000Y-84300000D03*
D11*
%TO.P,A1,9,GPIO6_9*%
%TO.N,unconnected-(A1-GPIO6-Pad9)*%
X156220000Y-86840000D03*
%TO.P,A1,10,GPIO7_10*%
%TO.N,unconnected-(A1-GPIO7-Pad10)*%
X156220000Y-89380000D03*
%TO.P,A1,11,GPIO8_11*%
%TO.N,unconnected-(A1-GPIO8-Pad11)*%
X156220000Y-91920000D03*
%TO.P,A1,12,GPIO9_12*%
%TO.N,unconnected-(A1-GPIO9-Pad12)_1*%
X156220000Y-94460000D03*
D12*
%TO.P,A1,13,GND_13*%
%TO.N,GND*%
X156220000Y-97000000D03*
D11*
%TO.P,A1,14,GPIO10_14*%
%TO.N,unconnected-(A1-GPIO10-Pad14)_1*%
X156220000Y-99540000D03*
%TO.P,A1,15,GPIO11_15*%
%TO.N,unconnected-(A1-GPIO11-Pad15)_1*%
X156220000Y-102080000D03*
%TO.P,A1,16,GPIO12_16*%
%TO.N,unconnected-(A1-GPIO12-Pad16)_1*%
X156220000Y-104620000D03*
%TO.P,A1,17,GPIO13_17*%
%TO.N,unconnected-(A1-GPIO13-Pad17)*%
X156220000Y-107160000D03*
D12*
%TO.P,A1,18,GND_18*%
%TO.N,GND*%
X156220000Y-109700000D03*
D11*
%TO.P,A1,19,GPIO14_19*%
%TO.N,unconnected-(A1-GPIO14-Pad19)*%
X156220000Y-112240000D03*
%TO.P,A1,20,GPIO15_20*%
%TO.N,unconnected-(A1-GPIO15-Pad20)_1*%
X156220000Y-114780000D03*
%TO.P,A1,21,GPIO16_21*%
%TO.N,unconnected-(A1-GPIO16-Pad21)_1*%
X174000000Y-114780000D03*
%TO.P,A1,22,GPIO17_22*%
%TO.N,unconnected-(A1-GPIO17-Pad22)*%
X174000000Y-112240000D03*
D13*
%TO.P,A1,23,GND_23*%
%TO.N,GND*%
X174000000Y-109700000D03*
D11*
%TO.P,A1,24,GPIO18_24*%
%TO.N,unconnected-(A1-GPIO18-Pad24)*%
X174000000Y-107160000D03*
%TO.P,A1,25,GPIO19_25*%
%TO.N,unconnected-(A1-GPIO19-Pad25)*%
X174000000Y-104620000D03*
%TO.P,A1,26,GPIO20_26*%
%TO.N,unconnected-(A1-GPIO20-Pad26)*%
X174000000Y-102080000D03*
%TO.P,A1,27,GPIO21_27*%
%TO.N,unconnected-(A1-GPIO21-Pad27)*%
X174000000Y-99540000D03*
D13*
%TO.P,A1,28,GND_28*%
%TO.N,GND*%
X174000000Y-97000000D03*
D11*
%TO.P,A1,29,GPIO22_29*%
%TO.N,unconnected-(A1-GPIO22-Pad29)*%
X174000000Y-94460000D03*
%TO.P,A1,30,RUN_30*%
%TO.N,Net-(A1-RUN)*%
X174000000Y-91920000D03*
%TO.P,A1,31,GPIO26_ADC0_31*%
%TO.N,unconnected-(A1-GPIO26_ADC0-Pad31)_1*%
X174000000Y-89380000D03*
%TO.P,A1,32,GPIO27_ADC1_32*%
%TO.N,unconnected-(A1-GPIO27_ADC1-Pad32)*%
X174000000Y-86840000D03*
D13*
%TO.P,A1,33,AGND_33*%
%TO.N,unconnected-(A1-AGND-Pad33)*%
X174000000Y-84300000D03*
D11*
%TO.P,A1,34,GPIO28_ADC2_34*%
%TO.N,unconnected-(A1-GPIO28_ADC2-Pad34)_1*%
X174000000Y-81760000D03*
%TO.P,A1,35,ADC_VREF_35*%
%TO.N,unconnected-(A1-ADC_VREF-Pad35)_1*%
X174000000Y-79220000D03*
%TO.P,A1,36,3V3_36*%
%TO.N,unconnected-(A1-3V3-Pad36)*%
X174000000Y-76680000D03*
%TO.P,A1,37,3V3_EN_37*%
%TO.N,unconnected-(A1-3V3_EN-Pad37)*%
X174000000Y-74140000D03*
D13*
%TO.P,A1,38,GND_38*%
%TO.N,GND*%
X174000000Y-71600000D03*
D11*
%TO.P,A1,39,VSYS_39*%
%TO.N,unconnected-(A1-VSYS-Pad39)_1*%
X174000000Y-69060000D03*
%TO.P,A1,40,VBUS_40*%
%TO.N,+5V*%
X174000000Y-66520000D03*
%TD*%
D14*
%TO.P,U1,1,GND_1*%
%TO.N,GND*%
X148000000Y-67600000D03*
D15*
%TO.P,U1,2,VI_2*%
%TO.N,+5V*%
X148000000Y-68870000D03*
%TO.P,U1,3,VO_3*%
%TO.N,+3V3*%
X148000000Y-70140000D03*
%TD*%
D16*
%TO.P,J1,1,Pin_1_1*%
%TO.N,GND*%
X150100000Y-95210000D03*
D17*
%TO.P,J1,2,Pin_2_2*%
%TO.N,+3V3*%
X150100000Y-97750000D03*
%TO.P,J1,3,Pin_3_3*%
%TO.N,/SDA*%
X150100000Y-100290000D03*
%TO.P,J1,4,Pin_4_4*%
%TO.N,/SCL*%
X150100000Y-102830000D03*
%TD*%
D18*
%TO.N,GND*%
X136000000Y-119000000D03*
X139250000Y-80750000D03*
X137250000Y-111500000D03*
%TO.N,/SCL*%
X140000000Y-114750000D03*
X144750000Y-81500000D03*
%TO.N,/SDA*%
X144750000Y-80250000D03*
X146750000Y-100500000D03*
%TD*%
%TO.N,+5V*%
D19*
X149865000Y-70185000D02*
X148550000Y-68870000D01*
X157549534Y-70980000D02*
X156754534Y-70185000D01*
X169540000Y-70980000D02*
X157549534Y-70980000D01*
X148550000Y-68870000D02*
X148000000Y-68870000D01*
X156754534Y-70185000D02*
X149865000Y-70185000D01*
X174000000Y-66520000D02*
X169540000Y-70980000D01*
%TO.N,/SCL*%
X156220000Y-81760000D02*
X154085000Y-83895000D01*
X140000000Y-114750000D02*
X140500000Y-114250000D01*
X154085000Y-98845000D02*
X150100000Y-102830000D01*
X154085000Y-83895000D02*
X154085000Y-98845000D01*
X156220000Y-81760000D02*
X145010000Y-81760000D01*
X140500000Y-114250000D02*
X140500000Y-112430000D01*
X140500000Y-112430000D02*
X150100000Y-102830000D01*
X145010000Y-81760000D02*
X144750000Y-81500000D01*
%TO.N,/SDA*%
X146960000Y-100290000D02*
X150100000Y-100290000D01*
X145780000Y-79220000D02*
X144750000Y-80250000D01*
X144125000Y-94315000D02*
X144125000Y-80875000D01*
X156220000Y-79220000D02*
X145780000Y-79220000D01*
X146750000Y-100500000D02*
X146960000Y-100290000D01*
X150100000Y-100290000D02*
X144125000Y-94315000D01*
X144125000Y-80875000D02*
X144750000Y-80250000D01*
%TD*%
%TA.AperFunction,Conductor*%
%TO.N,GND*%
G36*
X156795804Y-70773155D02*
G01*
X156840152Y-70801656D01*
X157018343Y-70979847D01*
X157051828Y-71041170D01*
X157046844Y-71110862D01*
X157018343Y-71155209D01*
X156702962Y-71470589D01*
X156685925Y-71407007D01*
X156620099Y-71292993D01*
X156527007Y-71199901D01*
X156412993Y-71134075D01*
X156349409Y-71117037D01*
X156664790Y-70801656D01*
X156726113Y-70768171D01*
X156795804Y-70773155D01*
G37*
%TD.AperFunction*%
%TA.AperFunction,Conductor*%
G36*
X182942539Y-64720185D02*
G01*
X182988294Y-64772989D01*
X182999500Y-64824500D01*
X182999500Y-66370579D01*
X182979815Y-66437618D01*
X182927011Y-66483373D01*
X182857853Y-66493317D01*
X182794297Y-66464292D01*
X182757845Y-66407572D01*
X182757357Y-66407738D01*
X182756690Y-66405775D01*
X182756523Y-66405514D01*
X182756143Y-66404163D01*
X182756054Y-66403901D01*
X182727001Y-66333760D01*
X182663224Y-66179788D01*
X182541936Y-65969711D01*
X182462149Y-65865730D01*
X182394266Y-65777263D01*
X182394260Y-65777256D01*
X182222743Y-65605739D01*
X182222736Y-65605733D01*
X182030293Y-65458067D01*
X182030292Y-65458066D01*
X182030289Y-65458064D01*
X181820212Y-65336776D01*
X181730220Y-65299500D01*
X181596104Y-65243947D01*
X181361785Y-65181161D01*
X181121289Y-65149500D01*
X181121288Y-65149500D01*
X180878712Y-65149500D01*
X180878711Y-65149500D01*
X180638214Y-65181161D01*
X180403895Y-65243947D01*
X180179794Y-65336773D01*
X180179785Y-65336777D01*
X179969706Y-65458067D01*
X179777263Y-65605733D01*
X179777256Y-65605739D01*
X179605739Y-65777256D01*
X179605733Y-65777263D01*
X179458067Y-65969706D01*
X179336777Y-66179785D01*
X179336773Y-66179794D01*
X179243947Y-66403895D01*
X179181161Y-66638214D01*
X179149500Y-66878711D01*
X179149500Y-67121288D01*
X179181161Y-67361785D01*
X179243947Y-67596104D01*
X179330495Y-67805048D01*
X179336776Y-67820212D01*
X179458064Y-68030289D01*
X179458066Y-68030292D01*
X179458067Y-68030293D01*
X179605733Y-68222736D01*
X179605739Y-68222743D01*
X179777256Y-68394260D01*
X179777262Y-68394265D01*
X179969711Y-68541936D01*
X180179788Y-68663224D01*
X180375269Y-68744195D01*
X180398226Y-68753704D01*
X180403900Y-68756054D01*
X180638211Y-68818838D01*
X180818586Y-68842584D01*
X180878711Y-68850500D01*
X180878712Y-68850500D01*
X181121289Y-68850500D01*
X181169388Y-68844167D01*
X181361789Y-68818838D01*
X181596100Y-68756054D01*
X181820212Y-68663224D01*
X182030289Y-68541936D01*
X182222738Y-68394265D01*
X182394265Y-68222738D01*
X182541936Y-68030289D01*
X182663224Y-67820212D01*
X182756054Y-67596100D01*
X182756056Y-67596090D01*
X182757357Y-67592262D01*
X182758564Y-67592671D01*
X182792086Y-67537670D01*
X182854932Y-67507138D01*
X182924308Y-67515430D01*
X182978188Y-67559913D01*
X182999465Y-67626464D01*
X182999500Y-67629420D01*
X182999500Y-116870579D01*
X182979815Y-116937618D01*
X182927011Y-116983373D01*
X182857853Y-116993317D01*
X182794297Y-116964292D01*
X182757845Y-116907572D01*
X182757357Y-116907738D01*
X182756690Y-116905775D01*
X182756523Y-116905514D01*
X182756143Y-116904163D01*
X182756054Y-116903901D01*
X182663226Y-116679794D01*
X182663224Y-116679788D01*
X182541936Y-116469711D01*
X182394265Y-116277262D01*
X182394260Y-116277256D01*
X182222743Y-116105739D01*
X182222736Y-116105733D01*
X182030293Y-115958067D01*
X182030292Y-115958066D01*
X182030289Y-115958064D01*
X181820212Y-115836776D01*
X181820205Y-115836773D01*
X181596104Y-115743947D01*
X181361785Y-115681161D01*
X181121289Y-115649500D01*
X181121288Y-115649500D01*
X180878712Y-115649500D01*
X180878711Y-115649500D01*
X180638214Y-115681161D01*
X180403895Y-115743947D01*
X180179794Y-115836773D01*
X180179785Y-115836777D01*
X179969706Y-115958067D01*
X179777263Y-116105733D01*
X179777256Y-116105739D01*
X179605739Y-116277256D01*
X179605733Y-116277263D01*
X179458067Y-116469706D01*
X179336777Y-116679785D01*
X179336773Y-116679794D01*
X179243947Y-116903895D01*
X179181161Y-117138214D01*
X179149500Y-117378711D01*
X179149500Y-117621288D01*
X179181161Y-117861785D01*
X179243947Y-118096104D01*
X179336773Y-118320205D01*
X179336776Y-118320212D01*
X179458064Y-118530289D01*
X179458066Y-118530292D01*
X179458067Y-118530293D01*
X179605733Y-118722736D01*
X179605739Y-118722743D01*
X179777256Y-118894260D01*
X179777262Y-118894265D01*
X179969711Y-119041936D01*
X180179788Y-119163224D01*
X180403900Y-119256054D01*
X180403904Y-119256055D01*
X180407738Y-119257357D01*
X180407328Y-119258564D01*
X180462330Y-119292086D01*
X180492862Y-119354932D01*
X180484570Y-119424308D01*
X180440087Y-119478188D01*
X180373536Y-119499465D01*
X180370580Y-119499500D01*
X132624500Y-119499500D01*
X132557461Y-119479815D01*
X132511706Y-119427011D01*
X132500500Y-119375500D01*
X132500500Y-117000000D01*
X135200000Y-117000000D01*
X139200000Y-117000000D01*
X139200000Y-114677525D01*
X139449500Y-114677525D01*
X139449500Y-114822475D01*
X139487016Y-114962485D01*
X139487017Y-114962488D01*
X139559488Y-115088011D01*
X139559490Y-115088013D01*
X139559491Y-115088015D01*
X139661985Y-115190509D01*
X139661986Y-115190510D01*
X139661988Y-115190511D01*
X139787511Y-115262982D01*
X139787512Y-115262982D01*
X139787515Y-115262984D01*
X139927525Y-115300500D01*
X139927528Y-115300500D01*
X140072472Y-115300500D01*
X140072475Y-115300500D01*
X140212485Y-115262984D01*
X140338015Y-115190509D01*
X140440509Y-115088015D01*
X140512984Y-114962485D01*
X140550500Y-114822475D01*
X140550500Y-114781899D01*
X140559144Y-114752458D01*
X140565668Y-114722472D01*
X140569422Y-114717456D01*
X140570185Y-114714860D01*
X140586814Y-114694222D01*
X140604506Y-114676530D01*
X155169500Y-114676530D01*
X155169500Y-114883469D01*
X155209868Y-115086412D01*
X155209870Y-115086420D01*
X155289058Y-115277596D01*
X155404024Y-115449657D01*
X155550342Y-115595975D01*
X155550345Y-115595977D01*
X155722402Y-115710941D01*
X155913580Y-115790130D01*
X156116530Y-115830499D01*
X156116534Y-115830500D01*
X156116535Y-115830500D01*
X156323466Y-115830500D01*
X156323467Y-115830499D01*
X156526420Y-115790130D01*
X156717598Y-115710941D01*
X156889655Y-115595977D01*
X157035977Y-115449655D01*
X157150941Y-115277598D01*
X157230130Y-115086420D01*
X157270500Y-114883465D01*
X157270500Y-114676535D01*
X157230130Y-114473580D01*
X157150941Y-114282402D01*
X157035977Y-114110345D01*
X157035975Y-114110342D01*
X156889657Y-113964024D01*
X156803626Y-113906541D01*
X156717598Y-113849059D01*
X156526420Y-113769870D01*
X156526412Y-113769868D01*
X156323469Y-113729500D01*
X156323465Y-113729500D01*
X156116535Y-113729500D01*
X156116530Y-113729500D01*
X155913587Y-113769868D01*
X155913579Y-113769870D01*
X155722403Y-113849058D01*
X155550342Y-113964024D01*
X155404024Y-114110342D01*
X155289058Y-114282403D01*
X155209870Y-114473579D01*
X155209868Y-114473587D01*
X155169500Y-114676530D01*
X140604506Y-114676530D01*
X140800475Y-114480563D01*
X140849911Y-114394937D01*
X140875500Y-114299436D01*
X140875500Y-114200564D01*
X140875500Y-112636898D01*
X140895185Y-112569859D01*
X140911814Y-112549222D01*
X143839826Y-109621210D01*
X154915000Y-109621210D01*
X154915000Y-109778789D01*
X154924701Y-109877299D01*
X154924701Y-109877302D01*
X154955444Y-110031864D01*
X154984185Y-110126612D01*
X155044490Y-110272198D01*
X155091158Y-110359506D01*
X155137533Y-110428912D01*
X155137534Y-110428913D01*
X155737037Y-109829409D01*
X155754075Y-109892993D01*
X155819901Y-110007007D01*
X155912993Y-110100099D01*
X156027007Y-110165925D01*
X156090590Y-110182962D01*
X155491085Y-110782465D01*
X155560493Y-110828841D01*
X155647801Y-110875509D01*
X155793387Y-110935814D01*
X155888135Y-110964555D01*
X155956359Y-110978125D01*
X156018271Y-111010510D01*
X156052845Y-111071226D01*
X156049106Y-111140995D01*
X156008240Y-111197667D01*
X155956360Y-111221360D01*
X155913587Y-111229868D01*
X155913579Y-111229870D01*
X155722403Y-111309058D01*
X155550342Y-111424024D01*
X155404024Y-111570342D01*
X155289058Y-111742403D01*
X155209870Y-111933579D01*
X155209868Y-111933587D01*
X155169500Y-112136530D01*
X155169500Y-112343469D01*
X155209868Y-112546412D01*
X155209870Y-112546420D01*
X155289058Y-112737596D01*
X155404024Y-112909657D01*
X155550342Y-113055975D01*
X155550345Y-113055977D01*
X155722402Y-113170941D01*
X155913580Y-113250130D01*
X156116530Y-113290499D01*
X156116534Y-113290500D01*
X156116535Y-113290500D01*
X156323466Y-113290500D01*
X156323467Y-113290499D01*
X156526420Y-113250130D01*
X156717598Y-113170941D01*
X156889655Y-113055977D01*
X157035977Y-112909655D01*
X157150941Y-112737598D01*
X157230130Y-112546420D01*
X157270500Y-112343465D01*
X157270500Y-112136535D01*
X157241332Y-111989895D01*
X158010000Y-111989895D01*
X162662057Y-115602663D01*
X162702931Y-115659327D01*
X162710000Y-115700597D01*
X162710000Y-116650000D01*
X167510000Y-116650000D01*
X167510000Y-115700597D01*
X167529685Y-115633558D01*
X167557941Y-115602664D01*
X168750497Y-114676530D01*
X172949500Y-114676530D01*
X172949500Y-114883469D01*
X172989868Y-115086412D01*
X172989870Y-115086420D01*
X173069058Y-115277596D01*
X173184024Y-115449657D01*
X173330342Y-115595975D01*
X173330345Y-115595977D01*
X173502402Y-115710941D01*
X173693580Y-115790130D01*
X173896530Y-115830499D01*
X173896534Y-115830500D01*
X173896535Y-115830500D01*
X174103466Y-115830500D01*
X174103467Y-115830499D01*
X174306420Y-115790130D01*
X174497598Y-115710941D01*
X174669655Y-115595977D01*
X174815977Y-115449655D01*
X174930941Y-115277598D01*
X175010130Y-115086420D01*
X175050500Y-114883465D01*
X175050500Y-114676535D01*
X175010130Y-114473580D01*
X174930941Y-114282402D01*
X174815977Y-114110345D01*
X174815975Y-114110342D01*
X174669657Y-113964024D01*
X174583626Y-113906541D01*
X174497598Y-113849059D01*
X174306420Y-113769870D01*
X174306412Y-113769868D01*
X174103469Y-113729500D01*
X174103465Y-113729500D01*
X173896535Y-113729500D01*
X173896530Y-113729500D01*
X173693587Y-113769868D01*
X173693579Y-113769870D01*
X173502403Y-113849058D01*
X173330342Y-113964024D01*
X173184024Y-114110342D01*
X173069058Y-114282403D01*
X172989870Y-114473579D01*
X172989868Y-114473587D01*
X172949500Y-114676530D01*
X168750497Y-114676530D01*
X172210000Y-111989895D01*
X172210000Y-109060219D01*
X172695000Y-109060219D01*
X172695000Y-110339785D01*
X172697893Y-110393762D01*
X172697893Y-110393764D01*
X172733438Y-110533030D01*
X172733440Y-110533037D01*
X172756863Y-110589583D01*
X173517037Y-109829409D01*
X173534075Y-109892993D01*
X173599901Y-110007007D01*
X173692993Y-110100099D01*
X173807007Y-110165925D01*
X173870590Y-110182962D01*
X173110415Y-110943135D01*
X173110415Y-110943136D01*
X173166946Y-110966552D01*
X173217946Y-110984544D01*
X173360219Y-111004999D01*
X173360221Y-111005000D01*
X173613075Y-111005000D01*
X173680114Y-111024685D01*
X173725869Y-111077489D01*
X173735813Y-111146647D01*
X173706788Y-111210203D01*
X173660529Y-111243560D01*
X173603501Y-111267182D01*
X173502403Y-111309058D01*
X173330342Y-111424024D01*
X173184024Y-111570342D01*
X173069058Y-111742403D01*
X172989870Y-111933579D01*
X172989868Y-111933587D01*
X172949500Y-112136530D01*
X172949500Y-112343469D01*
X172989868Y-112546412D01*
X172989870Y-112546420D01*
X173069058Y-112737596D01*
X173184024Y-112909657D01*
X173330342Y-113055975D01*
X173330345Y-113055977D01*
X173502402Y-113170941D01*
X173693580Y-113250130D01*
X173896530Y-113290499D01*
X173896534Y-113290500D01*
X173896535Y-113290500D01*
X174103466Y-113290500D01*
X174103467Y-113290499D01*
X174306420Y-113250130D01*
X174497598Y-113170941D01*
X174669655Y-113055977D01*
X174815977Y-112909655D01*
X174930941Y-112737598D01*
X175010130Y-112546420D01*
X175050500Y-112343465D01*
X175050500Y-112136535D01*
X175010130Y-111933580D01*
X174930941Y-111742402D01*
X174815977Y-111570345D01*
X174815975Y-111570342D01*
X174669657Y-111424024D01*
X174583626Y-111366541D01*
X174497598Y-111309059D01*
X174306420Y-111229870D01*
X174306412Y-111229868D01*
X174263639Y-111221360D01*
X174201728Y-111188976D01*
X174167154Y-111128260D01*
X174170893Y-111058490D01*
X174211759Y-111001818D01*
X174263640Y-110978125D01*
X174331864Y-110964554D01*
X174426612Y-110935814D01*
X174572198Y-110875509D01*
X174659501Y-110828844D01*
X174659511Y-110828838D01*
X174728912Y-110782465D01*
X174129409Y-110182962D01*
X174192993Y-110165925D01*
X174307007Y-110100099D01*
X174400099Y-110007007D01*
X174465925Y-109892993D01*
X174482962Y-109829409D01*
X175082465Y-110428912D01*
X175128838Y-110359511D01*
X175128844Y-110359501D01*
X175175509Y-110272198D01*
X175235814Y-110126612D01*
X175264555Y-110031864D01*
X175295298Y-109877302D01*
X175295298Y-109877299D01*
X175305000Y-109778789D01*
X175305000Y-109621210D01*
X175295298Y-109522700D01*
X175295298Y-109522697D01*
X175264555Y-109368135D01*
X175235814Y-109273387D01*
X175175509Y-109127801D01*
X175128841Y-109040493D01*
X175082465Y-108971086D01*
X175082465Y-108971085D01*
X174482962Y-109570589D01*
X174465925Y-109507007D01*
X174400099Y-109392993D01*
X174307007Y-109299901D01*
X174192993Y-109234075D01*
X174129410Y-109217037D01*
X174728913Y-108617534D01*
X174728912Y-108617533D01*
X174659506Y-108571158D01*
X174572198Y-108524490D01*
X174426612Y-108464185D01*
X174331862Y-108435444D01*
X174331854Y-108435442D01*
X174263638Y-108421873D01*
X174201727Y-108389488D01*
X174167153Y-108328772D01*
X174170893Y-108259003D01*
X174211760Y-108202331D01*
X174263638Y-108178639D01*
X174306420Y-108170130D01*
X174497598Y-108090941D01*
X174669655Y-107975977D01*
X174815977Y-107829655D01*
X174930941Y-107657598D01*
X175010130Y-107466420D01*
X175050500Y-107263465D01*
X175050500Y-107056535D01*
X175010130Y-106853580D01*
X174930941Y-106662402D01*
X174815977Y-106490345D01*
X174815975Y-106490342D01*
X174669657Y-106344024D01*
X174583626Y-106286541D01*
X174497598Y-106229059D01*
X174306420Y-106149870D01*
X174306412Y-106149868D01*
X174103469Y-106109500D01*
X174103465Y-106109500D01*
X173896535Y-106109500D01*
X173896530Y-106109500D01*
X173693587Y-106149868D01*
X173693579Y-106149870D01*
X173502403Y-106229058D01*
X173330342Y-106344024D01*
X173184024Y-106490342D01*
X173069058Y-106662403D01*
X172989870Y-106853579D01*
X172989868Y-106853587D01*
X172949500Y-107056530D01*
X172949500Y-107263469D01*
X172989868Y-107466412D01*
X172989870Y-107466420D01*
X173069058Y-107657596D01*
X173184024Y-107829657D01*
X173330342Y-107975975D01*
X173330345Y-107975977D01*
X173502402Y-108090941D01*
X173660528Y-108156439D01*
X173714931Y-108200280D01*
X173736996Y-108266574D01*
X173719717Y-108334273D01*
X173668580Y-108381884D01*
X173613075Y-108395000D01*
X173360214Y-108395000D01*
X173306237Y-108397893D01*
X173306235Y-108397893D01*
X173166969Y-108433438D01*
X173166956Y-108433442D01*
X173110415Y-108456862D01*
X173870590Y-109217037D01*
X173807007Y-109234075D01*
X173692993Y-109299901D01*
X173599901Y-109392993D01*
X173534075Y-109507007D01*
X173517037Y-109570590D01*
X172756862Y-108810415D01*
X172733449Y-108866940D01*
X172715455Y-108917946D01*
X172695000Y-109060219D01*
X172210000Y-109060219D01*
X172210000Y-107650000D01*
X158010000Y-107650000D01*
X158010000Y-111989895D01*
X157241332Y-111989895D01*
X157230130Y-111933580D01*
X157150941Y-111742402D01*
X157035977Y-111570345D01*
X157035975Y-111570342D01*
X156889657Y-111424024D01*
X156803626Y-111366541D01*
X156717598Y-111309059D01*
X156559471Y-111243560D01*
X156505069Y-111199720D01*
X156483004Y-111133426D01*
X156500283Y-111065727D01*
X156551420Y-111018116D01*
X156606925Y-111005000D01*
X156859786Y-111005000D01*
X156913762Y-111002106D01*
X156913764Y-111002106D01*
X157053023Y-110966563D01*
X157053035Y-110966559D01*
X157109582Y-110943135D01*
X156349409Y-110182962D01*
X156412993Y-110165925D01*
X156527007Y-110100099D01*
X156620099Y-110007007D01*
X156685925Y-109892993D01*
X156702962Y-109829409D01*
X157463135Y-110589582D01*
X157463137Y-110589582D01*
X157486552Y-110533053D01*
X157504544Y-110482053D01*
X157524999Y-110339780D01*
X157525000Y-110339779D01*
X157525000Y-109060214D01*
X157522106Y-109006237D01*
X157522106Y-109006235D01*
X157486558Y-108866960D01*
X157463136Y-108810415D01*
X157463135Y-108810415D01*
X156702962Y-109570589D01*
X156685925Y-109507007D01*
X156620099Y-109392993D01*
X156527007Y-109299901D01*
X156412993Y-109234075D01*
X156349410Y-109217037D01*
X157109583Y-108456863D01*
X157109583Y-108456862D01*
X157053052Y-108433447D01*
X157053035Y-108433440D01*
X157002053Y-108415455D01*
X156859780Y-108395000D01*
X156606925Y-108395000D01*
X156539886Y-108375315D01*
X156494131Y-108322511D01*
X156484187Y-108253353D01*
X156513212Y-108189797D01*
X156559470Y-108156439D01*
X156717598Y-108090941D01*
X156889655Y-107975977D01*
X157035977Y-107829655D01*
X157150941Y-107657598D01*
X157172424Y-107605735D01*
X157195019Y-107551185D01*
X157195883Y-107549097D01*
X157230130Y-107466420D01*
X157270500Y-107263465D01*
X157270500Y-107056535D01*
X157230130Y-106853580D01*
X157150941Y-106662402D01*
X157035977Y-106490345D01*
X157035975Y-106490342D01*
X156889657Y-106344024D01*
X156803626Y-106286541D01*
X156717598Y-106229059D01*
X156526420Y-106149870D01*
X156526412Y-106149868D01*
X156323469Y-106109500D01*
X156323465Y-106109500D01*
X156116535Y-106109500D01*
X156116530Y-106109500D01*
X155913587Y-106149868D01*
X155913579Y-106149870D01*
X155722403Y-106229058D01*
X155550342Y-106344024D01*
X155404024Y-106490342D01*
X155289058Y-106662403D01*
X155209870Y-106853579D01*
X155209868Y-106853587D01*
X155169500Y-107056530D01*
X155169500Y-107263469D01*
X155209868Y-107466412D01*
X155209870Y-107466420D01*
X155289058Y-107657596D01*
X155404024Y-107829657D01*
X155550342Y-107975975D01*
X155550345Y-107975977D01*
X155722402Y-108090941D01*
X155913580Y-108170130D01*
X155956361Y-108178639D01*
X156018270Y-108211022D01*
X156052845Y-108271737D01*
X156049107Y-108341507D01*
X156008241Y-108398179D01*
X155956361Y-108421873D01*
X155888146Y-108435442D01*
X155888137Y-108435444D01*
X155793387Y-108464185D01*
X155647801Y-108524490D01*
X155560488Y-108571161D01*
X155491086Y-108617532D01*
X155491085Y-108617533D01*
X156090590Y-109217037D01*
X156027007Y-109234075D01*
X155912993Y-109299901D01*
X155819901Y-109392993D01*
X155754075Y-109507007D01*
X155737037Y-109570589D01*
X155137533Y-108971085D01*
X155137532Y-108971086D01*
X155091161Y-109040488D01*
X155044490Y-109127801D01*
X154984185Y-109273387D01*
X154955444Y-109368135D01*
X154924701Y-109522697D01*
X154924701Y-109522700D01*
X154915000Y-109621210D01*
X143839826Y-109621210D01*
X148944505Y-104516530D01*
X155169500Y-104516530D01*
X155169500Y-104723469D01*
X155209868Y-104926412D01*
X155209870Y-104926420D01*
X155289058Y-105117596D01*
X155404024Y-105289657D01*
X155550342Y-105435975D01*
X155550345Y-105435977D01*
X155722402Y-105550941D01*
X155913580Y-105630130D01*
X156116530Y-105670499D01*
X156116534Y-105670500D01*
X156116535Y-105670500D01*
X156323466Y-105670500D01*
X156323467Y-105670499D01*
X156526420Y-105630130D01*
X156717598Y-105550941D01*
X156889655Y-105435977D01*
X157035977Y-105289655D01*
X157150941Y-105117598D01*
X157230130Y-104926420D01*
X157270500Y-104723465D01*
X157270500Y-104516535D01*
X157270499Y-104516530D01*
X172949500Y-104516530D01*
X172949500Y-104723469D01*
X172989868Y-104926412D01*
X172989870Y-104926420D01*
X173069058Y-105117596D01*
X173184024Y-105289657D01*
X173330342Y-105435975D01*
X173330345Y-105435977D01*
X173502402Y-105550941D01*
X173693580Y-105630130D01*
X173896530Y-105670499D01*
X173896534Y-105670500D01*
X173896535Y-105670500D01*
X174103466Y-105670500D01*
X174103467Y-105670499D01*
X174306420Y-105630130D01*
X174497598Y-105550941D01*
X174669655Y-105435977D01*
X174815977Y-105289655D01*
X174930941Y-105117598D01*
X175010130Y-104926420D01*
X175050500Y-104723465D01*
X175050500Y-104516535D01*
X175010130Y-104313580D01*
X174930941Y-104122402D01*
X174815977Y-103950345D01*
X174815975Y-103950342D01*
X174669657Y-103804024D01*
X174583626Y-103746541D01*
X174497598Y-103689059D01*
X174306420Y-103609870D01*
X174306412Y-103609868D01*
X174103469Y-103569500D01*
X174103465Y-103569500D01*
X173896535Y-103569500D01*
X173896530Y-103569500D01*
X173693587Y-103609868D01*
X173693579Y-103609870D01*
X173502403Y-103689058D01*
X173330342Y-103804024D01*
X173184024Y-103950342D01*
X173069058Y-104122403D01*
X172989870Y-104313579D01*
X172989868Y-104313587D01*
X172949500Y-104516530D01*
X157270499Y-104516530D01*
X157230130Y-104313580D01*
X157150941Y-104122402D01*
X157035977Y-103950345D01*
X157035975Y-103950342D01*
X156889657Y-103804024D01*
X156803626Y-103746541D01*
X156717598Y-103689059D01*
X156526420Y-103609870D01*
X156526412Y-103609868D01*
X156323469Y-103569500D01*
X156323465Y-103569500D01*
X156116535Y-103569500D01*
X156116530Y-103569500D01*
X155913587Y-103609868D01*
X155913579Y-103609870D01*
X155722403Y-103689058D01*
X155550342Y-103804024D01*
X155404024Y-103950342D01*
X155289058Y-104122403D01*
X155209870Y-104313579D01*
X155209868Y-104313587D01*
X155169500Y-104516530D01*
X148944505Y-104516530D01*
X149573715Y-103887320D01*
X149635036Y-103853837D01*
X149699710Y-103857071D01*
X149842299Y-103903402D01*
X150013389Y-103930500D01*
X150013390Y-103930500D01*
X150186610Y-103930500D01*
X150186611Y-103930500D01*
X150357701Y-103903402D01*
X150522445Y-103849873D01*
X150676788Y-103771232D01*
X150816928Y-103669414D01*
X150939414Y-103546928D01*
X151041232Y-103406788D01*
X151119873Y-103252445D01*
X151173402Y-103087701D01*
X151200500Y-102916611D01*
X151200500Y-102743389D01*
X151173402Y-102572299D01*
X151127071Y-102429710D01*
X151125077Y-102359871D01*
X151157320Y-102303715D01*
X151484505Y-101976530D01*
X155169500Y-101976530D01*
X155169500Y-102183469D01*
X155209868Y-102386412D01*
X155209870Y-102386420D01*
X155289058Y-102577596D01*
X155404024Y-102749657D01*
X155550342Y-102895975D01*
X155550345Y-102895977D01*
X155722402Y-103010941D01*
X155913580Y-103090130D01*
X156116530Y-103130499D01*
X156116534Y-103130500D01*
X156116535Y-103130500D01*
X156323466Y-103130500D01*
X156323467Y-103130499D01*
X156526420Y-103090130D01*
X156717598Y-103010941D01*
X156889655Y-102895977D01*
X157035977Y-102749655D01*
X157150941Y-102577598D01*
X157230130Y-102386420D01*
X157270500Y-102183465D01*
X157270500Y-101976535D01*
X157270499Y-101976530D01*
X172949500Y-101976530D01*
X172949500Y-102183469D01*
X172989868Y-102386412D01*
X172989870Y-102386420D01*
X173069058Y-102577596D01*
X173184024Y-102749657D01*
X173330342Y-102895975D01*
X173330345Y-102895977D01*
X173502402Y-103010941D01*
X173693580Y-103090130D01*
X173896530Y-103130499D01*
X173896534Y-103130500D01*
X173896535Y-103130500D01*
X174103466Y-103130500D01*
X174103467Y-103130499D01*
X174306420Y-103090130D01*
X174497598Y-103010941D01*
X174669655Y-102895977D01*
X174815977Y-102749655D01*
X174930941Y-102577598D01*
X175010130Y-102386420D01*
X175050500Y-102183465D01*
X175050500Y-101976535D01*
X175010130Y-101773580D01*
X174930941Y-101582402D01*
X174815977Y-101410345D01*
X174815975Y-101410342D01*
X174669657Y-101264024D01*
X174583626Y-101206541D01*
X174497598Y-101149059D01*
X174306420Y-101069870D01*
X174306412Y-101069868D01*
X174103469Y-101029500D01*
X174103465Y-101029500D01*
X173896535Y-101029500D01*
X173896530Y-101029500D01*
X173693587Y-101069868D01*
X173693579Y-101069870D01*
X173502403Y-101149058D01*
X173330342Y-101264024D01*
X173184024Y-101410342D01*
X173069058Y-101582403D01*
X172989870Y-101773579D01*
X172989868Y-101773587D01*
X172949500Y-101976530D01*
X157270499Y-101976530D01*
X157230130Y-101773580D01*
X157150941Y-101582402D01*
X157035977Y-101410345D01*
X157035975Y-101410342D01*
X156889657Y-101264024D01*
X156803626Y-101206541D01*
X156717598Y-101149059D01*
X156526420Y-101069870D01*
X156526412Y-101069868D01*
X156323469Y-101029500D01*
X156323465Y-101029500D01*
X156116535Y-101029500D01*
X156116530Y-101029500D01*
X155913587Y-101069868D01*
X155913579Y-101069870D01*
X155722403Y-101149058D01*
X155550342Y-101264024D01*
X155404024Y-101410342D01*
X155289058Y-101582403D01*
X155209870Y-101773579D01*
X155209868Y-101773587D01*
X155169500Y-101976530D01*
X151484505Y-101976530D01*
X153637464Y-99823573D01*
X154118276Y-99342762D01*
X154385473Y-99075564D01*
X154393547Y-99061582D01*
X154434908Y-98989941D01*
X154434907Y-98989941D01*
X154434910Y-98989938D01*
X154460500Y-98894435D01*
X154460500Y-96921210D01*
X154915000Y-96921210D01*
X154915000Y-97078789D01*
X154924701Y-97177299D01*
X154924701Y-97177302D01*
X154955444Y-97331864D01*
X154984185Y-97426612D01*
X155044490Y-97572198D01*
X155091158Y-97659506D01*
X155137533Y-97728912D01*
X155137534Y-97728913D01*
X155737037Y-97129409D01*
X155754075Y-97192993D01*
X155819901Y-97307007D01*
X155912993Y-97400099D01*
X156027007Y-97465925D01*
X156090590Y-97482962D01*
X155491085Y-98082465D01*
X155560493Y-98128841D01*
X155647801Y-98175509D01*
X155793387Y-98235814D01*
X155888135Y-98264555D01*
X155956359Y-98278125D01*
X156018271Y-98310510D01*
X156052845Y-98371226D01*
X156049106Y-98440995D01*
X156008240Y-98497667D01*
X155956360Y-98521360D01*
X155913587Y-98529868D01*
X155913579Y-98529870D01*
X155722403Y-98609058D01*
X155550342Y-98724024D01*
X155404024Y-98870342D01*
X155289058Y-99042403D01*
X155209870Y-99233579D01*
X155209868Y-99233587D01*
X155169500Y-99436530D01*
X155169500Y-99643469D01*
X155209868Y-99846412D01*
X155209870Y-99846420D01*
X155268107Y-99987017D01*
X155289059Y-100037598D01*
X155303689Y-100059493D01*
X155404024Y-100209657D01*
X155550342Y-100355975D01*
X155550345Y-100355977D01*
X155722402Y-100470941D01*
X155913580Y-100550130D01*
X156116530Y-100590499D01*
X156116534Y-100590500D01*
X156116535Y-100590500D01*
X156323466Y-100590500D01*
X156323467Y-100590499D01*
X156526420Y-100550130D01*
X156717598Y-100470941D01*
X156889655Y-100355977D01*
X157035977Y-100209655D01*
X157150941Y-100037598D01*
X157230130Y-99846420D01*
X157270500Y-99643465D01*
X157270500Y-99436535D01*
X157230130Y-99233580D01*
X157150941Y-99042402D01*
X157035977Y-98870345D01*
X157035975Y-98870342D01*
X156889657Y-98724024D01*
X156761061Y-98638100D01*
X156717598Y-98609059D01*
X156559471Y-98543560D01*
X156505069Y-98499720D01*
X156483004Y-98433426D01*
X156500283Y-98365727D01*
X156551420Y-98318116D01*
X156606925Y-98305000D01*
X156859786Y-98305000D01*
X156913762Y-98302106D01*
X156913764Y-98302106D01*
X157053023Y-98266563D01*
X157053035Y-98266559D01*
X157109582Y-98243135D01*
X156349409Y-97482962D01*
X156412993Y-97465925D01*
X156527007Y-97400099D01*
X156620099Y-97307007D01*
X156685925Y-97192993D01*
X156702962Y-97129409D01*
X157463135Y-97889582D01*
X157463137Y-97889582D01*
X157486552Y-97833053D01*
X157504544Y-97782053D01*
X157524999Y-97639780D01*
X157525000Y-97639779D01*
X157525000Y-96360224D01*
X157525000Y-96360219D01*
X172695000Y-96360219D01*
X172695000Y-97639785D01*
X172697893Y-97693762D01*
X172697893Y-97693764D01*
X172733438Y-97833030D01*
X172733440Y-97833037D01*
X172756863Y-97889583D01*
X173517037Y-97129409D01*
X173534075Y-97192993D01*
X173599901Y-97307007D01*
X173692993Y-97400099D01*
X173807007Y-97465925D01*
X173870590Y-97482962D01*
X173110415Y-98243135D01*
X173110415Y-98243136D01*
X173166946Y-98266552D01*
X173217946Y-98284544D01*
X173360219Y-98304999D01*
X173360221Y-98305000D01*
X173613075Y-98305000D01*
X173680114Y-98324685D01*
X173725869Y-98377489D01*
X173735813Y-98446647D01*
X173706788Y-98510203D01*
X173660529Y-98543560D01*
X173603501Y-98567182D01*
X173502403Y-98609058D01*
X173330342Y-98724024D01*
X173184024Y-98870342D01*
X173069058Y-99042403D01*
X172989870Y-99233579D01*
X172989868Y-99233587D01*
X172949500Y-99436530D01*
X172949500Y-99643469D01*
X172989868Y-99846412D01*
X172989870Y-99846420D01*
X173048107Y-99987017D01*
X173069059Y-100037598D01*
X173083689Y-100059493D01*
X173184024Y-100209657D01*
X173330342Y-100355975D01*
X173330345Y-100355977D01*
X173502402Y-100470941D01*
X173693580Y-100550130D01*
X173896530Y-100590499D01*
X173896534Y-100590500D01*
X173896535Y-100590500D01*
X174103466Y-100590500D01*
X174103467Y-100590499D01*
X174306420Y-100550130D01*
X174497598Y-100470941D01*
X174669655Y-100355977D01*
X174815977Y-100209655D01*
X174930941Y-100037598D01*
X175010130Y-99846420D01*
X175050500Y-99643465D01*
X175050500Y-99436535D01*
X175010130Y-99233580D01*
X174930941Y-99042402D01*
X174815977Y-98870345D01*
X174815975Y-98870342D01*
X174669657Y-98724024D01*
X174541061Y-98638100D01*
X174497598Y-98609059D01*
X174306420Y-98529870D01*
X174306412Y-98529868D01*
X174263639Y-98521360D01*
X174201728Y-98488976D01*
X174167154Y-98428260D01*
X174170893Y-98358490D01*
X174211759Y-98301818D01*
X174263640Y-98278125D01*
X174331864Y-98264554D01*
X174426612Y-98235814D01*
X174572198Y-98175509D01*
X174659501Y-98128844D01*
X174659511Y-98128838D01*
X174728912Y-98082465D01*
X174129409Y-97482962D01*
X174192993Y-97465925D01*
X174307007Y-97400099D01*
X174400099Y-97307007D01*
X174465925Y-97192993D01*
X174482962Y-97129409D01*
X175082465Y-97728912D01*
X175128838Y-97659511D01*
X175128844Y-97659501D01*
X175175509Y-97572198D01*
X175235814Y-97426612D01*
X175264555Y-97331864D01*
X175295298Y-97177302D01*
X175295298Y-97177299D01*
X175305000Y-97078789D01*
X175305000Y-96921210D01*
X175295298Y-96822700D01*
X175295298Y-96822697D01*
X175264555Y-96668135D01*
X175235814Y-96573387D01*
X175175509Y-96427801D01*
X175128841Y-96340493D01*
X175082465Y-96271086D01*
X175082465Y-96271085D01*
X174482962Y-96870589D01*
X174465925Y-96807007D01*
X174400099Y-96692993D01*
X174307007Y-96599901D01*
X174192993Y-96534075D01*
X174129410Y-96517037D01*
X174728913Y-95917534D01*
X174728912Y-95917533D01*
X174659506Y-95871158D01*
X174572198Y-95824490D01*
X174426612Y-95764185D01*
X174331862Y-95735444D01*
X174331854Y-95735442D01*
X174263638Y-95721873D01*
X174201727Y-95689488D01*
X174167153Y-95628772D01*
X174170893Y-95559003D01*
X174211760Y-95502331D01*
X174263638Y-95478639D01*
X174306420Y-95470130D01*
X174497598Y-95390941D01*
X174669655Y-95275977D01*
X174815977Y-95129655D01*
X174930941Y-94957598D01*
X175010130Y-94766420D01*
X175050500Y-94563465D01*
X175050500Y-94356535D01*
X175010130Y-94153580D01*
X174930941Y-93962402D01*
X174815977Y-93790345D01*
X174815975Y-93790342D01*
X174669657Y-93644024D01*
X174583626Y-93586541D01*
X174497598Y-93529059D01*
X174306420Y-93449870D01*
X174306412Y-93449868D01*
X174103469Y-93409500D01*
X174103465Y-93409500D01*
X173896535Y-93409500D01*
X173896530Y-93409500D01*
X173693587Y-93449868D01*
X173693579Y-93449870D01*
X173502403Y-93529058D01*
X173330342Y-93644024D01*
X173184024Y-93790342D01*
X173069058Y-93962403D01*
X172989870Y-94153579D01*
X172989868Y-94153587D01*
X172949500Y-94356530D01*
X172949500Y-94563469D01*
X172989868Y-94766412D01*
X172989870Y-94766420D01*
X173069058Y-94957596D01*
X173184024Y-95129657D01*
X173330342Y-95275975D01*
X173330345Y-95275977D01*
X173502402Y-95390941D01*
X173660528Y-95456439D01*
X173714931Y-95500280D01*
X173736996Y-95566574D01*
X173719717Y-95634273D01*
X173668580Y-95681884D01*
X173613075Y-95695000D01*
X173360214Y-95695000D01*
X173306237Y-95697893D01*
X173306235Y-95697893D01*
X173166969Y-95733438D01*
X173166956Y-95733442D01*
X173110415Y-95756862D01*
X173870590Y-96517037D01*
X173807007Y-96534075D01*
X173692993Y-96599901D01*
X173599901Y-96692993D01*
X173534075Y-96807007D01*
X173517037Y-96870590D01*
X172756862Y-96110415D01*
X172733449Y-96166940D01*
X172715455Y-96217946D01*
X172695000Y-96360219D01*
X157525000Y-96360219D01*
X157524999Y-96360204D01*
X157522106Y-96306237D01*
X157522106Y-96306235D01*
X157486558Y-96166960D01*
X157463136Y-96110415D01*
X157463135Y-96110415D01*
X156702962Y-96870589D01*
X156685925Y-96807007D01*
X156620099Y-96692993D01*
X156527007Y-96599901D01*
X156412993Y-96534075D01*
X156349410Y-96517037D01*
X157109583Y-95756863D01*
X157109583Y-95756862D01*
X157053052Y-95733447D01*
X157053035Y-95733440D01*
X157002053Y-95715455D01*
X156859780Y-95695000D01*
X156606925Y-95695000D01*
X156539886Y-95675315D01*
X156494131Y-95622511D01*
X156484187Y-95553353D01*
X156513212Y-95489797D01*
X156559470Y-95456439D01*
X156717598Y-95390941D01*
X156889655Y-95275977D01*
X157035977Y-95129655D01*
X157150941Y-94957598D01*
X157230130Y-94766420D01*
X157270500Y-94563465D01*
X157270500Y-94356535D01*
X157230130Y-94153580D01*
X157150941Y-93962402D01*
X157035977Y-93790345D01*
X157035975Y-93790342D01*
X156889657Y-93644024D01*
X156803626Y-93586541D01*
X156717598Y-93529059D01*
X156526420Y-93449870D01*
X156526412Y-93449868D01*
X156323469Y-93409500D01*
X156323465Y-93409500D01*
X156116535Y-93409500D01*
X156116530Y-93409500D01*
X155913587Y-93449868D01*
X155913579Y-93449870D01*
X155722403Y-93529058D01*
X155550342Y-93644024D01*
X155404024Y-93790342D01*
X155289058Y-93962403D01*
X155209870Y-94153579D01*
X155209868Y-94153587D01*
X155169500Y-94356530D01*
X155169500Y-94563469D01*
X155209868Y-94766412D01*
X155209870Y-94766420D01*
X155289058Y-94957596D01*
X155404024Y-95129657D01*
X155550342Y-95275975D01*
X155550345Y-95275977D01*
X155722402Y-95390941D01*
X155913580Y-95470130D01*
X155956361Y-95478639D01*
X156018270Y-95511022D01*
X156052845Y-95571737D01*
X156049107Y-95641507D01*
X156008241Y-95698179D01*
X155956361Y-95721873D01*
X155888146Y-95735442D01*
X155888137Y-95735444D01*
X155793387Y-95764185D01*
X155647801Y-95824490D01*
X155560488Y-95871161D01*
X155491086Y-95917532D01*
X155491085Y-95917533D01*
X156090590Y-96517037D01*
X156027007Y-96534075D01*
X155912993Y-96599901D01*
X155819901Y-96692993D01*
X155754075Y-96807007D01*
X155737037Y-96870589D01*
X155137533Y-96271085D01*
X155137532Y-96271086D01*
X155091161Y-96340488D01*
X155044490Y-96427801D01*
X154984185Y-96573387D01*
X154955444Y-96668135D01*
X154924701Y-96822697D01*
X154924701Y-96822700D01*
X154915000Y-96921210D01*
X154460500Y-96921210D01*
X154460500Y-91816530D01*
X155169500Y-91816530D01*
X155169500Y-92023469D01*
X155209868Y-92226412D01*
X155209870Y-92226420D01*
X155289058Y-92417596D01*
X155404024Y-92589657D01*
X155550342Y-92735975D01*
X155550345Y-92735977D01*
X155722402Y-92850941D01*
X155913580Y-92930130D01*
X156116530Y-92970499D01*
X156116534Y-92970500D01*
X156116535Y-92970500D01*
X156323466Y-92970500D01*
X156323467Y-92970499D01*
X156526420Y-92930130D01*
X156717598Y-92850941D01*
X156889655Y-92735977D01*
X157035977Y-92589655D01*
X157150941Y-92417598D01*
X157230130Y-92226420D01*
X157270500Y-92023465D01*
X157270500Y-91816535D01*
X157270499Y-91816530D01*
X172949500Y-91816530D01*
X172949500Y-92023469D01*
X172989868Y-92226412D01*
X172989870Y-92226420D01*
X173069058Y-92417596D01*
X173184024Y-92589657D01*
X173330342Y-92735975D01*
X173330345Y-92735977D01*
X173502402Y-92850941D01*
X173693580Y-92930130D01*
X173896530Y-92970499D01*
X173896534Y-92970500D01*
X173896535Y-92970500D01*
X174103466Y-92970500D01*
X174103467Y-92970499D01*
X174306420Y-92930130D01*
X174497598Y-92850941D01*
X174669655Y-92735977D01*
X174815977Y-92589655D01*
X174930941Y-92417598D01*
X175010130Y-92226420D01*
X175050500Y-92023465D01*
X175050500Y-91816535D01*
X175010130Y-91613580D01*
X174930941Y-91422402D01*
X174815977Y-91250345D01*
X174815975Y-91250342D01*
X174669657Y-91104024D01*
X174583626Y-91046541D01*
X174497598Y-90989059D01*
X174306420Y-90909870D01*
X174306412Y-90909868D01*
X174103469Y-90869500D01*
X174103465Y-90869500D01*
X173896535Y-90869500D01*
X173896530Y-90869500D01*
X173693587Y-90909868D01*
X173693579Y-90909870D01*
X173502403Y-90989058D01*
X173330342Y-91104024D01*
X173184024Y-91250342D01*
X173069058Y-91422403D01*
X172989870Y-91613579D01*
X172989868Y-91613587D01*
X172949500Y-91816530D01*
X157270499Y-91816530D01*
X157230130Y-91613580D01*
X157150941Y-91422402D01*
X157035977Y-91250345D01*
X157035975Y-91250342D01*
X156889657Y-91104024D01*
X156803626Y-91046541D01*
X156717598Y-90989059D01*
X156526420Y-90909870D01*
X156526412Y-90909868D01*
X156323469Y-90869500D01*
X156323465Y-90869500D01*
X156116535Y-90869500D01*
X156116530Y-90869500D01*
X155913587Y-90909868D01*
X155913579Y-90909870D01*
X155722403Y-90989058D01*
X155550342Y-91104024D01*
X155404024Y-91250342D01*
X155289058Y-91422403D01*
X155209870Y-91613579D01*
X155209868Y-91613587D01*
X155169500Y-91816530D01*
X154460500Y-91816530D01*
X154460500Y-89276530D01*
X155169500Y-89276530D01*
X155169500Y-89483469D01*
X155209868Y-89686412D01*
X155209870Y-89686420D01*
X155289058Y-89877596D01*
X155404024Y-90049657D01*
X155550342Y-90195975D01*
X155550345Y-90195977D01*
X155722402Y-90310941D01*
X155913580Y-90390130D01*
X156116530Y-90430499D01*
X156116534Y-90430500D01*
X156116535Y-90430500D01*
X156323466Y-90430500D01*
X156323467Y-90430499D01*
X156526420Y-90390130D01*
X156717598Y-90310941D01*
X156889655Y-90195977D01*
X157035977Y-90049655D01*
X157150941Y-89877598D01*
X157230130Y-89686420D01*
X157270500Y-89483465D01*
X157270500Y-89276535D01*
X157270499Y-89276530D01*
X172949500Y-89276530D01*
X172949500Y-89483469D01*
X172989868Y-89686412D01*
X172989870Y-89686420D01*
X173069058Y-89877596D01*
X173184024Y-90049657D01*
X173330342Y-90195975D01*
X173330345Y-90195977D01*
X173502402Y-90310941D01*
X173693580Y-90390130D01*
X173896530Y-90430499D01*
X173896534Y-90430500D01*
X173896535Y-90430500D01*
X174103466Y-90430500D01*
X174103467Y-90430499D01*
X174306420Y-90390130D01*
X174497598Y-90310941D01*
X174669655Y-90195977D01*
X174815977Y-90049655D01*
X174930941Y-89877598D01*
X175010130Y-89686420D01*
X175050500Y-89483465D01*
X175050500Y-89276535D01*
X175010130Y-89073580D01*
X174930941Y-88882402D01*
X174815977Y-88710345D01*
X174815975Y-88710342D01*
X174669657Y-88564024D01*
X174583626Y-88506541D01*
X174497598Y-88449059D01*
X174306420Y-88369870D01*
X174306412Y-88369868D01*
X174103469Y-88329500D01*
X174103465Y-88329500D01*
X173896535Y-88329500D01*
X173896530Y-88329500D01*
X173693587Y-88369868D01*
X173693579Y-88369870D01*
X173502403Y-88449058D01*
X173330342Y-88564024D01*
X173184024Y-88710342D01*
X173069058Y-88882403D01*
X172989870Y-89073579D01*
X172989868Y-89073587D01*
X172949500Y-89276530D01*
X157270499Y-89276530D01*
X157230130Y-89073580D01*
X157150941Y-88882402D01*
X157035977Y-88710345D01*
X157035975Y-88710342D01*
X156889657Y-88564024D01*
X156803626Y-88506541D01*
X156717598Y-88449059D01*
X156526420Y-88369870D01*
X156526412Y-88369868D01*
X156323469Y-88329500D01*
X156323465Y-88329500D01*
X156116535Y-88329500D01*
X156116530Y-88329500D01*
X155913587Y-88369868D01*
X155913579Y-88369870D01*
X155722403Y-88449058D01*
X155550342Y-88564024D01*
X155404024Y-88710342D01*
X155289058Y-88882403D01*
X155209870Y-89073579D01*
X155209868Y-89073587D01*
X155169500Y-89276530D01*
X154460500Y-89276530D01*
X154460500Y-84101898D01*
X154480185Y-84034859D01*
X154496814Y-84014222D01*
X154788424Y-83722611D01*
X154849744Y-83689129D01*
X154919435Y-83694113D01*
X154975369Y-83735984D01*
X154999786Y-83801449D01*
X154990666Y-83857742D01*
X154984185Y-83873390D01*
X154955444Y-83968135D01*
X154924701Y-84122697D01*
X154924701Y-84122700D01*
X154915000Y-84221210D01*
X154915000Y-84378789D01*
X154924701Y-84477299D01*
X154924701Y-84477302D01*
X154955444Y-84631864D01*
X154984185Y-84726612D01*
X155044490Y-84872198D01*
X155091158Y-84959506D01*
X155137533Y-85028912D01*
X155137533Y-85028913D01*
X155737037Y-84429409D01*
X155754075Y-84492993D01*
X155819901Y-84607007D01*
X155912993Y-84700099D01*
X156027007Y-84765925D01*
X156090590Y-84782962D01*
X155491085Y-85382465D01*
X155560493Y-85428841D01*
X155647801Y-85475509D01*
X155793387Y-85535814D01*
X155888135Y-85564555D01*
X155956359Y-85578125D01*
X156018271Y-85610510D01*
X156052845Y-85671226D01*
X156049106Y-85740995D01*
X156008240Y-85797667D01*
X155956360Y-85821360D01*
X155913587Y-85829868D01*
X155913579Y-85829870D01*
X155722403Y-85909058D01*
X155550342Y-86024024D01*
X155404024Y-86170342D01*
X155289058Y-86342403D01*
X155209870Y-86533579D01*
X155209868Y-86533587D01*
X155169500Y-86736530D01*
X155169500Y-86943469D01*
X155209868Y-87146412D01*
X155209870Y-87146420D01*
X155289058Y-87337596D01*
X155404024Y-87509657D01*
X155550342Y-87655975D01*
X155550345Y-87655977D01*
X155722402Y-87770941D01*
X155913580Y-87850130D01*
X156116530Y-87890499D01*
X156116534Y-87890500D01*
X156116535Y-87890500D01*
X156323466Y-87890500D01*
X156323467Y-87890499D01*
X156526420Y-87850130D01*
X156717598Y-87770941D01*
X156889655Y-87655977D01*
X157035977Y-87509655D01*
X157150941Y-87337598D01*
X157230130Y-87146420D01*
X157270500Y-86943465D01*
X157270500Y-86736535D01*
X157270499Y-86736530D01*
X172949500Y-86736530D01*
X172949500Y-86943469D01*
X172989868Y-87146412D01*
X172989870Y-87146420D01*
X173069058Y-87337596D01*
X173184024Y-87509657D01*
X173330342Y-87655975D01*
X173330345Y-87655977D01*
X173502402Y-87770941D01*
X173693580Y-87850130D01*
X173896530Y-87890499D01*
X173896534Y-87890500D01*
X173896535Y-87890500D01*
X174103466Y-87890500D01*
X174103467Y-87890499D01*
X174306420Y-87850130D01*
X174497598Y-87770941D01*
X174669655Y-87655977D01*
X174815977Y-87509655D01*
X174930941Y-87337598D01*
X175010130Y-87146420D01*
X175050500Y-86943465D01*
X175050500Y-86736535D01*
X175010130Y-86533580D01*
X174930941Y-86342402D01*
X174815977Y-86170345D01*
X174815975Y-86170342D01*
X174669657Y-86024024D01*
X174583626Y-85966541D01*
X174497598Y-85909059D01*
X174306420Y-85829870D01*
X174306412Y-85829868D01*
X174103469Y-85789500D01*
X174103465Y-85789500D01*
X173896535Y-85789500D01*
X173896530Y-85789500D01*
X173693587Y-85829868D01*
X173693579Y-85829870D01*
X173502403Y-85909058D01*
X173330342Y-86024024D01*
X173184024Y-86170342D01*
X173069058Y-86342403D01*
X172989870Y-86533579D01*
X172989868Y-86533587D01*
X172949500Y-86736530D01*
X157270499Y-86736530D01*
X157230130Y-86533580D01*
X157150941Y-86342402D01*
X157035977Y-86170345D01*
X157035975Y-86170342D01*
X156889657Y-86024024D01*
X156803626Y-85966541D01*
X156717598Y-85909059D01*
X156559471Y-85843560D01*
X156505069Y-85799720D01*
X156483004Y-85733426D01*
X156500283Y-85665727D01*
X156551420Y-85618116D01*
X156606925Y-85605000D01*
X156859786Y-85605000D01*
X156913762Y-85602106D01*
X156913764Y-85602106D01*
X157053023Y-85566563D01*
X157053035Y-85566559D01*
X157109582Y-85543135D01*
X156349409Y-84782962D01*
X156412993Y-84765925D01*
X156527007Y-84700099D01*
X156620099Y-84607007D01*
X156685925Y-84492993D01*
X156702962Y-84429409D01*
X157463135Y-85189582D01*
X157463137Y-85189582D01*
X157486552Y-85133053D01*
X157504544Y-85082053D01*
X157524999Y-84939780D01*
X157525000Y-84939779D01*
X157525000Y-83660220D01*
X157525000Y-83660213D01*
X172944500Y-83660213D01*
X172944500Y-84939786D01*
X172962229Y-85028913D01*
X172963948Y-85037556D01*
X172994396Y-85111065D01*
X172994397Y-85111067D01*
X173009611Y-85133837D01*
X173049783Y-85193959D01*
X173106039Y-85250215D01*
X173106042Y-85250217D01*
X173106044Y-85250219D01*
X173188935Y-85305604D01*
X173188938Y-85305605D01*
X173188941Y-85305607D01*
X173223326Y-85319849D01*
X173262444Y-85336052D01*
X173360213Y-85355499D01*
X173360217Y-85355500D01*
X173360218Y-85355500D01*
X174078791Y-85355500D01*
X174078793Y-85355500D01*
X174128638Y-85350591D01*
X174283196Y-85319848D01*
X174331127Y-85305308D01*
X174476718Y-85245002D01*
X174520890Y-85221392D01*
X174651918Y-85133842D01*
X174690636Y-85102067D01*
X174802067Y-84990636D01*
X174833842Y-84951918D01*
X174921392Y-84820890D01*
X174945002Y-84776718D01*
X175005308Y-84631127D01*
X175019848Y-84583196D01*
X175050591Y-84428638D01*
X175055500Y-84378793D01*
X175055500Y-84221207D01*
X175050591Y-84171362D01*
X175019848Y-84016804D01*
X175005308Y-83968873D01*
X175005002Y-83968135D01*
X174959276Y-83857742D01*
X174945002Y-83823282D01*
X174932541Y-83799969D01*
X174921399Y-83779122D01*
X174921388Y-83779104D01*
X174892576Y-83735984D01*
X174833842Y-83648082D01*
X174802067Y-83609364D01*
X174802066Y-83609363D01*
X174802062Y-83609358D01*
X174690641Y-83497937D01*
X174651923Y-83466162D01*
X174651922Y-83466161D01*
X174651918Y-83466158D01*
X174561951Y-83406044D01*
X174520895Y-83378611D01*
X174520877Y-83378600D01*
X174476727Y-83355003D01*
X174476718Y-83354998D01*
X174464126Y-83349782D01*
X174331129Y-83294692D01*
X174283191Y-83280150D01*
X174171576Y-83257949D01*
X174128638Y-83249409D01*
X174128634Y-83249408D01*
X174128626Y-83249407D01*
X174088460Y-83245452D01*
X174078793Y-83244500D01*
X173360218Y-83244500D01*
X173360213Y-83244500D01*
X173262452Y-83263946D01*
X173262440Y-83263949D01*
X173188938Y-83294394D01*
X173188934Y-83294396D01*
X173106040Y-83349783D01*
X173049784Y-83406039D01*
X172994398Y-83488931D01*
X172994392Y-83488941D01*
X172963949Y-83562440D01*
X172963946Y-83562452D01*
X172944500Y-83660213D01*
X157525000Y-83660213D01*
X157522106Y-83606236D01*
X157522106Y-83606235D01*
X157486558Y-83466960D01*
X157463136Y-83410415D01*
X157463135Y-83410415D01*
X156702962Y-84170589D01*
X156685925Y-84107007D01*
X156620099Y-83992993D01*
X156527007Y-83899901D01*
X156412993Y-83834075D01*
X156349409Y-83817037D01*
X157109583Y-83056863D01*
X157109583Y-83056862D01*
X157053052Y-83033447D01*
X157053035Y-83033440D01*
X157002053Y-83015455D01*
X156859780Y-82995000D01*
X156606925Y-82995000D01*
X156539886Y-82975315D01*
X156494131Y-82922511D01*
X156484187Y-82853353D01*
X156513212Y-82789797D01*
X156559470Y-82756439D01*
X156717598Y-82690941D01*
X156889655Y-82575977D01*
X157035977Y-82429655D01*
X157150941Y-82257598D01*
X157230130Y-82066420D01*
X157270500Y-81863465D01*
X157270500Y-81656535D01*
X157270499Y-81656530D01*
X172949500Y-81656530D01*
X172949500Y-81863469D01*
X172989868Y-82066412D01*
X172989870Y-82066420D01*
X173069058Y-82257596D01*
X173184024Y-82429657D01*
X173330342Y-82575975D01*
X173330345Y-82575977D01*
X173502402Y-82690941D01*
X173693580Y-82770130D01*
X173896530Y-82810499D01*
X173896534Y-82810500D01*
X173896535Y-82810500D01*
X174103466Y-82810500D01*
X174103467Y-82810499D01*
X174306420Y-82770130D01*
X174497598Y-82690941D01*
X174669655Y-82575977D01*
X174815977Y-82429655D01*
X174930941Y-82257598D01*
X175010130Y-82066420D01*
X175050500Y-81863465D01*
X175050500Y-81656535D01*
X175010130Y-81453580D01*
X174930941Y-81262402D01*
X174815977Y-81090345D01*
X174815975Y-81090342D01*
X174669657Y-80944024D01*
X174573024Y-80879457D01*
X174497598Y-80829059D01*
X174306420Y-80749870D01*
X174306412Y-80749868D01*
X174103469Y-80709500D01*
X174103465Y-80709500D01*
X173896535Y-80709500D01*
X173896530Y-80709500D01*
X173693587Y-80749868D01*
X173693579Y-80749870D01*
X173502403Y-80829058D01*
X173330342Y-80944024D01*
X173184024Y-81090342D01*
X173069058Y-81262403D01*
X172989870Y-81453579D01*
X172989868Y-81453587D01*
X172949500Y-81656530D01*
X157270499Y-81656530D01*
X157230130Y-81453580D01*
X157150941Y-81262402D01*
X157035977Y-81090345D01*
X157035975Y-81090342D01*
X156889657Y-80944024D01*
X156793024Y-80879457D01*
X156717598Y-80829059D01*
X156526420Y-80749870D01*
X156526412Y-80749868D01*
X156323469Y-80709500D01*
X156323465Y-80709500D01*
X156116535Y-80709500D01*
X156116530Y-80709500D01*
X155913587Y-80749868D01*
X155913579Y-80749870D01*
X155722403Y-80829058D01*
X155550342Y-80944024D01*
X155404024Y-81090342D01*
X155289058Y-81262403D01*
X155270191Y-81307953D01*
X155226350Y-81362356D01*
X155160056Y-81384421D01*
X155155630Y-81384500D01*
X145384119Y-81384500D01*
X145317080Y-81364815D01*
X145271325Y-81312011D01*
X145264347Y-81292603D01*
X145262984Y-81287515D01*
X145190509Y-81161985D01*
X145088015Y-81059491D01*
X145088013Y-81059490D01*
X145088011Y-81059488D01*
X144955447Y-80982952D01*
X144957031Y-80980208D01*
X144914244Y-80945746D01*
X144892162Y-80879457D01*
X144909424Y-80811753D01*
X144956136Y-80768241D01*
X144955447Y-80767048D01*
X145055122Y-80709500D01*
X145088015Y-80690509D01*
X145190509Y-80588015D01*
X145262984Y-80462485D01*
X145300500Y-80322475D01*
X145300500Y-80281899D01*
X145320185Y-80214860D01*
X145336819Y-80194218D01*
X145899218Y-79631819D01*
X145960541Y-79598334D01*
X145986899Y-79595500D01*
X155155630Y-79595500D01*
X155222669Y-79615185D01*
X155268424Y-79667989D01*
X155270191Y-79672047D01*
X155281562Y-79699500D01*
X155289059Y-79717598D01*
X155346541Y-79803626D01*
X155404024Y-79889657D01*
X155550342Y-80035975D01*
X155550345Y-80035977D01*
X155722402Y-80150941D01*
X155913580Y-80230130D01*
X156111322Y-80269463D01*
X156116530Y-80270499D01*
X156116534Y-80270500D01*
X156116535Y-80270500D01*
X156323466Y-80270500D01*
X156323467Y-80270499D01*
X156526420Y-80230130D01*
X156717598Y-80150941D01*
X156889655Y-80035977D01*
X157035977Y-79889655D01*
X157150941Y-79717598D01*
X157230130Y-79526420D01*
X157270500Y-79323465D01*
X157270500Y-79116535D01*
X157270499Y-79116530D01*
X172949500Y-79116530D01*
X172949500Y-79323469D01*
X172989868Y-79526412D01*
X172989870Y-79526420D01*
X173061562Y-79699500D01*
X173069059Y-79717598D01*
X173126541Y-79803626D01*
X173184024Y-79889657D01*
X173330342Y-80035975D01*
X173330345Y-80035977D01*
X173502402Y-80150941D01*
X173693580Y-80230130D01*
X173891322Y-80269463D01*
X173896530Y-80270499D01*
X173896534Y-80270500D01*
X173896535Y-80270500D01*
X174103466Y-80270500D01*
X174103467Y-80270499D01*
X174306420Y-80230130D01*
X174497598Y-80150941D01*
X174669655Y-80035977D01*
X174815977Y-79889655D01*
X174930941Y-79717598D01*
X175010130Y-79526420D01*
X175050500Y-79323465D01*
X175050500Y-79116535D01*
X175010130Y-78913580D01*
X174930941Y-78722402D01*
X174815977Y-78550345D01*
X174815975Y-78550342D01*
X174669657Y-78404024D01*
X174583626Y-78346541D01*
X174497598Y-78289059D01*
X174306420Y-78209870D01*
X174306412Y-78209868D01*
X174103469Y-78169500D01*
X174103465Y-78169500D01*
X173896535Y-78169500D01*
X173896530Y-78169500D01*
X173693587Y-78209868D01*
X173693579Y-78209870D01*
X173502403Y-78289058D01*
X173330342Y-78404024D01*
X173184024Y-78550342D01*
X173069058Y-78722403D01*
X172989870Y-78913579D01*
X172989868Y-78913587D01*
X172949500Y-79116530D01*
X157270499Y-79116530D01*
X157230130Y-78913580D01*
X157150941Y-78722402D01*
X157035977Y-78550345D01*
X157035975Y-78550342D01*
X156889657Y-78404024D01*
X156803626Y-78346541D01*
X156717598Y-78289059D01*
X156526420Y-78209870D01*
X156526412Y-78209868D01*
X156323469Y-78169500D01*
X156323465Y-78169500D01*
X156116535Y-78169500D01*
X156116530Y-78169500D01*
X155913587Y-78209868D01*
X155913579Y-78209870D01*
X155722403Y-78289058D01*
X155550342Y-78404024D01*
X155404024Y-78550342D01*
X155289058Y-78722403D01*
X155270191Y-78767953D01*
X155226350Y-78822356D01*
X155160056Y-78844421D01*
X155155630Y-78844500D01*
X145730564Y-78844500D01*
X145682812Y-78857295D01*
X145682811Y-78857294D01*
X145635063Y-78870089D01*
X145635062Y-78870089D01*
X145549435Y-78919527D01*
X144805782Y-79663181D01*
X144744459Y-79696666D01*
X144718101Y-79699500D01*
X144677525Y-79699500D01*
X144548993Y-79733940D01*
X144537511Y-79737017D01*
X144411988Y-79809488D01*
X144411982Y-79809493D01*
X144309493Y-79911982D01*
X144309488Y-79911988D01*
X144237017Y-80037511D01*
X144237016Y-80037515D01*
X144199500Y-80177525D01*
X144199500Y-80177527D01*
X144199500Y-80218101D01*
X144179815Y-80285140D01*
X144163181Y-80305782D01*
X143824526Y-80644436D01*
X143775091Y-80730059D01*
X143775091Y-80730060D01*
X143775090Y-80730062D01*
X143749500Y-80825565D01*
X143749500Y-94364435D01*
X143775090Y-94459938D01*
X143775091Y-94459939D01*
X143775091Y-94459940D01*
X143824526Y-94545563D01*
X148981782Y-99702819D01*
X149015267Y-99764142D01*
X149010283Y-99833834D01*
X148968411Y-99889767D01*
X148902947Y-99914184D01*
X148894101Y-99914500D01*
X146910564Y-99914500D01*
X146862812Y-99927295D01*
X146862811Y-99927294D01*
X146807213Y-99942193D01*
X146807071Y-99941664D01*
X146767680Y-99949500D01*
X146677525Y-99949500D01*
X146548993Y-99983940D01*
X146537511Y-99987017D01*
X146411988Y-100059488D01*
X146411982Y-100059493D01*
X146309493Y-100161982D01*
X146309488Y-100161988D01*
X146237017Y-100287511D01*
X146237016Y-100287515D01*
X146199500Y-100427525D01*
X146199500Y-100572475D01*
X146228120Y-100679284D01*
X146237017Y-100712488D01*
X146309488Y-100838011D01*
X146309490Y-100838013D01*
X146309491Y-100838015D01*
X146411985Y-100940509D01*
X146411986Y-100940510D01*
X146411988Y-100940511D01*
X146537511Y-101012982D01*
X146537512Y-101012982D01*
X146537515Y-101012984D01*
X146677525Y-101050500D01*
X146677528Y-101050500D01*
X146822472Y-101050500D01*
X146822475Y-101050500D01*
X146962485Y-101012984D01*
X147088015Y-100940509D01*
X147190509Y-100838015D01*
X147254316Y-100727499D01*
X147304884Y-100679284D01*
X147361703Y-100665500D01*
X148980220Y-100665500D01*
X149047259Y-100685185D01*
X149090705Y-100733206D01*
X149158766Y-100866786D01*
X149189357Y-100908890D01*
X149260586Y-101006928D01*
X149383072Y-101129414D01*
X149523212Y-101231232D01*
X149677555Y-101309873D01*
X149842299Y-101363402D01*
X150013389Y-101390500D01*
X150013390Y-101390500D01*
X150186610Y-101390500D01*
X150186611Y-101390500D01*
X150357701Y-101363402D01*
X150522445Y-101309873D01*
X150676788Y-101231232D01*
X150816928Y-101129414D01*
X150939414Y-101006928D01*
X151041232Y-100866788D01*
X151119873Y-100712445D01*
X151173402Y-100547701D01*
X151200500Y-100376611D01*
X151200500Y-100203389D01*
X151173402Y-100032299D01*
X151119873Y-99867555D01*
X151041232Y-99713212D01*
X150939414Y-99573072D01*
X150816928Y-99450586D01*
X150676788Y-99348768D01*
X150522445Y-99270127D01*
X150357701Y-99216598D01*
X150357699Y-99216597D01*
X150357698Y-99216597D01*
X150226271Y-99195781D01*
X150186611Y-99189500D01*
X150013389Y-99189500D01*
X149981192Y-99194599D01*
X149842301Y-99216597D01*
X149699713Y-99262927D01*
X149629872Y-99264922D01*
X149573714Y-99232677D01*
X144653192Y-94312155D01*
X148750000Y-94312155D01*
X148750000Y-94960000D01*
X149666988Y-94960000D01*
X149634075Y-95017007D01*
X149600000Y-95144174D01*
X149600000Y-95275826D01*
X149634075Y-95402993D01*
X149666988Y-95460000D01*
X148750000Y-95460000D01*
X148750000Y-96107844D01*
X148756401Y-96167372D01*
X148756403Y-96167379D01*
X148806645Y-96302086D01*
X148806649Y-96302093D01*
X148892809Y-96417187D01*
X148892812Y-96417190D01*
X149007906Y-96503350D01*
X149007913Y-96503354D01*
X149142620Y-96553596D01*
X149142627Y-96553598D01*
X149202155Y-96559999D01*
X149202172Y-96560000D01*
X149494949Y-96560000D01*
X149561988Y-96579685D01*
X149607743Y-96632489D01*
X149617687Y-96701647D01*
X149588662Y-96765203D01*
X149551244Y-96794485D01*
X149523211Y-96808768D01*
X149504040Y-96822697D01*
X149383072Y-96910586D01*
X149383070Y-96910588D01*
X149383069Y-96910588D01*
X149260588Y-97033069D01*
X149260588Y-97033070D01*
X149260586Y-97033072D01*
X149236789Y-97065826D01*
X149158768Y-97173211D01*
X149080128Y-97327552D01*
X149026597Y-97492302D01*
X149000116Y-97659501D01*
X148999500Y-97663389D01*
X148999500Y-97836611D01*
X149026598Y-98007701D01*
X149080127Y-98172445D01*
X149158768Y-98326788D01*
X149260586Y-98466928D01*
X149383072Y-98589414D01*
X149523212Y-98691232D01*
X149677555Y-98769873D01*
X149842299Y-98823402D01*
X150013389Y-98850500D01*
X150013390Y-98850500D01*
X150186610Y-98850500D01*
X150186611Y-98850500D01*
X150357701Y-98823402D01*
X150522445Y-98769873D01*
X150676788Y-98691232D01*
X150816928Y-98589414D01*
X150939414Y-98466928D01*
X151041232Y-98326788D01*
X151119873Y-98172445D01*
X151173402Y-98007701D01*
X151200500Y-97836611D01*
X151200500Y-97663389D01*
X151173402Y-97492299D01*
X151119873Y-97327555D01*
X151041232Y-97173212D01*
X150939414Y-97033072D01*
X150816928Y-96910586D01*
X150676788Y-96808768D01*
X150648756Y-96794485D01*
X150597960Y-96746510D01*
X150581165Y-96678689D01*
X150603703Y-96612554D01*
X150658418Y-96569103D01*
X150705051Y-96560000D01*
X150997828Y-96560000D01*
X150997844Y-96559999D01*
X151057372Y-96553598D01*
X151057379Y-96553596D01*
X151192086Y-96503354D01*
X151192093Y-96503350D01*
X151307187Y-96417190D01*
X151307190Y-96417187D01*
X151393350Y-96302093D01*
X151393354Y-96302086D01*
X151443596Y-96167379D01*
X151443598Y-96167372D01*
X151449999Y-96107844D01*
X151450000Y-96107827D01*
X151450000Y-95460000D01*
X150533012Y-95460000D01*
X150565925Y-95402993D01*
X150600000Y-95275826D01*
X150600000Y-95144174D01*
X150565925Y-95017007D01*
X150533012Y-94960000D01*
X151450000Y-94960000D01*
X151450000Y-94312172D01*
X151449999Y-94312155D01*
X151443598Y-94252627D01*
X151443596Y-94252620D01*
X151393354Y-94117913D01*
X151393350Y-94117906D01*
X151307190Y-94002812D01*
X151307187Y-94002809D01*
X151192093Y-93916649D01*
X151192086Y-93916645D01*
X151057379Y-93866403D01*
X151057372Y-93866401D01*
X150997844Y-93860000D01*
X150350000Y-93860000D01*
X150350000Y-94776988D01*
X150292993Y-94744075D01*
X150165826Y-94710000D01*
X150034174Y-94710000D01*
X149907007Y-94744075D01*
X149850000Y-94776988D01*
X149850000Y-93860000D01*
X149202155Y-93860000D01*
X149142627Y-93866401D01*
X149142620Y-93866403D01*
X149007913Y-93916645D01*
X149007906Y-93916649D01*
X148892812Y-94002809D01*
X148892809Y-94002812D01*
X148806649Y-94117906D01*
X148806645Y-94117913D01*
X148756403Y-94252620D01*
X148756401Y-94252627D01*
X148750000Y-94312155D01*
X144653192Y-94312155D01*
X144536819Y-94195782D01*
X144503334Y-94134459D01*
X144500500Y-94108101D01*
X144500500Y-82164665D01*
X144520185Y-82097626D01*
X144572989Y-82051871D01*
X144636126Y-82041211D01*
X144646506Y-82042188D01*
X144677525Y-82050500D01*
X144734763Y-82050500D01*
X144740561Y-82051046D01*
X144760189Y-82058874D01*
X144790934Y-82067112D01*
X144865063Y-82109911D01*
X144960564Y-82135500D01*
X144960565Y-82135500D01*
X155014100Y-82135500D01*
X155081139Y-82155185D01*
X155126894Y-82207989D01*
X155136838Y-82277147D01*
X155107813Y-82340703D01*
X155101781Y-82347181D01*
X153854438Y-83594525D01*
X153784526Y-83664436D01*
X153735091Y-83750059D01*
X153735091Y-83750060D01*
X153735090Y-83750062D01*
X153709500Y-83845565D01*
X153709500Y-83845567D01*
X153709500Y-98638100D01*
X153689815Y-98705139D01*
X153673181Y-98725781D01*
X150626284Y-101772677D01*
X150564961Y-101806162D01*
X150500286Y-101802927D01*
X150357701Y-101756598D01*
X150357699Y-101756597D01*
X150357698Y-101756597D01*
X150226271Y-101735781D01*
X150186611Y-101729500D01*
X150013389Y-101729500D01*
X149973728Y-101735781D01*
X149842302Y-101756597D01*
X149677552Y-101810128D01*
X149523211Y-101888768D01*
X149443256Y-101946859D01*
X149383072Y-101990586D01*
X149383070Y-101990588D01*
X149383069Y-101990588D01*
X149260588Y-102113069D01*
X149260588Y-102113070D01*
X149260586Y-102113072D01*
X149216859Y-102173256D01*
X149158768Y-102253211D01*
X149080128Y-102407552D01*
X149026597Y-102572302D01*
X148999500Y-102743389D01*
X148999500Y-102916611D01*
X149026598Y-103087701D01*
X149072927Y-103230285D01*
X149074922Y-103300126D01*
X149042677Y-103356284D01*
X140269438Y-112129525D01*
X140199526Y-112199436D01*
X140150091Y-112285059D01*
X140150091Y-112285060D01*
X140150090Y-112285062D01*
X140124500Y-112380565D01*
X140124500Y-112380567D01*
X140124500Y-114043100D01*
X140115855Y-114072540D01*
X140109332Y-114102527D01*
X140105577Y-114107542D01*
X140104815Y-114110139D01*
X140088181Y-114130781D01*
X140055781Y-114163181D01*
X139994458Y-114196666D01*
X139968100Y-114199500D01*
X139927525Y-114199500D01*
X139798993Y-114233940D01*
X139787511Y-114237017D01*
X139661988Y-114309488D01*
X139661982Y-114309493D01*
X139559493Y-114411982D01*
X139559488Y-114411988D01*
X139487017Y-114537511D01*
X139487016Y-114537515D01*
X139449500Y-114677525D01*
X139200000Y-114677525D01*
X139200000Y-112800000D01*
X135200000Y-112800000D01*
X135200000Y-117000000D01*
X132500500Y-117000000D01*
X132500500Y-108878711D01*
X133149500Y-108878711D01*
X133149500Y-109121288D01*
X133181161Y-109361785D01*
X133243947Y-109596104D01*
X133319618Y-109778789D01*
X133336776Y-109820212D01*
X133458064Y-110030289D01*
X133458066Y-110030292D01*
X133458067Y-110030293D01*
X133605733Y-110222736D01*
X133605739Y-110222743D01*
X133777256Y-110394260D01*
X133777262Y-110394265D01*
X133969711Y-110541936D01*
X134179788Y-110663224D01*
X134403900Y-110756054D01*
X134638211Y-110818838D01*
X134818586Y-110842584D01*
X134878711Y-110850500D01*
X134878712Y-110850500D01*
X135121289Y-110850500D01*
X135169388Y-110844167D01*
X135361789Y-110818838D01*
X135596100Y-110756054D01*
X135820212Y-110663224D01*
X136030289Y-110541936D01*
X136222738Y-110394265D01*
X136394265Y-110222738D01*
X136541936Y-110030289D01*
X136663224Y-109820212D01*
X136756054Y-109596100D01*
X136818838Y-109361789D01*
X136850500Y-109121288D01*
X136850500Y-108878712D01*
X136818838Y-108638211D01*
X136756054Y-108403900D01*
X136663224Y-108179788D01*
X136541936Y-107969711D01*
X136434469Y-107829657D01*
X136394266Y-107777263D01*
X136394260Y-107777256D01*
X136222743Y-107605739D01*
X136222736Y-107605733D01*
X136030293Y-107458067D01*
X136030292Y-107458066D01*
X136030289Y-107458064D01*
X135820212Y-107336776D01*
X135820205Y-107336773D01*
X135596104Y-107243947D01*
X135361785Y-107181161D01*
X135121289Y-107149500D01*
X135121288Y-107149500D01*
X134878712Y-107149500D01*
X134878711Y-107149500D01*
X134638214Y-107181161D01*
X134403895Y-107243947D01*
X134179794Y-107336773D01*
X134179785Y-107336777D01*
X133969706Y-107458067D01*
X133777263Y-107605733D01*
X133777256Y-107605739D01*
X133605739Y-107777256D01*
X133605733Y-107777263D01*
X133458067Y-107969706D01*
X133458064Y-107969710D01*
X133458064Y-107969711D01*
X133454446Y-107975977D01*
X133336777Y-108179785D01*
X133336773Y-108179794D01*
X133243947Y-108403895D01*
X133181161Y-108638214D01*
X133149500Y-108878711D01*
X132500500Y-108878711D01*
X132500500Y-91353864D01*
X132504783Y-85821360D01*
X132511939Y-76576530D01*
X155169500Y-76576530D01*
X155169500Y-76783469D01*
X155209868Y-76986412D01*
X155209870Y-76986420D01*
X155289058Y-77177596D01*
X155404024Y-77349657D01*
X155550342Y-77495975D01*
X155550345Y-77495977D01*
X155722402Y-77610941D01*
X155913580Y-77690130D01*
X156116530Y-77730499D01*
X156116534Y-77730500D01*
X156116535Y-77730500D01*
X156323466Y-77730500D01*
X156323467Y-77730499D01*
X156526420Y-77690130D01*
X156717598Y-77610941D01*
X156889655Y-77495977D01*
X157035977Y-77349655D01*
X157150941Y-77177598D01*
X157230130Y-76986420D01*
X157270500Y-76783465D01*
X157270500Y-76576535D01*
X157270499Y-76576530D01*
X172949500Y-76576530D01*
X172949500Y-76783469D01*
X172989868Y-76986412D01*
X172989870Y-76986420D01*
X173069058Y-77177596D01*
X173184024Y-77349657D01*
X173330342Y-77495975D01*
X173330345Y-77495977D01*
X173502402Y-77610941D01*
X173693580Y-77690130D01*
X173896530Y-77730499D01*
X173896534Y-77730500D01*
X173896535Y-77730500D01*
X174103466Y-77730500D01*
X174103467Y-77730499D01*
X174306420Y-77690130D01*
X174497598Y-77610941D01*
X174669655Y-77495977D01*
X174815977Y-77349655D01*
X174930941Y-77177598D01*
X175010130Y-76986420D01*
X175050500Y-76783465D01*
X175050500Y-76576535D01*
X175010130Y-76373580D01*
X174930941Y-76182402D01*
X174815977Y-76010345D01*
X174815975Y-76010342D01*
X174669657Y-75864024D01*
X174583626Y-75806541D01*
X174497598Y-75749059D01*
X174306420Y-75669870D01*
X174306412Y-75669868D01*
X174103469Y-75629500D01*
X174103465Y-75629500D01*
X173896535Y-75629500D01*
X173896530Y-75629500D01*
X173693587Y-75669868D01*
X173693579Y-75669870D01*
X173502403Y-75749058D01*
X173330342Y-75864024D01*
X173184024Y-76010342D01*
X173069058Y-76182403D01*
X172989870Y-76373579D01*
X172989868Y-76373587D01*
X172949500Y-76576530D01*
X157270499Y-76576530D01*
X157230130Y-76373580D01*
X157150941Y-76182402D01*
X157035977Y-76010345D01*
X157035975Y-76010342D01*
X156889657Y-75864024D01*
X156803626Y-75806541D01*
X156717598Y-75749059D01*
X156526420Y-75669870D01*
X156526412Y-75669868D01*
X156323469Y-75629500D01*
X156323465Y-75629500D01*
X156116535Y-75629500D01*
X156116530Y-75629500D01*
X155913587Y-75669868D01*
X155913579Y-75669870D01*
X155722403Y-75749058D01*
X155550342Y-75864024D01*
X155404024Y-76010342D01*
X155289058Y-76182403D01*
X155209870Y-76373579D01*
X155209868Y-76373587D01*
X155169500Y-76576530D01*
X132511939Y-76576530D01*
X132518829Y-67675914D01*
X132538565Y-67608892D01*
X132591405Y-67563178D01*
X132660571Y-67553288D01*
X132724104Y-67582362D01*
X132757390Y-67628559D01*
X132836772Y-67820205D01*
X132836776Y-67820212D01*
X132958064Y-68030289D01*
X132958066Y-68030292D01*
X132958067Y-68030293D01*
X133105733Y-68222736D01*
X133105739Y-68222743D01*
X133277256Y-68394260D01*
X133277262Y-68394265D01*
X133469711Y-68541936D01*
X133679788Y-68663224D01*
X133875269Y-68744195D01*
X133898226Y-68753704D01*
X133903900Y-68756054D01*
X134138211Y-68818838D01*
X134318586Y-68842584D01*
X134378711Y-68850500D01*
X134378712Y-68850500D01*
X134621289Y-68850500D01*
X134669388Y-68844167D01*
X134861789Y-68818838D01*
X135096100Y-68756054D01*
X135320212Y-68663224D01*
X135530289Y-68541936D01*
X135722738Y-68394265D01*
X135894265Y-68222738D01*
X136041936Y-68030289D01*
X136163224Y-67820212D01*
X136169505Y-67805048D01*
X136191816Y-67751186D01*
X136191816Y-67751185D01*
X136256052Y-67596104D01*
X136256054Y-67596100D01*
X136318838Y-67361789D01*
X136350500Y-67121288D01*
X136350500Y-67027155D01*
X146750000Y-67027155D01*
X146750000Y-67350000D01*
X147719670Y-67350000D01*
X147699925Y-67369745D01*
X147650556Y-67455255D01*
X147625000Y-67550630D01*
X147625000Y-67649370D01*
X147650556Y-67744745D01*
X147699925Y-67830255D01*
X147719670Y-67850000D01*
X146750000Y-67850000D01*
X146750000Y-68172844D01*
X146756401Y-68232372D01*
X146756403Y-68232379D01*
X146806645Y-68367086D01*
X146806649Y-68367093D01*
X146892809Y-68482186D01*
X146977041Y-68545243D01*
X147018912Y-68601177D01*
X147024347Y-68668701D01*
X146999500Y-68793615D01*
X146999500Y-68946384D01*
X147029300Y-69096197D01*
X147029302Y-69096205D01*
X147087759Y-69237334D01*
X147087764Y-69237343D01*
X147172629Y-69364351D01*
X147172632Y-69364355D01*
X147225596Y-69417319D01*
X147259081Y-69478642D01*
X147254097Y-69548334D01*
X147225596Y-69592681D01*
X147172632Y-69645644D01*
X147172629Y-69645648D01*
X147087764Y-69772656D01*
X147087759Y-69772665D01*
X147029302Y-69913794D01*
X147029300Y-69913802D01*
X146999500Y-70063615D01*
X146999500Y-70216384D01*
X147029300Y-70366197D01*
X147029302Y-70366205D01*
X147087759Y-70507334D01*
X147087764Y-70507343D01*
X147172629Y-70634351D01*
X147172632Y-70634355D01*
X147280644Y-70742367D01*
X147280648Y-70742370D01*
X147407656Y-70827235D01*
X147407662Y-70827238D01*
X147407663Y-70827239D01*
X147548795Y-70885698D01*
X147698615Y-70915499D01*
X147698619Y-70915500D01*
X147698620Y-70915500D01*
X148301381Y-70915500D01*
X148301382Y-70915499D01*
X148451205Y-70885698D01*
X148592337Y-70827239D01*
X148719352Y-70742370D01*
X148827370Y-70634352D01*
X148912239Y-70507337D01*
X148970698Y-70366205D01*
X149000500Y-70216380D01*
X149000500Y-70150899D01*
X149020185Y-70083860D01*
X149072989Y-70038105D01*
X149142147Y-70028161D01*
X149205703Y-70057186D01*
X149212174Y-70063212D01*
X149634437Y-70485475D01*
X149672304Y-70507337D01*
X149720062Y-70534910D01*
X149734330Y-70538733D01*
X149815564Y-70560500D01*
X149815565Y-70560500D01*
X155120852Y-70560500D01*
X155187891Y-70580185D01*
X155233646Y-70632989D01*
X155243590Y-70702147D01*
X155216705Y-70763165D01*
X155178708Y-70809463D01*
X155178704Y-70809469D01*
X155091167Y-70940478D01*
X155091155Y-70940498D01*
X155044490Y-71027801D01*
X154984185Y-71173387D01*
X154955444Y-71268135D01*
X154924701Y-71422697D01*
X154924701Y-71422700D01*
X154915000Y-71521210D01*
X154915000Y-71678789D01*
X154924701Y-71777299D01*
X154924701Y-71777302D01*
X154955444Y-71931864D01*
X154984185Y-72026612D01*
X155044490Y-72172198D01*
X155091158Y-72259506D01*
X155137533Y-72328912D01*
X155137533Y-72328913D01*
X155737037Y-71729409D01*
X155754075Y-71792993D01*
X155819901Y-71907007D01*
X155912993Y-72000099D01*
X156027007Y-72065925D01*
X156090590Y-72082962D01*
X155491085Y-72682465D01*
X155560493Y-72728841D01*
X155647801Y-72775509D01*
X155793387Y-72835814D01*
X155888135Y-72864555D01*
X155956359Y-72878125D01*
X156018271Y-72910510D01*
X156052845Y-72971226D01*
X156049106Y-73040995D01*
X156008240Y-73097667D01*
X155956360Y-73121360D01*
X155913587Y-73129868D01*
X155913579Y-73129870D01*
X155722403Y-73209058D01*
X155550342Y-73324024D01*
X155404024Y-73470342D01*
X155289058Y-73642403D01*
X155209870Y-73833579D01*
X155209868Y-73833587D01*
X155169500Y-74036530D01*
X155169500Y-74243469D01*
X155209868Y-74446412D01*
X155209870Y-74446420D01*
X155289058Y-74637596D01*
X155404024Y-74809657D01*
X155550342Y-74955975D01*
X155550345Y-74955977D01*
X155722402Y-75070941D01*
X155913580Y-75150130D01*
X156116530Y-75190499D01*
X156116534Y-75190500D01*
X156116535Y-75190500D01*
X156323466Y-75190500D01*
X156323467Y-75190499D01*
X156526420Y-75150130D01*
X156717598Y-75070941D01*
X156889655Y-74955977D01*
X157035977Y-74809655D01*
X157150941Y-74637598D01*
X157230130Y-74446420D01*
X157270500Y-74243465D01*
X157270500Y-74036535D01*
X157230130Y-73833580D01*
X157150941Y-73642402D01*
X157035977Y-73470345D01*
X157035975Y-73470342D01*
X156889657Y-73324024D01*
X156803626Y-73266541D01*
X156717598Y-73209059D01*
X156559471Y-73143560D01*
X156505069Y-73099720D01*
X156483004Y-73033426D01*
X156500283Y-72965727D01*
X156551420Y-72918116D01*
X156606925Y-72905000D01*
X156859786Y-72905000D01*
X156913762Y-72902106D01*
X156913764Y-72902106D01*
X157053023Y-72866563D01*
X157053035Y-72866559D01*
X157109582Y-72843135D01*
X156349409Y-72082962D01*
X156412993Y-72065925D01*
X156527007Y-72000099D01*
X156620099Y-71907007D01*
X156685925Y-71792993D01*
X156702962Y-71729409D01*
X157463135Y-72489582D01*
X157463137Y-72489582D01*
X157486552Y-72433053D01*
X157504544Y-72382053D01*
X157524999Y-72239780D01*
X157525000Y-72239779D01*
X157525000Y-71479500D01*
X157544685Y-71412461D01*
X157597489Y-71366706D01*
X157649000Y-71355500D01*
X169589435Y-71355500D01*
X169589436Y-71355500D01*
X169637186Y-71342705D01*
X169684938Y-71329910D01*
X169770562Y-71280475D01*
X169840475Y-71210562D01*
X170090818Y-70960219D01*
X172695000Y-70960219D01*
X172695000Y-72239785D01*
X172697893Y-72293762D01*
X172697893Y-72293764D01*
X172733438Y-72433030D01*
X172733440Y-72433037D01*
X172756863Y-72489583D01*
X173517037Y-71729409D01*
X173534075Y-71792993D01*
X173599901Y-71907007D01*
X173692993Y-72000099D01*
X173807007Y-72065925D01*
X173870590Y-72082962D01*
X173110415Y-72843135D01*
X173110415Y-72843136D01*
X173166946Y-72866552D01*
X173217946Y-72884544D01*
X173360219Y-72904999D01*
X173360221Y-72905000D01*
X173613075Y-72905000D01*
X173680114Y-72924685D01*
X173725869Y-72977489D01*
X173735813Y-73046647D01*
X173706788Y-73110203D01*
X173660529Y-73143560D01*
X173603501Y-73167182D01*
X173502403Y-73209058D01*
X173330342Y-73324024D01*
X173184024Y-73470342D01*
X173069058Y-73642403D01*
X172989870Y-73833579D01*
X172989868Y-73833587D01*
X172949500Y-74036530D01*
X172949500Y-74243469D01*
X172989868Y-74446412D01*
X172989870Y-74446420D01*
X173069058Y-74637596D01*
X173184024Y-74809657D01*
X173330342Y-74955975D01*
X173330345Y-74955977D01*
X173502402Y-75070941D01*
X173693580Y-75150130D01*
X173896530Y-75190499D01*
X173896534Y-75190500D01*
X173896535Y-75190500D01*
X174103466Y-75190500D01*
X174103467Y-75190499D01*
X174306420Y-75150130D01*
X174497598Y-75070941D01*
X174669655Y-74955977D01*
X174815977Y-74809655D01*
X174930941Y-74637598D01*
X175010130Y-74446420D01*
X175050500Y-74243465D01*
X175050500Y-74036535D01*
X175010130Y-73833580D01*
X174930941Y-73642402D01*
X174815977Y-73470345D01*
X174815975Y-73470342D01*
X174669657Y-73324024D01*
X174583626Y-73266541D01*
X174497598Y-73209059D01*
X174306420Y-73129870D01*
X174306412Y-73129868D01*
X174263639Y-73121360D01*
X174201728Y-73088976D01*
X174167154Y-73028260D01*
X174170893Y-72958490D01*
X174211759Y-72901818D01*
X174263640Y-72878125D01*
X174331864Y-72864554D01*
X174426612Y-72835814D01*
X174572198Y-72775509D01*
X174659501Y-72728844D01*
X174659511Y-72728838D01*
X174728912Y-72682465D01*
X174129409Y-72082962D01*
X174192993Y-72065925D01*
X174307007Y-72000099D01*
X174400099Y-71907007D01*
X174465925Y-71792993D01*
X174482962Y-71729409D01*
X175082465Y-72328912D01*
X175128838Y-72259511D01*
X175128844Y-72259501D01*
X175175509Y-72172198D01*
X175235814Y-72026612D01*
X175264555Y-71931864D01*
X175295298Y-71777302D01*
X175295298Y-71777299D01*
X175305000Y-71678789D01*
X175305000Y-71521210D01*
X175295298Y-71422700D01*
X175295298Y-71422697D01*
X175264555Y-71268135D01*
X175235814Y-71173387D01*
X175175509Y-71027801D01*
X175128841Y-70940493D01*
X175082465Y-70871086D01*
X175082465Y-70871085D01*
X174482962Y-71470589D01*
X174465925Y-71407007D01*
X174400099Y-71292993D01*
X174307007Y-71199901D01*
X174192993Y-71134075D01*
X174129410Y-71117037D01*
X174728913Y-70517534D01*
X174728912Y-70517533D01*
X174659506Y-70471158D01*
X174572198Y-70424490D01*
X174426612Y-70364185D01*
X174331862Y-70335444D01*
X174331854Y-70335442D01*
X174263638Y-70321873D01*
X174201727Y-70289488D01*
X174167153Y-70228772D01*
X174170893Y-70159003D01*
X174211760Y-70102331D01*
X174263638Y-70078639D01*
X174306420Y-70070130D01*
X174497598Y-69990941D01*
X174669655Y-69875977D01*
X174815977Y-69729655D01*
X174930941Y-69557598D01*
X175010130Y-69366420D01*
X175050500Y-69163465D01*
X175050500Y-68956535D01*
X175010130Y-68753580D01*
X174930941Y-68562402D01*
X174815977Y-68390345D01*
X174815975Y-68390342D01*
X174669657Y-68244024D01*
X174563102Y-68172827D01*
X174497598Y-68129059D01*
X174306420Y-68049870D01*
X174306412Y-68049868D01*
X174103469Y-68009500D01*
X174103465Y-68009500D01*
X173896535Y-68009500D01*
X173896530Y-68009500D01*
X173693587Y-68049868D01*
X173693579Y-68049870D01*
X173502403Y-68129058D01*
X173330342Y-68244024D01*
X173184024Y-68390342D01*
X173069058Y-68562403D01*
X172989870Y-68753579D01*
X172989868Y-68753587D01*
X172949500Y-68956530D01*
X172949500Y-69163469D01*
X172989459Y-69364355D01*
X172989870Y-69366420D01*
X173069059Y-69557598D01*
X173092501Y-69592681D01*
X173184024Y-69729657D01*
X173330342Y-69875975D01*
X173330345Y-69875977D01*
X173502402Y-69990941D01*
X173660528Y-70056439D01*
X173714931Y-70100280D01*
X173736996Y-70166574D01*
X173719717Y-70234273D01*
X173668580Y-70281884D01*
X173613075Y-70295000D01*
X173360214Y-70295000D01*
X173306237Y-70297893D01*
X173306235Y-70297893D01*
X173166969Y-70333438D01*
X173166956Y-70333442D01*
X173110415Y-70356862D01*
X173870590Y-71117037D01*
X173807007Y-71134075D01*
X173692993Y-71199901D01*
X173599901Y-71292993D01*
X173534075Y-71407007D01*
X173517037Y-71470590D01*
X172756862Y-70710415D01*
X172733449Y-70766940D01*
X172715455Y-70817946D01*
X172695000Y-70960219D01*
X170090818Y-70960219D01*
X173512896Y-67538139D01*
X173574217Y-67504656D01*
X173643909Y-67509640D01*
X173647972Y-67511238D01*
X173693580Y-67530130D01*
X173859725Y-67563178D01*
X173896530Y-67570499D01*
X173896534Y-67570500D01*
X173896535Y-67570500D01*
X174103466Y-67570500D01*
X174103467Y-67570499D01*
X174306420Y-67530130D01*
X174497598Y-67450941D01*
X174669655Y-67335977D01*
X174815977Y-67189655D01*
X174930941Y-67017598D01*
X175010130Y-66826420D01*
X175050500Y-66623465D01*
X175050500Y-66416535D01*
X175010130Y-66213580D01*
X174930941Y-66022402D01*
X174815977Y-65850345D01*
X174815975Y-65850342D01*
X174669657Y-65704024D01*
X174543740Y-65619890D01*
X174497598Y-65589059D01*
X174306420Y-65509870D01*
X174306412Y-65509868D01*
X174103469Y-65469500D01*
X174103465Y-65469500D01*
X173896535Y-65469500D01*
X173896530Y-65469500D01*
X173693587Y-65509868D01*
X173693579Y-65509870D01*
X173502403Y-65589058D01*
X173330342Y-65704024D01*
X173184024Y-65850342D01*
X173069058Y-66022403D01*
X172989870Y-66213579D01*
X172989868Y-66213587D01*
X172949500Y-66416530D01*
X172949500Y-66623469D01*
X172989867Y-66826412D01*
X172989869Y-66826416D01*
X172989870Y-66826420D01*
X173008327Y-66870980D01*
X173008738Y-66871972D01*
X173016205Y-66941442D01*
X172984929Y-67003920D01*
X172981857Y-67007104D01*
X169420782Y-70568181D01*
X169359459Y-70601666D01*
X169333101Y-70604500D01*
X168559673Y-70604500D01*
X168492634Y-70584815D01*
X168446879Y-70532011D01*
X168436935Y-70462853D01*
X168459355Y-70407614D01*
X168540378Y-70296096D01*
X168624379Y-70131235D01*
X168681555Y-69955264D01*
X168710500Y-69772514D01*
X168710500Y-69587486D01*
X168681555Y-69404736D01*
X168627166Y-69237343D01*
X168624380Y-69228767D01*
X168624379Y-69228764D01*
X168540377Y-69063903D01*
X168431621Y-68914213D01*
X168300787Y-68783379D01*
X168151096Y-68674622D01*
X167986235Y-68590620D01*
X167986232Y-68590619D01*
X167810265Y-68533445D01*
X167718889Y-68518972D01*
X167627514Y-68504500D01*
X167442486Y-68504500D01*
X167381569Y-68514148D01*
X167259734Y-68533445D01*
X167083767Y-68590619D01*
X167083764Y-68590620D01*
X166918903Y-68674622D01*
X166833499Y-68736672D01*
X166769213Y-68783379D01*
X166769211Y-68783381D01*
X166769210Y-68783381D01*
X166638381Y-68914210D01*
X166638381Y-68914211D01*
X166638379Y-68914213D01*
X166607634Y-68956530D01*
X166529622Y-69063903D01*
X166445620Y-69228764D01*
X166445619Y-69228767D01*
X166388445Y-69404734D01*
X166367396Y-69537630D01*
X166359500Y-69587486D01*
X166359500Y-69772514D01*
X166359524Y-69772663D01*
X166388445Y-69955265D01*
X166445619Y-70131232D01*
X166445620Y-70131235D01*
X166522381Y-70281884D01*
X166529622Y-70296096D01*
X166580553Y-70366197D01*
X166610645Y-70407614D01*
X166634125Y-70473421D01*
X166618300Y-70541475D01*
X166568194Y-70590170D01*
X166510327Y-70604500D01*
X163709673Y-70604500D01*
X163642634Y-70584815D01*
X163596879Y-70532011D01*
X163586935Y-70462853D01*
X163609355Y-70407614D01*
X163690378Y-70296096D01*
X163774379Y-70131235D01*
X163831555Y-69955264D01*
X163860500Y-69772514D01*
X163860500Y-69587486D01*
X163831555Y-69404736D01*
X163777166Y-69237343D01*
X163774380Y-69228767D01*
X163774379Y-69228764D01*
X163690377Y-69063903D01*
X163581621Y-68914213D01*
X163450787Y-68783379D01*
X163301096Y-68674622D01*
X163136235Y-68590620D01*
X163136232Y-68590619D01*
X162960265Y-68533445D01*
X162868889Y-68518972D01*
X162777514Y-68504500D01*
X162592486Y-68504500D01*
X162531569Y-68514148D01*
X162409734Y-68533445D01*
X162233767Y-68590619D01*
X162233764Y-68590620D01*
X162068903Y-68674622D01*
X161983499Y-68736672D01*
X161919213Y-68783379D01*
X161919211Y-68783381D01*
X161919210Y-68783381D01*
X161788381Y-68914210D01*
X161788381Y-68914211D01*
X161788379Y-68914213D01*
X161757634Y-68956530D01*
X161679622Y-69063903D01*
X161595620Y-69228764D01*
X161595619Y-69228767D01*
X161538445Y-69404734D01*
X161517396Y-69537630D01*
X161509500Y-69587486D01*
X161509500Y-69772514D01*
X161509524Y-69772663D01*
X161538445Y-69955265D01*
X161595619Y-70131232D01*
X161595620Y-70131235D01*
X161672381Y-70281884D01*
X161679622Y-70296096D01*
X161730553Y-70366197D01*
X161760645Y-70407614D01*
X161784125Y-70473421D01*
X161768300Y-70541475D01*
X161718194Y-70590170D01*
X161660327Y-70604500D01*
X157756434Y-70604500D01*
X157689395Y-70584815D01*
X157668753Y-70568181D01*
X157020782Y-69920211D01*
X156987297Y-69858888D01*
X156992281Y-69789197D01*
X157020782Y-69744849D01*
X157035977Y-69729655D01*
X157150941Y-69557598D01*
X157230130Y-69366420D01*
X157270500Y-69163465D01*
X157270500Y-68956535D01*
X157230130Y-68753580D01*
X157150941Y-68562402D01*
X157035977Y-68390345D01*
X157035975Y-68390342D01*
X156889657Y-68244024D01*
X156783102Y-68172827D01*
X156717598Y-68129059D01*
X156526420Y-68049870D01*
X156526412Y-68049868D01*
X156323469Y-68009500D01*
X156323465Y-68009500D01*
X156116535Y-68009500D01*
X156116530Y-68009500D01*
X155913587Y-68049868D01*
X155913579Y-68049870D01*
X155722403Y-68129058D01*
X155550342Y-68244024D01*
X155404024Y-68390342D01*
X155289058Y-68562403D01*
X155209870Y-68753579D01*
X155209868Y-68753587D01*
X155169500Y-68956530D01*
X155169500Y-69163469D01*
X155209868Y-69366412D01*
X155209870Y-69366420D01*
X155289058Y-69557596D01*
X155328489Y-69616610D01*
X155349366Y-69683288D01*
X155330881Y-69750668D01*
X155278901Y-69797357D01*
X155225386Y-69809500D01*
X150071900Y-69809500D01*
X150004861Y-69789815D01*
X149984219Y-69773181D01*
X149026064Y-68815027D01*
X149017000Y-68798427D01*
X149003869Y-68784819D01*
X148993462Y-68755322D01*
X148992579Y-68753704D01*
X148992159Y-68751692D01*
X148975651Y-68668697D01*
X148981880Y-68599108D01*
X149022958Y-68545243D01*
X149107191Y-68482186D01*
X149193350Y-68367093D01*
X149193354Y-68367086D01*
X149243596Y-68232379D01*
X149243598Y-68232372D01*
X149249999Y-68172844D01*
X149250000Y-68172827D01*
X149250000Y-67850000D01*
X148280330Y-67850000D01*
X148300075Y-67830255D01*
X148349444Y-67744745D01*
X148375000Y-67649370D01*
X148375000Y-67550630D01*
X148349444Y-67455255D01*
X148300075Y-67369745D01*
X148280330Y-67350000D01*
X149250000Y-67350000D01*
X149250000Y-67027172D01*
X149249999Y-67027155D01*
X149243598Y-66967627D01*
X149243596Y-66967620D01*
X149193354Y-66832913D01*
X149193350Y-66832906D01*
X149107190Y-66717812D01*
X149107187Y-66717809D01*
X148992093Y-66631649D01*
X148992086Y-66631645D01*
X148857379Y-66581403D01*
X148857372Y-66581401D01*
X148797844Y-66575000D01*
X148250000Y-66575000D01*
X148250000Y-67319670D01*
X148230255Y-67299925D01*
X148144745Y-67250556D01*
X148049370Y-67225000D01*
X147950630Y-67225000D01*
X147855255Y-67250556D01*
X147769745Y-67299925D01*
X147750000Y-67319670D01*
X147750000Y-66575000D01*
X147202155Y-66575000D01*
X147142627Y-66581401D01*
X147142620Y-66581403D01*
X147007913Y-66631645D01*
X147007906Y-66631649D01*
X146892812Y-66717809D01*
X146892809Y-66717812D01*
X146806649Y-66832906D01*
X146806645Y-66832913D01*
X146756403Y-66967620D01*
X146756401Y-66967627D01*
X146750000Y-67027155D01*
X136350500Y-67027155D01*
X136350500Y-66878712D01*
X136318838Y-66638211D01*
X136256054Y-66403900D01*
X136163224Y-66179788D01*
X136041936Y-65969711D01*
X135962148Y-65865730D01*
X155169500Y-65865730D01*
X155169500Y-67174269D01*
X155172353Y-67204699D01*
X155172353Y-67204701D01*
X155217206Y-67332880D01*
X155217207Y-67332882D01*
X155297850Y-67442150D01*
X155407118Y-67522793D01*
X155428089Y-67530131D01*
X155535299Y-67567646D01*
X155565730Y-67570500D01*
X155565734Y-67570500D01*
X156874270Y-67570500D01*
X156904699Y-67567646D01*
X156904701Y-67567646D01*
X156968790Y-67545219D01*
X157032882Y-67522793D01*
X157142150Y-67442150D01*
X157222793Y-67332882D01*
X157251600Y-67250556D01*
X157267646Y-67204701D01*
X157267646Y-67204699D01*
X157270500Y-67174269D01*
X157270500Y-66543713D01*
X161034500Y-66543713D01*
X161034500Y-66756286D01*
X161064946Y-66948518D01*
X161067754Y-66966243D01*
X161118131Y-67121288D01*
X161133444Y-67168414D01*
X161229951Y-67357820D01*
X161354890Y-67529786D01*
X161505213Y-67680109D01*
X161677179Y-67805048D01*
X161677181Y-67805049D01*
X161677184Y-67805051D01*
X161866588Y-67901557D01*
X162068757Y-67967246D01*
X162278713Y-68000500D01*
X162278714Y-68000500D01*
X162491286Y-68000500D01*
X162491287Y-68000500D01*
X162701243Y-67967246D01*
X162903412Y-67901557D01*
X163092816Y-67805051D01*
X163114789Y-67789086D01*
X163264786Y-67680109D01*
X163264788Y-67680106D01*
X163264792Y-67680104D01*
X163415104Y-67529792D01*
X163415106Y-67529788D01*
X163415109Y-67529786D01*
X163540048Y-67357820D01*
X163540047Y-67357820D01*
X163540051Y-67357816D01*
X163636557Y-67168412D01*
X163702246Y-66966243D01*
X163735500Y-66756287D01*
X163735500Y-66543713D01*
X166484500Y-66543713D01*
X166484500Y-66756286D01*
X166514946Y-66948518D01*
X166517754Y-66966243D01*
X166568131Y-67121288D01*
X166583444Y-67168414D01*
X166679951Y-67357820D01*
X166804890Y-67529786D01*
X166955213Y-67680109D01*
X167127179Y-67805048D01*
X167127181Y-67805049D01*
X167127184Y-67805051D01*
X167316588Y-67901557D01*
X167518757Y-67967246D01*
X167728713Y-68000500D01*
X167728714Y-68000500D01*
X167941286Y-68000500D01*
X167941287Y-68000500D01*
X168151243Y-67967246D01*
X168353412Y-67901557D01*
X168542816Y-67805051D01*
X168564789Y-67789086D01*
X168714786Y-67680109D01*
X168714788Y-67680106D01*
X168714792Y-67680104D01*
X168865104Y-67529792D01*
X168865106Y-67529788D01*
X168865109Y-67529786D01*
X168990048Y-67357820D01*
X168990047Y-67357820D01*
X168990051Y-67357816D01*
X169086557Y-67168412D01*
X169152246Y-66966243D01*
X169185500Y-66756287D01*
X169185500Y-66543713D01*
X169152246Y-66333757D01*
X169086557Y-66131588D01*
X168990051Y-65942184D01*
X168990049Y-65942181D01*
X168990048Y-65942179D01*
X168865109Y-65770213D01*
X168714786Y-65619890D01*
X168542820Y-65494951D01*
X168353414Y-65398444D01*
X168353413Y-65398443D01*
X168353412Y-65398443D01*
X168151243Y-65332754D01*
X168151241Y-65332753D01*
X168151240Y-65332753D01*
X167989957Y-65307208D01*
X167941287Y-65299500D01*
X167728713Y-65299500D01*
X167680042Y-65307208D01*
X167518760Y-65332753D01*
X167316585Y-65398444D01*
X167127179Y-65494951D01*
X166955213Y-65619890D01*
X166804890Y-65770213D01*
X166679951Y-65942179D01*
X166583444Y-66131585D01*
X166517753Y-66333760D01*
X166484500Y-66543713D01*
X163735500Y-66543713D01*
X163702246Y-66333757D01*
X163636557Y-66131588D01*
X163540051Y-65942184D01*
X163540049Y-65942181D01*
X163540048Y-65942179D01*
X163415109Y-65770213D01*
X163264786Y-65619890D01*
X163092820Y-65494951D01*
X162903414Y-65398444D01*
X162903413Y-65398443D01*
X162903412Y-65398443D01*
X162701243Y-65332754D01*
X162701241Y-65332753D01*
X162701240Y-65332753D01*
X162539957Y-65307208D01*
X162491287Y-65299500D01*
X162278713Y-65299500D01*
X162230042Y-65307208D01*
X162068760Y-65332753D01*
X161866585Y-65398444D01*
X161677179Y-65494951D01*
X161505213Y-65619890D01*
X161354890Y-65770213D01*
X161229951Y-65942179D01*
X161133444Y-66131585D01*
X161067753Y-66333760D01*
X161034500Y-66543713D01*
X157270500Y-66543713D01*
X157270500Y-65865730D01*
X157267646Y-65835300D01*
X157267646Y-65835298D01*
X157222793Y-65707119D01*
X157222792Y-65707117D01*
X157142150Y-65597850D01*
X157032882Y-65517207D01*
X157032880Y-65517206D01*
X156904700Y-65472353D01*
X156874270Y-65469500D01*
X156874266Y-65469500D01*
X155565734Y-65469500D01*
X155565730Y-65469500D01*
X155535300Y-65472353D01*
X155535298Y-65472353D01*
X155407119Y-65517206D01*
X155407117Y-65517207D01*
X155297850Y-65597850D01*
X155217207Y-65707117D01*
X155217206Y-65707119D01*
X155172353Y-65835298D01*
X155172353Y-65835300D01*
X155169500Y-65865730D01*
X135962148Y-65865730D01*
X135950343Y-65850345D01*
X135894266Y-65777263D01*
X135894260Y-65777256D01*
X135722743Y-65605739D01*
X135722736Y-65605733D01*
X135530293Y-65458067D01*
X135530292Y-65458066D01*
X135530289Y-65458064D01*
X135320212Y-65336776D01*
X135230220Y-65299500D01*
X135096104Y-65243947D01*
X134861785Y-65181161D01*
X134621289Y-65149500D01*
X134621288Y-65149500D01*
X134378712Y-65149500D01*
X134378711Y-65149500D01*
X134138214Y-65181161D01*
X133903895Y-65243947D01*
X133679794Y-65336773D01*
X133679785Y-65336777D01*
X133469706Y-65458067D01*
X133277263Y-65605733D01*
X133277256Y-65605739D01*
X133105739Y-65777256D01*
X133105733Y-65777263D01*
X132958067Y-65969706D01*
X132836777Y-66179785D01*
X132836772Y-66179794D01*
X132758439Y-66368909D01*
X132714598Y-66423312D01*
X132648304Y-66445377D01*
X132580604Y-66428098D01*
X132532994Y-66376960D01*
X132519878Y-66321360D01*
X132519962Y-66213587D01*
X132521037Y-64824404D01*
X132540773Y-64757380D01*
X132593613Y-64711666D01*
X132645037Y-64700500D01*
X182875500Y-64700500D01*
X182942539Y-64720185D01*
G37*
%TD.AperFunction*%
%TD*%
M02*
