%TF.GenerationSoftware,KiCad,Pcbnew,10.0.3*%
%TF.CreationDate,2026-06-09T20:37:01-04:00*%
%TF.ProjectId,I2C_PP,4932435f-5050-42e6-9b69-6361645f7063,rev?*%
%TF.SameCoordinates,Original*%
%TF.FileFunction,Legend,Top*%
%TF.FilePolarity,Positive*%
%FSLAX46Y46*%
G04 Gerber Fmt 4.6, Leading zero omitted, Abs format (unit mm)*
G04 Created by KiCad (PCBNEW 10.0.3) date 2026-06-09 20:37:01*
%MOMM*%
%LPD*%
G01*
G04 APERTURE LIST*
%ADD10C,0.150000*%
%ADD11C,0.120000*%
%ADD12C,0.127000*%
%ADD13C,0.200000*%
G04 APERTURE END LIST*
D10*
X133666666Y-105304819D02*
X133333333Y-104828628D01*
X133095238Y-105304819D02*
X133095238Y-104304819D01*
X133095238Y-104304819D02*
X133476190Y-104304819D01*
X133476190Y-104304819D02*
X133571428Y-104352438D01*
X133571428Y-104352438D02*
X133619047Y-104400057D01*
X133619047Y-104400057D02*
X133666666Y-104495295D01*
X133666666Y-104495295D02*
X133666666Y-104638152D01*
X133666666Y-104638152D02*
X133619047Y-104733390D01*
X133619047Y-104733390D02*
X133571428Y-104781009D01*
X133571428Y-104781009D02*
X133476190Y-104828628D01*
X133476190Y-104828628D02*
X133095238Y-104828628D01*
X134095238Y-104781009D02*
X134428571Y-104781009D01*
X134571428Y-105304819D02*
X134095238Y-105304819D01*
X134095238Y-105304819D02*
X134095238Y-104304819D01*
X134095238Y-104304819D02*
X134571428Y-104304819D01*
X135333333Y-104781009D02*
X135000000Y-104781009D01*
X135000000Y-105304819D02*
X135000000Y-104304819D01*
X135000000Y-104304819D02*
X135476190Y-104304819D01*
X136000000Y-104304819D02*
X136000000Y-104542914D01*
X135761905Y-104447676D02*
X136000000Y-104542914D01*
X136000000Y-104542914D02*
X136238095Y-104447676D01*
X135857143Y-104733390D02*
X136000000Y-104542914D01*
X136000000Y-104542914D02*
X136142857Y-104733390D01*
X136761905Y-104304819D02*
X136761905Y-104542914D01*
X136523810Y-104447676D02*
X136761905Y-104542914D01*
X136761905Y-104542914D02*
X137000000Y-104447676D01*
X136619048Y-104733390D02*
X136761905Y-104542914D01*
X136761905Y-104542914D02*
X136904762Y-104733390D01*
X179666666Y-113804819D02*
X179333333Y-113328628D01*
X179095238Y-113804819D02*
X179095238Y-112804819D01*
X179095238Y-112804819D02*
X179476190Y-112804819D01*
X179476190Y-112804819D02*
X179571428Y-112852438D01*
X179571428Y-112852438D02*
X179619047Y-112900057D01*
X179619047Y-112900057D02*
X179666666Y-112995295D01*
X179666666Y-112995295D02*
X179666666Y-113138152D01*
X179666666Y-113138152D02*
X179619047Y-113233390D01*
X179619047Y-113233390D02*
X179571428Y-113281009D01*
X179571428Y-113281009D02*
X179476190Y-113328628D01*
X179476190Y-113328628D02*
X179095238Y-113328628D01*
X180095238Y-113281009D02*
X180428571Y-113281009D01*
X180571428Y-113804819D02*
X180095238Y-113804819D01*
X180095238Y-113804819D02*
X180095238Y-112804819D01*
X180095238Y-112804819D02*
X180571428Y-112804819D01*
X181333333Y-113281009D02*
X181000000Y-113281009D01*
X181000000Y-113804819D02*
X181000000Y-112804819D01*
X181000000Y-112804819D02*
X181476190Y-112804819D01*
X182000000Y-112804819D02*
X182000000Y-113042914D01*
X181761905Y-112947676D02*
X182000000Y-113042914D01*
X182000000Y-113042914D02*
X182238095Y-112947676D01*
X181857143Y-113233390D02*
X182000000Y-113042914D01*
X182000000Y-113042914D02*
X182142857Y-113233390D01*
X182761905Y-112804819D02*
X182761905Y-113042914D01*
X182523810Y-112947676D02*
X182761905Y-113042914D01*
X182761905Y-113042914D02*
X183000000Y-112947676D01*
X182619048Y-113233390D02*
X182761905Y-113042914D01*
X182761905Y-113042914D02*
X182904762Y-113233390D01*
X179666666Y-63304819D02*
X179333333Y-62828628D01*
X179095238Y-63304819D02*
X179095238Y-62304819D01*
X179095238Y-62304819D02*
X179476190Y-62304819D01*
X179476190Y-62304819D02*
X179571428Y-62352438D01*
X179571428Y-62352438D02*
X179619047Y-62400057D01*
X179619047Y-62400057D02*
X179666666Y-62495295D01*
X179666666Y-62495295D02*
X179666666Y-62638152D01*
X179666666Y-62638152D02*
X179619047Y-62733390D01*
X179619047Y-62733390D02*
X179571428Y-62781009D01*
X179571428Y-62781009D02*
X179476190Y-62828628D01*
X179476190Y-62828628D02*
X179095238Y-62828628D01*
X180095238Y-62781009D02*
X180428571Y-62781009D01*
X180571428Y-63304819D02*
X180095238Y-63304819D01*
X180095238Y-63304819D02*
X180095238Y-62304819D01*
X180095238Y-62304819D02*
X180571428Y-62304819D01*
X181333333Y-62781009D02*
X181000000Y-62781009D01*
X181000000Y-63304819D02*
X181000000Y-62304819D01*
X181000000Y-62304819D02*
X181476190Y-62304819D01*
X182000000Y-62304819D02*
X182000000Y-62542914D01*
X181761905Y-62447676D02*
X182000000Y-62542914D01*
X182000000Y-62542914D02*
X182238095Y-62447676D01*
X181857143Y-62733390D02*
X182000000Y-62542914D01*
X182000000Y-62542914D02*
X182142857Y-62733390D01*
X182761905Y-62304819D02*
X182761905Y-62542914D01*
X182523810Y-62447676D02*
X182761905Y-62542914D01*
X182761905Y-62542914D02*
X183000000Y-62447676D01*
X182619048Y-62733390D02*
X182761905Y-62542914D01*
X182761905Y-62542914D02*
X182904762Y-62733390D01*
X133166666Y-63304819D02*
X132833333Y-62828628D01*
X132595238Y-63304819D02*
X132595238Y-62304819D01*
X132595238Y-62304819D02*
X132976190Y-62304819D01*
X132976190Y-62304819D02*
X133071428Y-62352438D01*
X133071428Y-62352438D02*
X133119047Y-62400057D01*
X133119047Y-62400057D02*
X133166666Y-62495295D01*
X133166666Y-62495295D02*
X133166666Y-62638152D01*
X133166666Y-62638152D02*
X133119047Y-62733390D01*
X133119047Y-62733390D02*
X133071428Y-62781009D01*
X133071428Y-62781009D02*
X132976190Y-62828628D01*
X132976190Y-62828628D02*
X132595238Y-62828628D01*
X133595238Y-62781009D02*
X133928571Y-62781009D01*
X134071428Y-63304819D02*
X133595238Y-63304819D01*
X133595238Y-63304819D02*
X133595238Y-62304819D01*
X133595238Y-62304819D02*
X134071428Y-62304819D01*
X134833333Y-62781009D02*
X134500000Y-62781009D01*
X134500000Y-63304819D02*
X134500000Y-62304819D01*
X134500000Y-62304819D02*
X134976190Y-62304819D01*
X135500000Y-62304819D02*
X135500000Y-62542914D01*
X135261905Y-62447676D02*
X135500000Y-62542914D01*
X135500000Y-62542914D02*
X135738095Y-62447676D01*
X135357143Y-62733390D02*
X135500000Y-62542914D01*
X135500000Y-62542914D02*
X135642857Y-62733390D01*
X136261905Y-62304819D02*
X136261905Y-62542914D01*
X136023810Y-62447676D02*
X136261905Y-62542914D01*
X136261905Y-62542914D02*
X136500000Y-62447676D01*
X136119048Y-62733390D02*
X136261905Y-62542914D01*
X136261905Y-62542914D02*
X136404762Y-62733390D01*
X149333333Y-82204819D02*
X149000000Y-81728628D01*
X148761905Y-82204819D02*
X148761905Y-81204819D01*
X148761905Y-81204819D02*
X149142857Y-81204819D01*
X149142857Y-81204819D02*
X149238095Y-81252438D01*
X149238095Y-81252438D02*
X149285714Y-81300057D01*
X149285714Y-81300057D02*
X149333333Y-81395295D01*
X149333333Y-81395295D02*
X149333333Y-81538152D01*
X149333333Y-81538152D02*
X149285714Y-81633390D01*
X149285714Y-81633390D02*
X149238095Y-81681009D01*
X149238095Y-81681009D02*
X149142857Y-81728628D01*
X149142857Y-81728628D02*
X148761905Y-81728628D01*
X150285714Y-82204819D02*
X149714286Y-82204819D01*
X150000000Y-82204819D02*
X150000000Y-81204819D01*
X150000000Y-81204819D02*
X149904762Y-81347676D01*
X149904762Y-81347676D02*
X149809524Y-81442914D01*
X149809524Y-81442914D02*
X149714286Y-81490533D01*
X144208333Y-67729580D02*
X144160714Y-67777200D01*
X144160714Y-67777200D02*
X144017857Y-67824819D01*
X144017857Y-67824819D02*
X143922619Y-67824819D01*
X143922619Y-67824819D02*
X143779762Y-67777200D01*
X143779762Y-67777200D02*
X143684524Y-67681961D01*
X143684524Y-67681961D02*
X143636905Y-67586723D01*
X143636905Y-67586723D02*
X143589286Y-67396247D01*
X143589286Y-67396247D02*
X143589286Y-67253390D01*
X143589286Y-67253390D02*
X143636905Y-67062914D01*
X143636905Y-67062914D02*
X143684524Y-66967676D01*
X143684524Y-66967676D02*
X143779762Y-66872438D01*
X143779762Y-66872438D02*
X143922619Y-66824819D01*
X143922619Y-66824819D02*
X144017857Y-66824819D01*
X144017857Y-66824819D02*
X144160714Y-66872438D01*
X144160714Y-66872438D02*
X144208333Y-66920057D01*
X145160714Y-67824819D02*
X144589286Y-67824819D01*
X144875000Y-67824819D02*
X144875000Y-66824819D01*
X144875000Y-66824819D02*
X144779762Y-66967676D01*
X144779762Y-66967676D02*
X144684524Y-67062914D01*
X144684524Y-67062914D02*
X144589286Y-67110533D01*
X177146660Y-115584104D02*
X177622850Y-115584104D01*
X177051422Y-115869819D02*
X177384755Y-114869819D01*
X177384755Y-114869819D02*
X177718088Y-115869819D01*
X178575231Y-115869819D02*
X178003803Y-115869819D01*
X178289517Y-115869819D02*
X178289517Y-114869819D01*
X178289517Y-114869819D02*
X178194279Y-115012676D01*
X178194279Y-115012676D02*
X178099041Y-115107914D01*
X178099041Y-115107914D02*
X178003803Y-115155533D01*
X149233333Y-79654819D02*
X148900000Y-79178628D01*
X148661905Y-79654819D02*
X148661905Y-78654819D01*
X148661905Y-78654819D02*
X149042857Y-78654819D01*
X149042857Y-78654819D02*
X149138095Y-78702438D01*
X149138095Y-78702438D02*
X149185714Y-78750057D01*
X149185714Y-78750057D02*
X149233333Y-78845295D01*
X149233333Y-78845295D02*
X149233333Y-78988152D01*
X149233333Y-78988152D02*
X149185714Y-79083390D01*
X149185714Y-79083390D02*
X149138095Y-79131009D01*
X149138095Y-79131009D02*
X149042857Y-79178628D01*
X149042857Y-79178628D02*
X148661905Y-79178628D01*
X149614286Y-78750057D02*
X149661905Y-78702438D01*
X149661905Y-78702438D02*
X149757143Y-78654819D01*
X149757143Y-78654819D02*
X149995238Y-78654819D01*
X149995238Y-78654819D02*
X150090476Y-78702438D01*
X150090476Y-78702438D02*
X150138095Y-78750057D01*
X150138095Y-78750057D02*
X150185714Y-78845295D01*
X150185714Y-78845295D02*
X150185714Y-78940533D01*
X150185714Y-78940533D02*
X150138095Y-79083390D01*
X150138095Y-79083390D02*
X149566667Y-79654819D01*
X149566667Y-79654819D02*
X150185714Y-79654819D01*
X144033333Y-72559580D02*
X143985714Y-72607200D01*
X143985714Y-72607200D02*
X143842857Y-72654819D01*
X143842857Y-72654819D02*
X143747619Y-72654819D01*
X143747619Y-72654819D02*
X143604762Y-72607200D01*
X143604762Y-72607200D02*
X143509524Y-72511961D01*
X143509524Y-72511961D02*
X143461905Y-72416723D01*
X143461905Y-72416723D02*
X143414286Y-72226247D01*
X143414286Y-72226247D02*
X143414286Y-72083390D01*
X143414286Y-72083390D02*
X143461905Y-71892914D01*
X143461905Y-71892914D02*
X143509524Y-71797676D01*
X143509524Y-71797676D02*
X143604762Y-71702438D01*
X143604762Y-71702438D02*
X143747619Y-71654819D01*
X143747619Y-71654819D02*
X143842857Y-71654819D01*
X143842857Y-71654819D02*
X143985714Y-71702438D01*
X143985714Y-71702438D02*
X144033333Y-71750057D01*
X144938095Y-71654819D02*
X144461905Y-71654819D01*
X144461905Y-71654819D02*
X144414286Y-72131009D01*
X144414286Y-72131009D02*
X144461905Y-72083390D01*
X144461905Y-72083390D02*
X144557143Y-72035771D01*
X144557143Y-72035771D02*
X144795238Y-72035771D01*
X144795238Y-72035771D02*
X144890476Y-72083390D01*
X144890476Y-72083390D02*
X144938095Y-72131009D01*
X144938095Y-72131009D02*
X144985714Y-72226247D01*
X144985714Y-72226247D02*
X144985714Y-72464342D01*
X144985714Y-72464342D02*
X144938095Y-72559580D01*
X144938095Y-72559580D02*
X144890476Y-72607200D01*
X144890476Y-72607200D02*
X144795238Y-72654819D01*
X144795238Y-72654819D02*
X144557143Y-72654819D01*
X144557143Y-72654819D02*
X144461905Y-72607200D01*
X144461905Y-72607200D02*
X144414286Y-72559580D01*
X147238095Y-72054819D02*
X147238095Y-72864342D01*
X147238095Y-72864342D02*
X147285714Y-72959580D01*
X147285714Y-72959580D02*
X147333333Y-73007200D01*
X147333333Y-73007200D02*
X147428571Y-73054819D01*
X147428571Y-73054819D02*
X147619047Y-73054819D01*
X147619047Y-73054819D02*
X147714285Y-73007200D01*
X147714285Y-73007200D02*
X147761904Y-72959580D01*
X147761904Y-72959580D02*
X147809523Y-72864342D01*
X147809523Y-72864342D02*
X147809523Y-72054819D01*
X148809523Y-73054819D02*
X148238095Y-73054819D01*
X148523809Y-73054819D02*
X148523809Y-72054819D01*
X148523809Y-72054819D02*
X148428571Y-72197676D01*
X148428571Y-72197676D02*
X148333333Y-72292914D01*
X148333333Y-72292914D02*
X148238095Y-72340533D01*
X178058333Y-93884819D02*
X177725000Y-93408628D01*
X177486905Y-93884819D02*
X177486905Y-92884819D01*
X177486905Y-92884819D02*
X177867857Y-92884819D01*
X177867857Y-92884819D02*
X177963095Y-92932438D01*
X177963095Y-92932438D02*
X178010714Y-92980057D01*
X178010714Y-92980057D02*
X178058333Y-93075295D01*
X178058333Y-93075295D02*
X178058333Y-93218152D01*
X178058333Y-93218152D02*
X178010714Y-93313390D01*
X178010714Y-93313390D02*
X177963095Y-93361009D01*
X177963095Y-93361009D02*
X177867857Y-93408628D01*
X177867857Y-93408628D02*
X177486905Y-93408628D01*
X178391667Y-92884819D02*
X179010714Y-92884819D01*
X179010714Y-92884819D02*
X178677381Y-93265771D01*
X178677381Y-93265771D02*
X178820238Y-93265771D01*
X178820238Y-93265771D02*
X178915476Y-93313390D01*
X178915476Y-93313390D02*
X178963095Y-93361009D01*
X178963095Y-93361009D02*
X179010714Y-93456247D01*
X179010714Y-93456247D02*
X179010714Y-93694342D01*
X179010714Y-93694342D02*
X178963095Y-93789580D01*
X178963095Y-93789580D02*
X178915476Y-93837200D01*
X178915476Y-93837200D02*
X178820238Y-93884819D01*
X178820238Y-93884819D02*
X178534524Y-93884819D01*
X178534524Y-93884819D02*
X178439286Y-93837200D01*
X178439286Y-93837200D02*
X178391667Y-93789580D01*
X141930476Y-78349295D02*
X141930476Y-78996914D01*
X141930476Y-78996914D02*
X141968571Y-79073104D01*
X141968571Y-79073104D02*
X142006666Y-79111200D01*
X142006666Y-79111200D02*
X142082857Y-79149295D01*
X142082857Y-79149295D02*
X142235238Y-79149295D01*
X142235238Y-79149295D02*
X142311428Y-79111200D01*
X142311428Y-79111200D02*
X142349523Y-79073104D01*
X142349523Y-79073104D02*
X142387619Y-78996914D01*
X142387619Y-78996914D02*
X142387619Y-78349295D01*
X142692380Y-78349295D02*
X143187618Y-78349295D01*
X143187618Y-78349295D02*
X142920952Y-78654057D01*
X142920952Y-78654057D02*
X143035237Y-78654057D01*
X143035237Y-78654057D02*
X143111428Y-78692152D01*
X143111428Y-78692152D02*
X143149523Y-78730247D01*
X143149523Y-78730247D02*
X143187618Y-78806438D01*
X143187618Y-78806438D02*
X143187618Y-78996914D01*
X143187618Y-78996914D02*
X143149523Y-79073104D01*
X143149523Y-79073104D02*
X143111428Y-79111200D01*
X143111428Y-79111200D02*
X143035237Y-79149295D01*
X143035237Y-79149295D02*
X142806666Y-79149295D01*
X142806666Y-79149295D02*
X142730475Y-79111200D01*
X142730475Y-79111200D02*
X142692380Y-79073104D01*
X136833333Y-78159580D02*
X136785714Y-78207200D01*
X136785714Y-78207200D02*
X136642857Y-78254819D01*
X136642857Y-78254819D02*
X136547619Y-78254819D01*
X136547619Y-78254819D02*
X136404762Y-78207200D01*
X136404762Y-78207200D02*
X136309524Y-78111961D01*
X136309524Y-78111961D02*
X136261905Y-78016723D01*
X136261905Y-78016723D02*
X136214286Y-77826247D01*
X136214286Y-77826247D02*
X136214286Y-77683390D01*
X136214286Y-77683390D02*
X136261905Y-77492914D01*
X136261905Y-77492914D02*
X136309524Y-77397676D01*
X136309524Y-77397676D02*
X136404762Y-77302438D01*
X136404762Y-77302438D02*
X136547619Y-77254819D01*
X136547619Y-77254819D02*
X136642857Y-77254819D01*
X136642857Y-77254819D02*
X136785714Y-77302438D01*
X136785714Y-77302438D02*
X136833333Y-77350057D01*
X137166667Y-77254819D02*
X137785714Y-77254819D01*
X137785714Y-77254819D02*
X137452381Y-77635771D01*
X137452381Y-77635771D02*
X137595238Y-77635771D01*
X137595238Y-77635771D02*
X137690476Y-77683390D01*
X137690476Y-77683390D02*
X137738095Y-77731009D01*
X137738095Y-77731009D02*
X137785714Y-77826247D01*
X137785714Y-77826247D02*
X137785714Y-78064342D01*
X137785714Y-78064342D02*
X137738095Y-78159580D01*
X137738095Y-78159580D02*
X137690476Y-78207200D01*
X137690476Y-78207200D02*
X137595238Y-78254819D01*
X137595238Y-78254819D02*
X137309524Y-78254819D01*
X137309524Y-78254819D02*
X137214286Y-78207200D01*
X137214286Y-78207200D02*
X137166667Y-78159580D01*
X149766666Y-92284819D02*
X149766666Y-92999104D01*
X149766666Y-92999104D02*
X149719047Y-93141961D01*
X149719047Y-93141961D02*
X149623809Y-93237200D01*
X149623809Y-93237200D02*
X149480952Y-93284819D01*
X149480952Y-93284819D02*
X149385714Y-93284819D01*
X150766666Y-93284819D02*
X150195238Y-93284819D01*
X150480952Y-93284819D02*
X150480952Y-92284819D01*
X150480952Y-92284819D02*
X150385714Y-92427676D01*
X150385714Y-92427676D02*
X150290476Y-92522914D01*
X150290476Y-92522914D02*
X150195238Y-92570533D01*
X139238095Y-113054819D02*
X139238095Y-113864342D01*
X139238095Y-113864342D02*
X139285714Y-113959580D01*
X139285714Y-113959580D02*
X139333333Y-114007200D01*
X139333333Y-114007200D02*
X139428571Y-114054819D01*
X139428571Y-114054819D02*
X139619047Y-114054819D01*
X139619047Y-114054819D02*
X139714285Y-114007200D01*
X139714285Y-114007200D02*
X139761904Y-113959580D01*
X139761904Y-113959580D02*
X139809523Y-113864342D01*
X139809523Y-113864342D02*
X139809523Y-113054819D01*
X140238095Y-113150057D02*
X140285714Y-113102438D01*
X140285714Y-113102438D02*
X140380952Y-113054819D01*
X140380952Y-113054819D02*
X140619047Y-113054819D01*
X140619047Y-113054819D02*
X140714285Y-113102438D01*
X140714285Y-113102438D02*
X140761904Y-113150057D01*
X140761904Y-113150057D02*
X140809523Y-113245295D01*
X140809523Y-113245295D02*
X140809523Y-113340533D01*
X140809523Y-113340533D02*
X140761904Y-113483390D01*
X140761904Y-113483390D02*
X140190476Y-114054819D01*
X140190476Y-114054819D02*
X140809523Y-114054819D01*
X139033333Y-118159580D02*
X138985714Y-118207200D01*
X138985714Y-118207200D02*
X138842857Y-118254819D01*
X138842857Y-118254819D02*
X138747619Y-118254819D01*
X138747619Y-118254819D02*
X138604762Y-118207200D01*
X138604762Y-118207200D02*
X138509524Y-118111961D01*
X138509524Y-118111961D02*
X138461905Y-118016723D01*
X138461905Y-118016723D02*
X138414286Y-117826247D01*
X138414286Y-117826247D02*
X138414286Y-117683390D01*
X138414286Y-117683390D02*
X138461905Y-117492914D01*
X138461905Y-117492914D02*
X138509524Y-117397676D01*
X138509524Y-117397676D02*
X138604762Y-117302438D01*
X138604762Y-117302438D02*
X138747619Y-117254819D01*
X138747619Y-117254819D02*
X138842857Y-117254819D01*
X138842857Y-117254819D02*
X138985714Y-117302438D01*
X138985714Y-117302438D02*
X139033333Y-117350057D01*
X139414286Y-117350057D02*
X139461905Y-117302438D01*
X139461905Y-117302438D02*
X139557143Y-117254819D01*
X139557143Y-117254819D02*
X139795238Y-117254819D01*
X139795238Y-117254819D02*
X139890476Y-117302438D01*
X139890476Y-117302438D02*
X139938095Y-117350057D01*
X139938095Y-117350057D02*
X139985714Y-117445295D01*
X139985714Y-117445295D02*
X139985714Y-117540533D01*
X139985714Y-117540533D02*
X139938095Y-117683390D01*
X139938095Y-117683390D02*
X139366667Y-118254819D01*
X139366667Y-118254819D02*
X139985714Y-118254819D01*
X147433333Y-95309580D02*
X147385714Y-95357200D01*
X147385714Y-95357200D02*
X147242857Y-95404819D01*
X147242857Y-95404819D02*
X147147619Y-95404819D01*
X147147619Y-95404819D02*
X147004762Y-95357200D01*
X147004762Y-95357200D02*
X146909524Y-95261961D01*
X146909524Y-95261961D02*
X146861905Y-95166723D01*
X146861905Y-95166723D02*
X146814286Y-94976247D01*
X146814286Y-94976247D02*
X146814286Y-94833390D01*
X146814286Y-94833390D02*
X146861905Y-94642914D01*
X146861905Y-94642914D02*
X146909524Y-94547676D01*
X146909524Y-94547676D02*
X147004762Y-94452438D01*
X147004762Y-94452438D02*
X147147619Y-94404819D01*
X147147619Y-94404819D02*
X147242857Y-94404819D01*
X147242857Y-94404819D02*
X147385714Y-94452438D01*
X147385714Y-94452438D02*
X147433333Y-94500057D01*
X148290476Y-94738152D02*
X148290476Y-95404819D01*
X148052381Y-94357200D02*
X147814286Y-95071485D01*
X147814286Y-95071485D02*
X148433333Y-95071485D01*
%TO.C,R1*%
D11*
X151687742Y-81227500D02*
X152162258Y-81227500D01*
X151687742Y-82272500D02*
X152162258Y-82272500D01*
%TO.C,C1*%
X144234420Y-68290000D02*
X144515580Y-68290000D01*
X144234420Y-69310000D02*
X144515580Y-69310000D01*
%TO.C,A1*%
X154500000Y-67580000D02*
X154020000Y-67580000D01*
X154500000Y-67580000D02*
X154500000Y-68000000D01*
X154500000Y-70120000D02*
X154500000Y-70540000D01*
X154500000Y-72660000D02*
X154500000Y-73080000D01*
X154500000Y-75200000D02*
X154500000Y-75620000D01*
X154500000Y-77740000D02*
X154500000Y-78160000D01*
X154500000Y-80280000D02*
X154500000Y-80700000D01*
X154500000Y-82820000D02*
X154500000Y-83240000D01*
X154500000Y-85360000D02*
X154500000Y-85780000D01*
X154500000Y-87900000D02*
X154500000Y-88320000D01*
X154500000Y-90440000D02*
X154500000Y-90860000D01*
X154500000Y-92980000D02*
X154500000Y-93400000D01*
X154500000Y-95520000D02*
X154500000Y-95940000D01*
X154500000Y-98060000D02*
X154500000Y-98480000D01*
X154500000Y-100600000D02*
X154500000Y-101020000D01*
X154500000Y-103140000D02*
X154500000Y-103560000D01*
X154500000Y-105680000D02*
X154500000Y-106100000D01*
X154500000Y-108220000D02*
X154500000Y-108640000D01*
X154500000Y-110760000D02*
X154500000Y-111180000D01*
X154500000Y-113300000D02*
X154500000Y-113720000D01*
X154530324Y-65460000D02*
X154020000Y-65460000D01*
X154840000Y-65460063D02*
X154840000Y-65103000D01*
X154840000Y-67580000D02*
X154840000Y-68000000D01*
X154840000Y-70120000D02*
X154840000Y-70540000D01*
X154840000Y-72660000D02*
X154840000Y-73080000D01*
X154840000Y-75200000D02*
X154840000Y-75620000D01*
X154840000Y-77740000D02*
X154840000Y-78160000D01*
X154840000Y-80280000D02*
X154840000Y-80700000D01*
X154840000Y-82820000D02*
X154840000Y-83240000D01*
X154840000Y-85360000D02*
X154840000Y-85780000D01*
X154840000Y-87900000D02*
X154840000Y-88320000D01*
X154840000Y-90440000D02*
X154840000Y-90860000D01*
X154840000Y-92980000D02*
X154840000Y-93400000D01*
X154840000Y-95520000D02*
X154840000Y-95940000D01*
X154840000Y-98060000D02*
X154840000Y-98480000D01*
X154840000Y-100600000D02*
X154840000Y-101020000D01*
X154840000Y-103140000D02*
X154840000Y-103560000D01*
X154840000Y-105680000D02*
X154840000Y-106100000D01*
X154840000Y-108220000D02*
X154840000Y-108640000D01*
X154840000Y-110760000D02*
X154840000Y-111180000D01*
X154840000Y-113300000D02*
X154840000Y-113720000D01*
X154840000Y-115839937D02*
X154840000Y-116197000D01*
X155110000Y-65040000D02*
X157600000Y-65040000D01*
X155110000Y-116260000D02*
X158947939Y-116260000D01*
X157600000Y-65040000D02*
X157600000Y-65953520D01*
X157600000Y-65040000D02*
X158947940Y-65040000D01*
X157600000Y-68346480D02*
X157600000Y-112953520D01*
X157600000Y-115346480D02*
X157600000Y-116260000D01*
X159872061Y-65040000D02*
X160875000Y-65040000D01*
X160875000Y-65040000D02*
X169345000Y-65040000D01*
X161210000Y-65040000D02*
X161210000Y-65956000D01*
X161210000Y-68344000D02*
X161210000Y-69560000D01*
X161210000Y-69560000D02*
X161506090Y-69560000D01*
X161510000Y-116260000D02*
X159872061Y-116260000D01*
X163863910Y-69560000D02*
X166356090Y-69560000D01*
X168710000Y-116260000D02*
X161510000Y-116260000D01*
X168713910Y-69560000D02*
X169010000Y-69560000D01*
X169010000Y-65040000D02*
X169010000Y-65956000D01*
X169010000Y-68344000D02*
X169010000Y-69560000D01*
X169345000Y-65040000D02*
X170347939Y-65040000D01*
X170347939Y-116260000D02*
X168710000Y-116260000D01*
X171272061Y-65040000D02*
X172620000Y-65040000D01*
X171272061Y-116260000D02*
X175110000Y-116260000D01*
X172620000Y-65040000D02*
X172620000Y-65953520D01*
X172620000Y-68346480D02*
X172620000Y-112953520D01*
X172620000Y-115346480D02*
X172620000Y-116260000D01*
X175110000Y-65040000D02*
X172620000Y-65040000D01*
X175380000Y-65460063D02*
X175380000Y-65103000D01*
X175380000Y-67580000D02*
X175380000Y-68000000D01*
X175380000Y-70120000D02*
X175380000Y-70540000D01*
X175380000Y-72660000D02*
X175380000Y-73080000D01*
X175380000Y-75200000D02*
X175380000Y-75620000D01*
X175380000Y-77740000D02*
X175380000Y-78160000D01*
X175380000Y-80280000D02*
X175380000Y-80700000D01*
X175380000Y-82820000D02*
X175380000Y-83240000D01*
X175380000Y-85360000D02*
X175380000Y-85780000D01*
X175380000Y-87900000D02*
X175380000Y-88320000D01*
X175380000Y-90440000D02*
X175380000Y-90860000D01*
X175380000Y-92980000D02*
X175380000Y-93400000D01*
X175380000Y-95520000D02*
X175380000Y-95940000D01*
X175380000Y-98060000D02*
X175380000Y-98480000D01*
X175380000Y-100600000D02*
X175380000Y-101020000D01*
X175380000Y-103140000D02*
X175380000Y-103560000D01*
X175380000Y-105680000D02*
X175380000Y-106100000D01*
X175380000Y-108220000D02*
X175380000Y-108640000D01*
X175380000Y-110760000D02*
X175380000Y-111180000D01*
X175380000Y-113300000D02*
X175380000Y-113720000D01*
X175380000Y-115839937D02*
X175380000Y-116197000D01*
X175720000Y-67580000D02*
X175720000Y-68000000D01*
X175720000Y-70120000D02*
X175720000Y-70540000D01*
X175720000Y-72660000D02*
X175720000Y-73080000D01*
X175720000Y-75200000D02*
X175720000Y-75620000D01*
X175720000Y-77740000D02*
X175720000Y-78160000D01*
X175720000Y-80280000D02*
X175720000Y-80700000D01*
X175720000Y-82820000D02*
X175720000Y-83240000D01*
X175720000Y-85360000D02*
X175720000Y-85780000D01*
X175720000Y-87900000D02*
X175720000Y-88320000D01*
X175720000Y-90440000D02*
X175720000Y-90860000D01*
X175720000Y-92980000D02*
X175720000Y-93400000D01*
X175720000Y-95520000D02*
X175720000Y-95940000D01*
X175720000Y-98060000D02*
X175720000Y-98480000D01*
X175720000Y-100600000D02*
X175720000Y-101020000D01*
X175720000Y-103140000D02*
X175720000Y-103560000D01*
X175720000Y-105680000D02*
X175720000Y-106100000D01*
X175720000Y-108220000D02*
X175720000Y-108640000D01*
X175720000Y-110760000D02*
X175720000Y-111180000D01*
X175720000Y-113300000D02*
X175720000Y-113720000D01*
X154530324Y-65460000D02*
G75*
G02*
X155110000Y-65040000I579692J-190051D01*
G01*
X155110000Y-116260000D02*
G75*
G02*
X154530324Y-115839937I1J610002D01*
G01*
X175110000Y-65040000D02*
G75*
G02*
X175689676Y-65460063I0J-610000D01*
G01*
X175689676Y-115839937D02*
G75*
G02*
X175110000Y-116260069I-579676J189837D01*
G01*
%TO.C,R2*%
X151687742Y-78727500D02*
X152162258Y-78727500D01*
X151687742Y-79772500D02*
X152162258Y-79772500D01*
%TO.C,C5*%
X144461252Y-69865000D02*
X143938748Y-69865000D01*
X144461252Y-71335000D02*
X143938748Y-71335000D01*
%TO.C,U1*%
X146150000Y-67070000D02*
X146150000Y-70670000D01*
X146161522Y-67031522D02*
G75*
G02*
X150600001Y-68870000I1838478J-1838478D01*
G01*
X150600000Y-68870000D02*
G75*
G02*
X146161522Y-70708478I-2600000J0D01*
G01*
%TO.C,R3*%
X178462258Y-91477500D02*
X177987742Y-91477500D01*
X178462258Y-92522500D02*
X177987742Y-92522500D01*
%TO.C,U3*%
D12*
X141000000Y-79696000D02*
X143000000Y-79696000D01*
X141000000Y-81894000D02*
X143000000Y-81894000D01*
D13*
X140165000Y-80145000D02*
G75*
G02*
X139965000Y-80145000I-100000J0D01*
G01*
X139965000Y-80145000D02*
G75*
G02*
X140165000Y-80145000I100000J0D01*
G01*
%TO.C,C3*%
D11*
X136490000Y-79884420D02*
X136490000Y-80165580D01*
X137510000Y-79884420D02*
X137510000Y-80165580D01*
%TO.C,J1*%
X148720000Y-93830000D02*
X150100000Y-93830000D01*
X148720000Y-95210000D02*
X148720000Y-93830000D01*
X148720000Y-96480000D02*
X148720000Y-104210000D01*
X148720000Y-96480000D02*
X151480000Y-96480000D01*
X148720000Y-104210000D02*
X151480000Y-104210000D01*
X151480000Y-96480000D02*
X151480000Y-104210000D01*
%TO.C,U2*%
D10*
X135450000Y-116475000D02*
X135450000Y-113525000D01*
X138850000Y-116475000D02*
X138850000Y-113700000D01*
D11*
X138560000Y-113380000D02*
X138560000Y-113100000D01*
X138840000Y-113380000D01*
X138560000Y-113380000D01*
G36*
X138840000Y-113380000D02*
G01*
X138560000Y-113380000D01*
X138560000Y-113100000D01*
X138840000Y-113380000D01*
G37*
%TO.C,C2*%
X136940580Y-117290000D02*
X136659420Y-117290000D01*
X136940580Y-118310000D02*
X136659420Y-118310000D01*
%TO.C,C4*%
X147090000Y-97115580D02*
X147090000Y-96834420D01*
X148110000Y-97115580D02*
X148110000Y-96834420D01*
%TD*%
M02*
