%TF.GenerationSoftware,KiCad,Pcbnew,10.0.3*%
%TF.CreationDate,2026-06-09T20:37:01-04:00*%
%TF.ProjectId,I2C_PP,4932435f-5050-42e6-9b69-6361645f7063,rev?*%
%TF.SameCoordinates,Original*%
%TF.FileFunction,Soldermask,Bot*%
%TF.FilePolarity,Negative*%
%FSLAX46Y46*%
G04 Gerber Fmt 4.6, Leading zero omitted, Abs format (unit mm)*
G04 Created by KiCad (PCBNEW 10.0.3) date 2026-06-09 20:37:01*
%MOMM*%
%LPD*%
G01*
G04 APERTURE LIST*
G04 Aperture macros list*
%AMRoundRect*
0 Rectangle with rounded corners*
0 $1 Rounding radius*
0 $2 $3 $4 $5 $6 $7 $8 $9 X,Y pos of 4 corners*
0 Add a 4 corners polygon primitive as box body*
4,1,4,$2,$3,$4,$5,$6,$7,$8,$9,$2,$3,0*
0 Add four circle primitives for the rounded corners*
1,1,$1+$1,$2,$3*
1,1,$1+$1,$4,$5*
1,1,$1+$1,$6,$7*
1,1,$1+$1,$8,$9*
0 Add four rect primitives between the rounded corners*
20,1,$1+$1,$2,$3,$4,$5,0*
20,1,$1+$1,$4,$5,$6,$7,0*
20,1,$1+$1,$6,$7,$8,$9,0*
20,1,$1+$1,$8,$9,$2,$3,0*%
%AMFreePoly0*
4,1,37,0.603843,0.796157,0.639018,0.796157,0.711114,0.766294,0.766294,0.711114,0.796157,0.639018,0.796157,0.603843,0.800000,0.600000,0.800000,-0.600000,0.796157,-0.603843,0.796157,-0.639018,0.766294,-0.711114,0.711114,-0.766294,0.639018,-0.796157,0.603843,-0.796157,0.600000,-0.800000,0.000000,-0.800000,0.000000,-0.796148,-0.078414,-0.796148,-0.232228,-0.765552,-0.377117,-0.705537,
-0.507515,-0.618408,-0.618408,-0.507515,-0.705537,-0.377117,-0.765552,-0.232228,-0.796148,-0.078414,-0.796148,0.078414,-0.765552,0.232228,-0.705537,0.377117,-0.618408,0.507515,-0.507515,0.618408,-0.377117,0.705537,-0.232228,0.765552,-0.078414,0.796148,0.000000,0.796148,0.000000,0.800000,0.600000,0.800000,0.603843,0.796157,0.603843,0.796157,$1*%
%AMFreePoly1*
4,1,37,0.000000,0.796148,0.078414,0.796148,0.232228,0.765552,0.377117,0.705537,0.507515,0.618408,0.618408,0.507515,0.705537,0.377117,0.765552,0.232228,0.796148,0.078414,0.796148,-0.078414,0.765552,-0.232228,0.705537,-0.377117,0.618408,-0.507515,0.507515,-0.618408,0.377117,-0.705537,0.232228,-0.765552,0.078414,-0.796148,0.000000,-0.796148,0.000000,-0.800000,-0.600000,-0.800000,
-0.603843,-0.796157,-0.639018,-0.796157,-0.711114,-0.766294,-0.766294,-0.711114,-0.796157,-0.639018,-0.796157,-0.603843,-0.800000,-0.600000,-0.800000,0.600000,-0.796157,0.603843,-0.796157,0.639018,-0.766294,0.711114,-0.711114,0.766294,-0.639018,0.796157,-0.603843,0.796157,-0.600000,0.800000,0.000000,0.800000,0.000000,0.796148,0.000000,0.796148,$1*%
G04 Aperture macros list end*
%ADD10C,3.200000*%
%ADD11C,2.200000*%
%ADD12C,1.850000*%
%ADD13RoundRect,0.200000X-0.600000X-0.600000X0.600000X-0.600000X0.600000X0.600000X-0.600000X0.600000X0*%
%ADD14C,1.600000*%
%ADD15FreePoly0,0.000000*%
%ADD16FreePoly1,0.000000*%
%ADD17R,1.500000X1.050000*%
%ADD18O,1.500000X1.050000*%
%ADD19R,1.700000X1.700000*%
%ADD20C,1.700000*%
G04 APERTURE END LIST*
D10*
%TO.C,REF\u002A\u002A*%
X135000000Y-109000000D03*
%TD*%
%TO.C,REF\u002A\u002A*%
X181000000Y-117500000D03*
%TD*%
%TO.C,REF\u002A\u002A*%
X181000000Y-67000000D03*
%TD*%
%TO.C,REF\u002A\u002A*%
X134500000Y-67000000D03*
%TD*%
D11*
%TO.C,A1*%
X162385000Y-66650000D03*
D12*
X162685000Y-69680000D03*
X167535000Y-69680000D03*
D11*
X167835000Y-66650000D03*
D13*
X156220000Y-66520000D03*
D14*
X156220000Y-69060000D03*
D15*
X156220000Y-71600000D03*
D14*
X156220000Y-74140000D03*
X156220000Y-76680000D03*
X156220000Y-79220000D03*
X156220000Y-81760000D03*
D15*
X156220000Y-84300000D03*
D14*
X156220000Y-86840000D03*
X156220000Y-89380000D03*
X156220000Y-91920000D03*
X156220000Y-94460000D03*
D15*
X156220000Y-97000000D03*
D14*
X156220000Y-99540000D03*
X156220000Y-102080000D03*
X156220000Y-104620000D03*
X156220000Y-107160000D03*
D15*
X156220000Y-109700000D03*
D14*
X156220000Y-112240000D03*
X156220000Y-114780000D03*
X174000000Y-114780000D03*
X174000000Y-112240000D03*
D16*
X174000000Y-109700000D03*
D14*
X174000000Y-107160000D03*
X174000000Y-104620000D03*
X174000000Y-102080000D03*
X174000000Y-99540000D03*
D16*
X174000000Y-97000000D03*
D14*
X174000000Y-94460000D03*
X174000000Y-91920000D03*
X174000000Y-89380000D03*
X174000000Y-86840000D03*
D16*
X174000000Y-84300000D03*
D14*
X174000000Y-81760000D03*
X174000000Y-79220000D03*
X174000000Y-76680000D03*
X174000000Y-74140000D03*
D16*
X174000000Y-71600000D03*
D14*
X174000000Y-69060000D03*
X174000000Y-66520000D03*
%TD*%
D17*
%TO.C,U1*%
X148000000Y-67600000D03*
D18*
X148000000Y-68870000D03*
X148000000Y-70140000D03*
%TD*%
D19*
%TO.C,J1*%
X150100000Y-95210000D03*
D20*
X150100000Y-97750000D03*
X150100000Y-100290000D03*
X150100000Y-102830000D03*
%TD*%
M02*
